AnekKannada-CondensedThin.ufo
<glyph name="B" format="2">
  <advance width="624"/>
  <unicode hex="0042"/>
  <anchor x="312" y="0" name="bottom"/>
  <anchor x="312" y="1278" name="top"/>
  <outline>
    <contour>
      <point x="324" y="0" type="line" smooth="yes"/>
      <point x="486" y="0"/>
      <point x="545" y="105"/>
      <point x="545" y="270" type="curve" smooth="yes"/>
      <point x="545" y="409" type="line" smooth="yes"/>
      <point x="545" y="560"/>
      <point x="501" y="652"/>
      <point x="359" y="672" type="curve"/>
      <point x="379" y="665" type="line"/>
      <point x="495" y="692"/>
      <point x="534" y="775"/>
      <point x="534" y="915" type="curve" smooth="yes"/>
      <point x="534" y="1008" type="line" smooth="yes"/>
      <point x="534" y="1173"/>
      <point x="475" y="1278"/>
      <point x="315" y="1278" type="curve" smooth="yes"/>
      <point x="139" y="1278" type="line"/>
      <point x="139" y="1243" type="line"/>
      <point x="313" y="1243" type="line" smooth="yes"/>
      <point x="451" y="1243"/>
      <point x="495" y="1153"/>
      <point x="495" y="1006" type="curve" smooth="yes"/>
      <point x="495" y="898" type="line" smooth="yes"/>
      <point x="495" y="768"/>
      <point x="453" y="677"/>
      <point x="307" y="677" type="curve" smooth="yes"/>
      <point x="151" y="677" type="line"/>
      <point x="151" y="644" type="line"/>
      <point x="302" y="644" type="line" smooth="yes"/>
      <point x="462" y="644"/>
      <point x="506" y="554"/>
      <point x="506" y="407" type="curve" smooth="yes"/>
      <point x="506" y="272" type="line" smooth="yes"/>
      <point x="506" y="125"/>
      <point x="462" y="35"/>
      <point x="322" y="35" type="curve" smooth="yes"/>
      <point x="139" y="35" type="line"/>
      <point x="139" y="0" type="line"/>
    </contour>
    <contour>
      <point x="160" y="0" type="line"/>
      <point x="160" y="1278" type="line"/>
      <point x="121" y="1278" type="line"/>
      <point x="121" y="0" type="line"/>
    </contour>
  </outline>
</glyph>
<glyph name="backslash" format="2">
  <advance width="454"/>
  <unicode hex="005C"/>
  <outline>
    <contour>
      <point x="368" y="-241" type="line"/>
      <point x="50" y="1352" type="line"/>
      <point x="86" y="1352" type="line"/>
      <point x="404" y="-241" type="line"/>
    </contour>
  </outline>
</glyph>
<glyph name="underscore" format="2">
  <advance width="572"/>
  <unicode hex="005F"/>
  <outline>
    <contour>
      <point x="520" y="-131" type="line"/>
      <point x="520" y="-101" type="line"/>
      <point x="52" y="-101" type="line"/>
      <point x="52" y="-131" type="line"/>
    </contour>
  </outline>
</glyph>
<glyph name="e" format="2">
  <advance width="553"/>
  <unicode hex="0065"/>
  <anchor x="300" y="0" name="bottom"/>
  <anchor x="458" y="10" name="ogonek"/>
  <anchor x="285" y="990" name="top"/>
  <outline>
    <contour>
      <point x="303" y="-13" type="curve" smooth="yes"/>
      <point x="374" y="-13"/>
      <point x="431" y="16"/>
      <point x="469" y="49" type="curve"/>
      <point x="474" y="93" type="line"/>
      <point x="427" y="53"/>
      <point x="372" y="22"/>
      <point x="305" y="22" type="curve" smooth="yes"/>
      <point x="192" y="22"/>
      <point x="126" y="99"/>
      <point x="126" y="252" type="curve" smooth="yes"/>
      <point x="126" y="469" type="line"/>
      <point x="126" y="480" type="line"/>
      <point x="126" y="749" type="line" smooth="yes"/>
      <point x="126" y="892"/>
      <point x="178" y="970"/>
      <point x="286" y="970" type="curve" smooth="yes"/>
      <point x="395" y="970"/>
      <point x="446" y="892"/>
      <point x="446" y="749" type="curve" smooth="yes"/>
      <point x="446" y="650"/>
      <point x="446" y="565"/>
      <point x="446" y="460" type="curve"/>
      <point x="479" y="460" type="line"/>
      <point x="483" y="517"/>
      <point x="483" y="559"/>
      <point x="483" y="609" type="curve" smooth="yes"/>
      <point x="483" y="749" type="line" smooth="yes"/>
      <point x="483" y="914"/>
      <point x="417" y="1003"/>
      <point x="286" y="1003" type="curve" smooth="yes"/>
      <point x="156" y="1003"/>
      <point x="89" y="914"/>
      <point x="89" y="749" type="curve" smooth="yes"/>
      <point x="89" y="251" type="line" smooth="yes"/>
      <point x="89" y="75"/>
      <point x="167" y="-13"/>
    </contour>
    <contour>
      <point x="465" y="460" type="line"/>
      <point x="465" y="493" type="line"/>
      <point x="106" y="493" type="line"/>
      <point x="106" y="460" type="line"/>
    </contour>
  </outline>
</glyph>
<glyph name="q" format="2">
  <advance width="617"/>
  <unicode hex="0071"/>
  <anchor x="309" y="0" name="bottom"/>
  <anchor x="309" y="990" name="top"/>
  <outline>
    <contour>
      <point x="284" y="-13" type="curve" smooth="yes"/>
      <point x="397" y="-13"/>
      <point x="460" y="62"/>
      <point x="481" y="185" type="curve"/>
      <point x="492" y="185" type="line"/>
      <point x="474" y="230" type="line"/>
      <point x="449" y="93"/>
      <point x="391" y="20"/>
      <point x="290" y="20" type="curve" smooth="yes"/>
      <point x="174" y="20"/>
      <point x="126" y="105"/>
      <point x="126" y="259" type="curve" smooth="yes"/>
      <point x="126" y="730" type="line" smooth="yes"/>
      <point x="126" y="885"/>
      <point x="179" y="970"/>
      <point x="291" y="970" type="curve" smooth="yes"/>
      <point x="404" y="970"/>
      <point x="465" y="881"/>
      <point x="472" y="743" type="curve"/>
      <point x="492" y="782" type="line"/>
      <point x="483" y="782" type="line"/>
      <point x="478" y="905"/>
      <point x="416" y="1003"/>
      <point x="291" y="1003" type="curve" smooth="yes"/>
      <point x="153" y="1003"/>
      <point x="89" y="907"/>
      <point x="89" y="730" type="curve" smooth="yes"/>
      <point x="89" y="258" type="line" smooth="yes"/>
      <point x="89" y="81"/>
      <point x="152" y="-13"/>
    </contour>
    <contour>
      <point x="507" y="-350" type="line"/>
      <point x="507" y="990" type="line"/>
      <point x="469" y="990" type="line"/>
      <point x="473" y="832" type="line"/>
      <point x="472" y="795" type="line"/>
      <point x="472" y="187" type="line"/>
      <point x="474" y="174" type="line"/>
      <point x="470" y="-17" type="line"/>
      <point x="470" y="-350" type="line"/>
    </contour>
  </outline>
</glyph>
<glyph name="asciitilde" format="2">
  <advance width="729"/>
  <unicode hex="007E"/>
  <outline>
    <contour>
      <point x="500" y="556" type="curve" smooth="yes"/>
      <point x="577" y="556"/>
      <point x="614" y="599"/>
      <point x="614" y="682" type="curve" smooth="yes"/>
      <point x="614" y="706" type="line"/>
      <point x="579" y="706" type="line"/>
      <point x="579" y="684" type="line"/>
      <point x="579" y="621"/>
      <point x="554" y="588"/>
      <point x="503" y="588" type="curve" smooth="yes"/>
      <point x="413" y="588"/>
      <point x="329" y="690"/>
      <point x="229" y="690" type="curve" smooth="yes"/>
      <point x="152" y="690"/>
      <point x="115" y="647"/>
      <point x="115" y="562" type="curve" smooth="yes"/>
      <point x="115" y="537" type="line"/>
      <point x="148" y="537" type="line"/>
      <point x="148" y="560" type="line"/>
      <point x="148" y="625"/>
      <point x="174" y="658"/>
      <point x="226" y="658" type="curve" smooth="yes"/>
      <point x="315" y="658"/>
      <point x="396" y="556"/>
    </contour>
  </outline>
</glyph>
<glyph name="yen" format="2">
  <advance width="649"/>
  <unicode hex="00A5"/>
  <outline>
    <component base="Y" xOffset="33"/>
    <contour>
      <point x="548" y="592" type="line"/>
      <point x="554" y="623" type="line"/>
      <point x="373" y="623" type="line"/>
      <point x="361" y="592" type="line"/>
    </contour>
    <contour>
      <point x="96" y="285" type="line"/>
      <point x="548" y="285" type="line"/>
      <point x="554" y="316" type="line"/>
      <point x="103" y="316" type="line"/>
    </contour>
    <contour>
      <point x="103" y="623" type="line"/>
      <point x="96" y="592" type="line"/>
      <point x="287" y="592" type="line"/>
      <point x="273" y="623" type="line"/>
    </contour>
  </outline>
</glyph>
<glyph name="tildecomb" format="2">
  <advance width="541"/>
  <unicode hex="0303"/>
  <anchor x="270" y="990" name="_top"/>
  <anchor x="271" y="1268" name="top"/>
  <outline>
    <contour>
      <point x="364" y="1155" type="curve" smooth="yes"/>
      <point x="419" y="1155"/>
      <point x="440" y="1187"/>
      <point x="440" y="1247" type="curve" smooth="yes"/>
      <point x="440" y="1278" type="line"/>
      <point x="408" y="1278" type="line"/>
      <point x="408" y="1251" type="line"/>
      <point x="408" y="1204"/>
      <point x="398" y="1186"/>
      <point x="364" y="1186" type="curve" smooth="yes"/>
      <point x="312" y="1186"/>
      <point x="261" y="1271"/>
      <point x="195" y="1271" type="curve" smooth="yes"/>
      <point x="140" y="1271"/>
      <point x="119" y="1238"/>
      <point x="119" y="1179" type="curve" smooth="yes"/>
      <point x="119" y="1147" type="line"/>
      <point x="150" y="1147" type="line"/>
      <point x="150" y="1175" type="line"/>
      <point x="150" y="1221"/>
      <point x="161" y="1240"/>
      <point x="195" y="1240" type="curve" smooth="yes"/>
      <point x="247" y="1240"/>
      <point x="296" y="1155"/>
    </contour>
  </outline>
</glyph>
<glyph name="Anuswara.kn" format="2">
  <advance width="592"/>
  <unicode hex="0C82"/>
  <outline>
    <contour>
      <point x="102" y="305" type="line" smooth="yes"/>
      <point x="102" y="139"/>
      <point x="168" y="53"/>
      <point x="296" y="53" type="curve" smooth="yes"/>
      <point x="424" y="53"/>
      <point x="490" y="139"/>
      <point x="490" y="305" type="curve" smooth="yes"/>
      <point x="490" y="798" type="line" smooth="yes"/>
      <point x="490" y="964"/>
      <point x="424" y="1050"/>
      <point x="296" y="1050" type="curve" smooth="yes"/>
      <point x="168" y="1050"/>
      <point x="102" y="964"/>
      <point x="102" y="798" type="curve" smooth="yes"/>
    </contour>
    <contour>
      <point x="296" y="86" type="curve" smooth="yes"/>
      <point x="192" y="86"/>
      <point x="137" y="162"/>
      <point x="137" y="305" type="curve" smooth="yes"/>
      <point x="137" y="798" type="line" smooth="yes"/>
      <point x="137" y="941"/>
      <point x="192" y="1017"/>
      <point x="296" y="1017" type="curve" smooth="yes"/>
      <point x="400" y="1017"/>
      <point x="455" y="941"/>
      <point x="455" y="798" type="curve" smooth="yes"/>
      <point x="455" y="305" type="line" smooth="yes"/>
      <point x="455" y="162"/>
      <point x="400" y="86"/>
    </contour>
  </outline>
  <guideline angle="90" x="292" y="0"/>
  <guideline angle="0" x="0" y="1114"/>
</glyph>
<glyph name="swastisri" format="2">
  <advance width="1049"/>
  <unicode hex="0C84"/>
  <outline>
    <contour>
      <point x="954" y="450" type="line" smooth="yes"/>
      <point x="954" y="161"/>
      <point x="824" y="-16"/>
      <point x="527" y="-16" type="curve" smooth="yes"/>
      <point x="232" y="-16"/>
      <point x="100" y="161"/>
      <point x="100" y="450" type="curve" smooth="yes"/>
      <point x="100" y="680" type="line" smooth="yes"/>
      <point x="100" y="1024"/>
      <point x="250" y="1236"/>
      <point x="587" y="1236" type="curve"/>
      <point x="587" y="1205" type="line"/>
      <point x="269" y="1205"/>
      <point x="134" y="1004.38"/>
      <point x="134" y="680" type="curve" smooth="yes"/>
      <point x="134" y="450" type="line" smooth="yes"/>
      <point x="134" y="180.619"/>
      <point x="250" y="15"/>
      <point x="527" y="15" type="curve" smooth="yes"/>
      <point x="802" y="15"/>
      <point x="920" y="180.619"/>
      <point x="920" y="450" type="curve" smooth="yes"/>
      <point x="920" y="680" type="line" smooth="yes"/>
      <point x="920" y="899.339"/>
      <point x="820" y="1012"/>
      <point x="630" y="1012" type="curve" smooth="yes"/>
      <point x="440" y="1012"/>
      <point x="340" y="899.339"/>
      <point x="340" y="680" type="curve" smooth="yes"/>
      <point x="340" y="458" type="line" smooth="yes"/>
      <point x="340" y="311.623"/>
      <point x="404" y="223"/>
      <point x="536" y="223" type="curve" smooth="yes"/>
      <point x="662" y="223"/>
      <point x="724" y="307.626"/>
      <point x="724" y="449" type="curve" smooth="yes"/>
      <point x="724" y="669" type="line" smooth="yes"/>
      <point x="724" y="759.331"/>
      <point x="692" y="804"/>
      <point x="629" y="804" type="curve" smooth="yes"/>
      <point x="567" y="804"/>
      <point x="535" y="759.331"/>
      <point x="535" y="669" type="curve" smooth="yes"/>
      <point x="535" y="507" type="line" smooth="yes"/>
      <point x="535" y="421.723"/>
      <point x="556" y="389"/>
      <point x="615" y="389" type="curve"/>
      <point x="615" y="361" type="line"/>
      <point x="610" y="361"/>
      <point x="604" y="360"/>
      <point x="596" y="360" type="curve" smooth="yes"/>
      <point x="528" y="360"/>
      <point x="501" y="407"/>
      <point x="501" y="506" type="curve" smooth="yes"/>
      <point x="501" y="668" type="line" smooth="yes"/>
      <point x="501" y="776"/>
      <point x="545" y="835"/>
      <point x="629" y="835" type="curve" smooth="yes"/>
      <point x="713" y="835"/>
      <point x="758" y="776"/>
      <point x="758" y="668" type="curve" smooth="yes"/>
      <point x="758" y="449" type="line" smooth="yes"/>
      <point x="758" y="289"/>
      <point x="684" y="192"/>
      <point x="536" y="192" type="curve" smooth="yes"/>
      <point x="382" y="192"/>
      <point x="306" y="293"/>
      <point x="306" y="458" type="curve" smooth="yes"/>
      <point x="306" y="680" type="line" smooth="yes"/>
      <point x="306" y="911"/>
      <point x="423" y="1043"/>
      <point x="630" y="1043" type="curve" smooth="yes"/>
      <point x="837" y="1043"/>
      <point x="954" y="911"/>
      <point x="954" y="680" type="curve" smooth="yes"/>
    </contour>
  </outline>
</glyph>
<glyph name="vowelU.kn" format="2">
  <advance width="1419"/>
  <unicode hex="0C89"/>
  <outline>
    <contour>
      <point x="274" y="1196" type="curve" smooth="yes"/>
      <point x="384" y="1196"/>
      <point x="436" y="1125"/>
      <point x="436" y="977" type="curve" smooth="yes"/>
      <point x="436" y="697" type="line" smooth="yes"/>
      <point x="436" y="558.307"/>
      <point x="387.678" y="497"/>
      <point x="286" y="497" type="curve" smooth="yes"/>
      <point x="206.423" y="497"/>
      <point x="165.124" y="540"/>
      <point x="148" y="591" type="curve"/>
      <point x="141" y="591" type="line"/>
      <point x="141" y="680" type="line"/>
      <point x="157.338" y="583.873"/>
      <point x="199.233" y="530"/>
      <point x="286" y="530" type="curve" smooth="yes"/>
      <point x="354.596" y="530"/>
      <point x="401" y="567.223"/>
      <point x="401" y="697" type="curve" smooth="yes"/>
      <point x="401" y="974" type="line" smooth="yes"/>
      <point x="401" y="1102"/>
      <point x="361" y="1163"/>
      <point x="274" y="1163" type="curve" smooth="yes"/>
      <point x="187" y="1163"/>
      <point x="147" y="1102"/>
      <point x="147" y="974" type="curve" smooth="yes"/>
      <point x="147" y="617.308" type="line"/>
      <point x="112" y="617.118" type="line"/>
      <point x="112" y="977" type="line" smooth="yes"/>
      <point x="112" y="1125"/>
      <point x="164" y="1196"/>
    </contour>
    <contour>
      <point x="147" y="302" type="line" smooth="yes"/>
      <point x="147" y="115.319"/>
      <point x="224.319" y="19"/>
      <point x="374" y="19" type="curve" smooth="yes"/>
      <point x="525.67" y="19"/>
      <point x="602" y="115.319"/>
      <point x="602" y="302" type="curve" smooth="yes"/>
      <point x="602" y="983" type="line" smooth="yes"/>
      <point x="602" y="1128"/>
      <point x="659" y="1196"/>
      <point x="774" y="1196" type="curve" smooth="yes"/>
      <point x="888" y="1196"/>
      <point x="946" y="1128"/>
      <point x="946" y="983" type="curve" smooth="yes"/>
      <point x="946" y="587" type="line"/>
      <point x="911" y="587" type="line"/>
      <point x="911" y="982" type="line" smooth="yes"/>
      <point x="911" y="1104"/>
      <point x="866" y="1163"/>
      <point x="774" y="1163" type="curve" smooth="yes"/>
      <point x="681" y="1163"/>
      <point x="637" y="1104"/>
      <point x="637" y="982" type="curve" smooth="yes"/>
      <point x="637" y="303" type="line" smooth="yes"/>
      <point x="637" y="93.3229"/>
      <point x="548.672" y="-14"/>
      <point x="374" y="-14" type="curve" smooth="yes"/>
      <point x="201.318" y="-14"/>
      <point x="112" y="93.3229"/>
      <point x="112" y="303" type="curve" smooth="yes"/>
      <point x="112" y="627.118" type="line"/>
      <point x="147" y="627.308" type="line"/>
    </contour>
    <contour>
      <point x="1307" y="228" type="line" smooth="yes"/>
      <point x="1307" y="68.6833"/>
      <point x="1240.33" y="-14"/>
      <point x="1109" y="-14" type="curve" smooth="yes"/>
      <point x="977.673" y="-14"/>
      <point x="911" y="68.6833"/>
      <point x="911" y="228" type="curve" smooth="yes"/>
      <point x="911" y="638" type="line"/>
      <point x="946" y="638" type="line"/>
      <point x="946" y="228" type="line" smooth="yes"/>
      <point x="946" y="91.6956"/>
      <point x="1001.68" y="19"/>
      <point x="1109" y="19" type="curve" smooth="yes"/>
      <point x="1216.32" y="19"/>
      <point x="1272" y="91.6956"/>
      <point x="1272" y="228" type="curve" smooth="yes"/>
      <point x="1272" y="942" type="line" smooth="yes"/>
      <point x="1272" y="1085"/>
      <point x="1224" y="1155"/>
      <point x="1121" y="1155" type="curve" smooth="yes"/>
      <point x="1118" y="1155"/>
      <point x="1113" y="1155"/>
      <point x="1110" y="1155" type="curve"/>
      <point x="1110" y="1188" type="line"/>
      <point x="1114" y="1188"/>
      <point x="1119" y="1188"/>
      <point x="1123" y="1188" type="curve" smooth="yes"/>
      <point x="1248" y="1188"/>
      <point x="1307" y="1108"/>
      <point x="1307" y="943" type="curve" smooth="yes"/>
    </contour>
  </outline>
</glyph>
<glyph name="vowelLru.kn" format="2">
  <advance width="853"/>
  <unicode hex="0C8C"/>
  <outline>
    <contour>
      <point x="234" y="0" type="line"/>
      <point x="169" y="84"/>
      <point x="135" y="196"/>
      <point x="135" y="356" type="curve" smooth="yes"/>
      <point x="135" y="609" type="line" smooth="yes"/>
      <point x="135" y="727"/>
      <point x="181" y="788"/>
      <point x="272" y="788" type="curve" smooth="yes"/>
      <point x="363" y="788"/>
      <point x="409" y="727"/>
      <point x="409" y="609" type="curve" smooth="yes"/>
      <point x="410" y="2" type="line"/>
      <point x="443" y="2" type="line"/>
      <point x="444" y="609" type="line" smooth="yes"/>
      <point x="444" y="727"/>
      <point x="490" y="788"/>
      <point x="581" y="788" type="curve" smooth="yes"/>
      <point x="672" y="788"/>
      <point x="718" y="727"/>
      <point x="718" y="609" type="curve" smooth="yes"/>
      <point x="718" y="356" type="line" smooth="yes"/>
      <point x="718" y="196"/>
      <point x="684" y="84"/>
      <point x="619" y="0" type="curve"/>
      <point x="660" y="0" type="line"/>
      <point x="721" y="88"/>
      <point x="753" y="199"/>
      <point x="753" y="357" type="curve" smooth="yes"/>
      <point x="753" y="609" type="line" smooth="yes"/>
      <point x="753" y="750"/>
      <point x="693" y="821"/>
      <point x="583" y="821" type="curve" smooth="yes"/>
      <point x="509" y="821"/>
      <point x="462" y="789"/>
      <point x="442" y="728" type="curve"/>
      <point x="441" y="728" type="line"/>
      <point x="443" y="772"/>
      <point x="444" y="816"/>
      <point x="444" y="873" type="curve" smooth="yes"/>
      <point x="444" y="1178" type="line"/>
      <point x="409" y="1178" type="line"/>
      <point x="409" y="873" type="line" smooth="yes"/>
      <point x="409" y="816"/>
      <point x="410" y="772"/>
      <point x="412" y="728" type="curve"/>
      <point x="411" y="728" type="line"/>
      <point x="391" y="789"/>
      <point x="344" y="821"/>
      <point x="270" y="821" type="curve" smooth="yes"/>
      <point x="160" y="821"/>
      <point x="100" y="750"/>
      <point x="100" y="609" type="curve" smooth="yes"/>
      <point x="100" y="357" type="line" smooth="yes"/>
      <point x="100" y="199"/>
      <point x="132" y="88"/>
      <point x="193" y="0" type="curve"/>
    </contour>
  </outline>
  <guideline angle="90" x="1352" y="0"/>
</glyph>
<glyph name="vowelOo.kn" format="2">
  <advance width="834"/>
  <unicode hex="0C93"/>
  <outline>
    <component base="vowelO.kn"/>
    <contour>
      <point x="334" y="1601" type="curve" smooth="yes"/>
      <point x="229" y="1601"/>
      <point x="174" y="1535"/>
      <point x="174" y="1409" type="curve" smooth="yes"/>
      <point x="174" y="1373" type="line" smooth="yes"/>
      <point x="174" y="1292"/>
      <point x="191" y="1217"/>
      <point x="276" y="1173" type="curve"/>
      <point x="300" y="1191" type="line"/>
      <point x="228" y="1225"/>
      <point x="209" y="1294"/>
      <point x="209" y="1374" type="curve" smooth="yes"/>
      <point x="209" y="1409" type="line" smooth="yes"/>
      <point x="209" y="1513"/>
      <point x="252" y="1568"/>
      <point x="334" y="1568" type="curve" smooth="yes"/>
      <point x="417" y="1568"/>
      <point x="459" y="1513"/>
      <point x="459" y="1409" type="curve" smooth="yes"/>
      <point x="459" y="1396" type="line" smooth="yes"/>
      <point x="459" y="1347"/>
      <point x="454" y="1307"/>
      <point x="445" y="1280" type="curve"/>
      <point x="481" y="1280" type="line"/>
      <point x="489" y="1306"/>
      <point x="494" y="1350"/>
      <point x="494" y="1396" type="curve" smooth="yes"/>
      <point x="494" y="1409" type="line" smooth="yes"/>
      <point x="494" y="1535"/>
      <point x="440" y="1601"/>
    </contour>
  </outline>
  <guideline angle="90" x="870" y="0"/>
</glyph>
<glyph name="Kha.kn" format="2">
  <advance width="912"/>
  <unicode hex="0C96"/>
  <outline>
    <contour>
      <point x="285" y="-14" type="curve" smooth="yes"/>
      <point x="408" y="-14"/>
      <point x="470" y="75"/>
      <point x="470" y="251" type="curve"/>
      <point x="453" y="244" type="line"/>
      <point x="480" y="247" type="line"/>
      <point x="480" y="275"/>
      <point x="480" y="314"/>
      <point x="480" y="347" type="curve" smooth="yes"/>
      <point x="480" y="962" type="line" smooth="yes"/>
      <point x="480" y="1117"/>
      <point x="418" y="1196"/>
      <point x="290" y="1196" type="curve" smooth="yes"/>
      <point x="165" y="1196"/>
      <point x="103" y="1117"/>
      <point x="103" y="963" type="curve" smooth="yes"/>
      <point x="103" y="910" type="line" smooth="yes"/>
      <point x="103" y="801"/>
      <point x="118" y="734"/>
      <point x="143" y="680" type="curve"/>
      <point x="180" y="680" type="line"/>
      <point x="154" y="733"/>
      <point x="138" y="801"/>
      <point x="138" y="912" type="curve" smooth="yes"/>
      <point x="138" y="963" type="line" smooth="yes"/>
      <point x="138" y="1094"/>
      <point x="187" y="1163"/>
      <point x="290" y="1163" type="curve" smooth="yes"/>
      <point x="396" y="1163"/>
      <point x="445" y="1094"/>
      <point x="445" y="962" type="curve" smooth="yes"/>
      <point x="445" y="345" type="line"/>
      <point x="445" y="344.696"/>
      <point x="445" y="343.412"/>
      <point x="445" y="343" type="curve"/>
      <point x="445" y="336.279"/>
      <point x="445" y="258.752"/>
      <point x="445" y="254" type="curve" smooth="yes"/>
      <point x="445" y="98"/>
      <point x="393" y="19"/>
      <point x="283" y="19" type="curve" smooth="yes"/>
      <point x="178" y="19"/>
      <point x="127" y="85"/>
      <point x="127" y="213" type="curve" smooth="yes"/>
      <point x="127" y="308" type="line" smooth="yes"/>
      <point x="127" y="445"/>
      <point x="175" y="509"/>
      <point x="275" y="509" type="curve" smooth="yes"/>
      <point x="367" y="509"/>
      <point x="425" y="443"/>
      <point x="447" y="319" type="curve"/>
      <point x="452" y="336" type="line"/>
      <point x="450" y="454"/>
      <point x="387" y="542"/>
      <point x="274" y="542" type="curve" smooth="yes"/>
      <point x="152" y="542"/>
      <point x="92" y="465"/>
      <point x="92" y="308" type="curve" smooth="yes"/>
      <point x="92" y="213" type="line" smooth="yes"/>
      <point x="92" y="64"/>
      <point x="156" y="-14"/>
    </contour>
    <contour>
      <point x="632" y="-14" type="curve" smooth="yes"/>
      <point x="741" y="-14"/>
      <point x="800" y="65"/>
      <point x="800" y="215" type="curve" smooth="yes"/>
      <point x="800" y="943" type="line" smooth="yes"/>
      <point x="800" y="1108"/>
      <point x="741" y="1188"/>
      <point x="616" y="1188" type="curve" smooth="yes"/>
      <point x="612" y="1188"/>
      <point x="607" y="1188"/>
      <point x="603" y="1188" type="curve"/>
      <point x="603" y="1155" type="line"/>
      <point x="606" y="1155"/>
      <point x="611" y="1155"/>
      <point x="614" y="1155" type="curve" smooth="yes"/>
      <point x="717" y="1155"/>
      <point x="765" y="1085"/>
      <point x="765" y="942" type="curve" smooth="yes"/>
      <point x="765" y="218" type="line" smooth="yes"/>
      <point x="765" y="84"/>
      <point x="719" y="19"/>
      <point x="632" y="19" type="curve" smooth="yes"/>
      <point x="529" y="19"/>
      <point x="480" y="91"/>
      <point x="480" y="241" type="curve" smooth="yes"/>
      <point x="480" y="346" type="line"/>
      <point x="459" y="346" type="line"/>
      <point x="459" y="227" type="line" smooth="yes"/>
      <point x="459" y="64"/>
      <point x="516" y="-14"/>
    </contour>
  </outline>
  <guideline angle="90" x="286" y="0"/>
  <guideline angle="90" x="274" y="0"/>
  <guideline angle="0" x="0" y="-14"/>
  <guideline angle="0" x="0" y="484"/>
  <guideline angle="90" x="-1496" y="0"/>
</glyph>
<glyph name="Ga.kn" format="2">
  <advance width="726"/>
  <unicode hex="0C97"/>
  <outline>
    <contour>
      <point x="249" y="1168" type="line"/>
      <point x="249" y="1143.72" type="line"/>
      <point x="165.961" y="1109.99"/>
      <point x="122" y="1020.61"/>
      <point x="122" y="870" type="curve" smooth="yes"/>
      <point x="122" y="0" type="line"/>
      <point x="157" y="0" type="line"/>
      <point x="157" y="870" type="line" smooth="yes"/>
      <point x="157" y="1053"/>
      <point x="227" y="1146"/>
      <point x="363" y="1146" type="curve" smooth="yes"/>
      <point x="498" y="1146"/>
      <point x="569" y="1053"/>
      <point x="569" y="870" type="curve" smooth="yes"/>
      <point x="569" y="0" type="line"/>
      <point x="604" y="0" type="line"/>
      <point x="604" y="870" type="line" smooth="yes"/>
      <point x="604" y="1020.63"/>
      <point x="559.241" y="1110.01"/>
      <point x="476" y="1143.73" type="curve"/>
      <point x="476" y="1168" type="line"/>
    </contour>
    <contour>
      <point x="102" y="1178" type="line"/>
      <point x="102" y="1146" type="line"/>
      <point x="476" y="1146" type="line"/>
      <point x="476" y="1178" type="line"/>
    </contour>
    <contour>
      <point x="553" y="1511" type="line"/>
      <point x="584" y="1442"/>
      <point x="603" y="1367"/>
      <point x="603" y="1296" type="curve" smooth="yes"/>
      <point x="603" y="1214"/>
      <point x="570" y="1178"/>
      <point x="492" y="1178" type="curve" smooth="yes"/>
      <point x="430" y="1178" type="line"/>
      <point x="430" y="1146" type="line"/>
      <point x="494" y="1146" type="line" smooth="yes"/>
      <point x="593" y="1146"/>
      <point x="638" y="1193"/>
      <point x="638" y="1296" type="curve" smooth="yes"/>
      <point x="638" y="1372"/>
      <point x="617" y="1446"/>
      <point x="588" y="1511" type="curve"/>
    </contour>
  </outline>
  <guideline angle="90" x="848" y="0"/>
  <guideline angle="90" x="363" y="0"/>
</glyph>
<glyph name="Nga.kn" format="2">
  <advance width="835"/>
  <unicode hex="0C99"/>
  <outline>
    <contour>
      <point x="566" y="1196" type="curve" smooth="yes"/>
      <point x="458" y="1196"/>
      <point x="404" y="1127"/>
      <point x="404" y="992" type="curve"/>
      <point x="429" y="987" type="line"/>
      <point x="429" y="1103"/>
      <point x="474" y="1163"/>
      <point x="566" y="1163" type="curve" smooth="yes"/>
      <point x="654" y="1163"/>
      <point x="700" y="1103"/>
      <point x="700" y="987" type="curve" smooth="yes"/>
      <point x="700" y="924" type="line" smooth="yes"/>
      <point x="700" y="852"/>
      <point x="694" y="792"/>
      <point x="684" y="753" type="curve"/>
      <point x="720" y="753" type="line"/>
      <point x="730" y="791"/>
      <point x="735" y="856"/>
      <point x="735" y="922" type="curve" smooth="yes"/>
      <point x="735" y="987" type="line" smooth="yes"/>
      <point x="735" y="1125"/>
      <point x="677" y="1196"/>
    </contour>
    <contour>
      <point x="537" y="491" type="curve" smooth="yes"/>
      <point x="553" y="491"/>
      <point x="557" y="509"/>
      <point x="557" y="567" type="curve" smooth="yes"/>
      <point x="557" y="714" type="line" smooth="yes"/>
      <point x="557" y="772"/>
      <point x="553" y="790"/>
      <point x="537" y="790" type="curve" smooth="yes"/>
      <point x="521" y="790"/>
      <point x="517" y="772"/>
      <point x="517" y="714" type="curve" smooth="yes"/>
      <point x="517" y="567" type="line" smooth="yes"/>
      <point x="517" y="509"/>
      <point x="521" y="491"/>
    </contour>
    <contour>
      <point x="713" y="253" type="curve" smooth="yes"/>
      <point x="713" y="216" type="line" smooth="yes"/>
      <point x="713" y="83"/>
      <point x="668" y="19"/>
      <point x="575" y="19" type="curve" smooth="yes"/>
      <point x="483" y="19"/>
      <point x="440" y="81"/>
      <point x="439" y="217" type="curve" smooth="yes"/>
      <point x="437" y="411" type="line"/>
      <point x="418" y="411" type="line"/>
      <point x="422" y="145" type="line"/>
      <point x="428" y="40"/>
      <point x="484" y="-14"/>
      <point x="576" y="-14" type="curve" smooth="yes"/>
      <point x="690" y="-14"/>
      <point x="748" y="57"/>
      <point x="748" y="215" type="curve" smooth="yes"/>
      <point x="748" y="252" type="line" smooth="yes"/>
      <point x="748" y="321"/>
      <point x="740" y="386"/>
      <point x="722" y="443" type="curve"/>
      <point x="687" y="443" type="line"/>
      <point x="705" y="386"/>
      <point x="713" y="321"/>
    </contour>
    <contour>
      <point x="266" y="1196" type="curve" smooth="yes"/>
      <point x="158" y="1196"/>
      <point x="103" y="1129"/>
      <point x="103" y="999" type="curve" smooth="yes"/>
      <point x="103" y="912" type="line" smooth="yes"/>
      <point x="103" y="829"/>
      <point x="120" y="748"/>
      <point x="143" y="701" type="curve"/>
      <point x="180" y="701" type="line"/>
      <point x="154" y="750"/>
      <point x="138" y="824"/>
      <point x="138" y="914" type="curve" smooth="yes"/>
      <point x="138" y="999" type="line" smooth="yes"/>
      <point x="138" y="1107"/>
      <point x="181" y="1163"/>
      <point x="266" y="1163" type="curve" smooth="yes"/>
      <point x="350" y="1163"/>
      <point x="394" y="1107"/>
      <point x="394" y="999" type="curve" smooth="yes"/>
      <point x="394" y="925" type="line" smooth="yes"/>
      <point x="394" y="797"/>
      <point x="354" y="725"/>
      <point x="280" y="641" type="curve" smooth="yes"/>
      <point x="211" y="562" type="line" smooth="yes"/>
      <point x="126" y="465"/>
      <point x="82" y="392"/>
      <point x="82" y="254" type="curve" smooth="yes"/>
      <point x="82" y="217" type="line" smooth="yes"/>
      <point x="82" y="58"/>
      <point x="141" y="-14"/>
      <point x="260" y="-14" type="curve" smooth="yes"/>
      <point x="355" y="-14"/>
      <point x="413" y="39"/>
      <point x="420" y="142" type="curve"/>
      <point x="424" y="142" type="line"/>
      <point x="424" y="411" type="line"/>
      <point x="405" y="411" type="line"/>
      <point x="403" y="217" type="line" smooth="yes"/>
      <point x="402" y="81"/>
      <point x="357" y="19"/>
      <point x="261" y="19" type="curve" smooth="yes"/>
      <point x="165" y="19"/>
      <point x="117" y="81"/>
      <point x="117" y="218" type="curve" smooth="yes"/>
      <point x="117" y="254" type="line" smooth="yes"/>
      <point x="117" y="378"/>
      <point x="156" y="448"/>
      <point x="237" y="540" type="curve" smooth="yes"/>
      <point x="305" y="618" type="line" smooth="yes"/>
      <point x="383" y="708"/>
      <point x="429" y="787"/>
      <point x="429" y="924" type="curve" smooth="yes"/>
      <point x="429" y="999" type="line" smooth="yes"/>
      <point x="429" y="1129"/>
      <point x="373" y="1196"/>
    </contour>
  </outline>
  <guideline angle="90" x="1184" y="0"/>
</glyph>
<glyph name="Tta.kn" format="2">
  <advance width="868"/>
  <unicode hex="0C9F"/>
  <outline>
    <contour>
      <point x="277" y="1196" type="curve" smooth="yes"/>
      <point x="156" y="1196"/>
      <point x="104" y="1134"/>
      <point x="104" y="973" type="curve" smooth="yes"/>
      <point x="104" y="849" type="line" smooth="yes"/>
      <point x="104" y="723"/>
      <point x="137" y="650"/>
      <point x="237" y="634" type="curve"/>
      <point x="237" y="632" type="line"/>
      <point x="137" y="617"/>
      <point x="102" y="543"/>
      <point x="102" y="416" type="curve" smooth="yes"/>
      <point x="102" y="220" type="line" smooth="yes"/>
      <point x="102" y="60"/>
      <point x="160" y="-14"/>
      <point x="275" y="-14" type="curve" smooth="yes"/>
      <point x="368" y="-14"/>
      <point x="423" y="38"/>
      <point x="433" y="137" type="curve"/>
      <point x="447" y="137" type="line"/>
      <point x="446" y="425" type="line"/>
      <point x="418" y="425" type="line"/>
      <point x="416" y="222" type="line" smooth="yes"/>
      <point x="415" y="83"/>
      <point x="370" y="19"/>
      <point x="275" y="19" type="curve" smooth="yes"/>
      <point x="184" y="19"/>
      <point x="137" y="83"/>
      <point x="137" y="221" type="curve" smooth="yes"/>
      <point x="137" y="416" type="line" smooth="yes"/>
      <point x="137" y="554"/>
      <point x="177" y="613"/>
      <point x="291" y="616" type="curve" smooth="yes"/>
      <point x="326" y="617" type="line"/>
      <point x="326" y="648" type="line"/>
      <point x="291" y="649" type="line" smooth="yes"/>
      <point x="178" y="652"/>
      <point x="139" y="711"/>
      <point x="139" y="849" type="curve" smooth="yes"/>
      <point x="139" y="972" type="line" smooth="yes"/>
      <point x="139" y="1111"/>
      <point x="181" y="1163"/>
      <point x="277" y="1163" type="curve" smooth="yes"/>
      <point x="306" y="1163"/>
      <point x="334" y="1158"/>
      <point x="356" y="1149" type="curve"/>
      <point x="351" y="1183" type="line"/>
      <point x="333" y="1190"/>
      <point x="304" y="1196"/>
    </contour>
    <contour>
      <point x="591" y="1196" type="curve" smooth="yes"/>
      <point x="564" y="1196"/>
      <point x="535" y="1190"/>
      <point x="517" y="1183" type="curve"/>
      <point x="512" y="1149" type="line"/>
      <point x="534" y="1158"/>
      <point x="562" y="1163"/>
      <point x="591" y="1163" type="curve" smooth="yes"/>
      <point x="687" y="1163"/>
      <point x="729" y="1111"/>
      <point x="729" y="972" type="curve" smooth="yes"/>
      <point x="729" y="849" type="line" smooth="yes"/>
      <point x="729" y="711"/>
      <point x="690" y="652"/>
      <point x="577" y="649" type="curve" smooth="yes"/>
      <point x="542" y="648" type="line"/>
      <point x="542" y="617" type="line"/>
      <point x="577" y="616" type="line" smooth="yes"/>
      <point x="691" y="613"/>
      <point x="731" y="554"/>
      <point x="731" y="416" type="curve" smooth="yes"/>
      <point x="731" y="221" type="line" smooth="yes"/>
      <point x="731" y="83"/>
      <point x="684" y="19"/>
      <point x="593" y="19" type="curve" smooth="yes"/>
      <point x="498" y="19"/>
      <point x="453" y="83"/>
      <point x="452" y="222" type="curve" smooth="yes"/>
      <point x="450" y="425" type="line"/>
      <point x="439" y="425" type="line"/>
      <point x="435" y="137" type="line"/>
      <point x="445" y="38"/>
      <point x="500" y="-14"/>
      <point x="593" y="-14" type="curve" smooth="yes"/>
      <point x="708" y="-14"/>
      <point x="766" y="60"/>
      <point x="766" y="220" type="curve" smooth="yes"/>
      <point x="766" y="416" type="line" smooth="yes"/>
      <point x="766" y="543"/>
      <point x="731" y="617"/>
      <point x="631" y="632" type="curve"/>
      <point x="631" y="634" type="line"/>
      <point x="731" y="650"/>
      <point x="764" y="723"/>
      <point x="764" y="849" type="curve" smooth="yes"/>
      <point x="764" y="973" type="line" smooth="yes"/>
      <point x="764" y="1134"/>
      <point x="712" y="1196"/>
    </contour>
  </outline>
  <guideline angle="90" x="640" y="0"/>
</glyph>
<glyph name="Ttha.kn" format="2">
  <advance width="716"/>
  <unicode hex="0CA0"/>
  <outline>
    <contour>
      <point x="244" y="1162" type="line"/>
      <point x="244" y="1144" type="line"/>
      <point x="158" y="1110"/>
      <point x="112" y="1019"/>
      <point x="112" y="865" type="curve" smooth="yes"/>
      <point x="112" y="298" type="line" smooth="yes"/>
      <point x="112" y="89"/>
      <point x="195" y="-16"/>
      <point x="358" y="-16" type="curve" smooth="yes"/>
      <point x="521" y="-16"/>
      <point x="604" y="89"/>
      <point x="604" y="298" type="curve" smooth="yes"/>
      <point x="604" y="865" type="line" smooth="yes"/>
      <point x="604" y="1019"/>
      <point x="557" y="1110"/>
      <point x="471" y="1144" type="curve"/>
      <point x="471" y="1162" type="line"/>
    </contour>
    <contour>
      <point x="112" y="1178" type="line"/>
      <point x="112" y="1146" type="line"/>
      <point x="471" y="1146" type="line"/>
      <point x="471" y="1178" type="line"/>
    </contour>
    <contour>
      <point x="358" y="740" type="curve" smooth="yes"/>
      <point x="342" y="740"/>
      <point x="338" y="722"/>
      <point x="338" y="664" type="curve" smooth="yes"/>
      <point x="338" y="517" type="line" smooth="yes"/>
      <point x="338" y="459"/>
      <point x="342" y="441"/>
      <point x="358" y="441" type="curve" smooth="yes"/>
      <point x="374" y="441"/>
      <point x="378" y="459"/>
      <point x="378" y="517" type="curve" smooth="yes"/>
      <point x="378" y="664" type="line" smooth="yes"/>
      <point x="378" y="722"/>
      <point x="374" y="740"/>
    </contour>
    <contour>
      <point x="569" y="865" type="curve" smooth="yes"/>
      <point x="569" y="298" type="line" smooth="yes"/>
      <point x="569" y="112"/>
      <point x="497" y="17"/>
      <point x="358" y="17" type="curve" smooth="yes"/>
      <point x="219" y="17"/>
      <point x="147" y="112"/>
      <point x="147" y="298" type="curve" smooth="yes"/>
      <point x="147" y="865" type="line" smooth="yes"/>
      <point x="147" y="1051"/>
      <point x="219" y="1146"/>
      <point x="358" y="1146" type="curve" smooth="yes"/>
      <point x="497" y="1146"/>
      <point x="569" y="1051"/>
    </contour>
    <contour>
      <point x="524" y="1511" type="line"/>
      <point x="555" y="1442"/>
      <point x="574" y="1367"/>
      <point x="574" y="1296" type="curve" smooth="yes"/>
      <point x="574" y="1214"/>
      <point x="541" y="1178"/>
      <point x="463" y="1178" type="curve" smooth="yes"/>
      <point x="401" y="1178" type="line"/>
      <point x="401" y="1146" type="line"/>
      <point x="465" y="1146" type="line" smooth="yes"/>
      <point x="564" y="1146"/>
      <point x="609" y="1193"/>
      <point x="609" y="1296" type="curve" smooth="yes"/>
      <point x="609" y="1372"/>
      <point x="588" y="1446"/>
      <point x="559" y="1511" type="curve"/>
    </contour>
  </outline>
  <guideline angle="0" x="0" y="564"/>
  <guideline angle="90" x="994" y="0"/>
  <guideline angle="90" x="530" y="0"/>
  <guideline angle="90" x="1622" y="0"/>
  <guideline angle="90" x="1304" y="0"/>
</glyph>
<glyph name="Nna.kn" format="2">
  <advance width="886"/>
  <unicode hex="0CA3"/>
  <outline>
    <contour>
      <point x="774" y="522.702" type="line"/>
      <point x="774" y="960" type="line" smooth="yes"/>
      <point x="774" y="1122"/>
      <point x="716" y="1196"/>
      <point x="598" y="1196" type="curve" smooth="yes"/>
      <point x="505" y="1196"/>
      <point x="450" y="1144"/>
      <point x="440" y="1045" type="curve"/>
      <point x="438" y="1045" type="line"/>
      <point x="428" y="1144"/>
      <point x="372" y="1196"/>
      <point x="278" y="1196" type="curve" smooth="yes"/>
      <point x="162" y="1196"/>
      <point x="102" y="1122"/>
      <point x="102" y="962" type="curve" smooth="yes"/>
      <point x="102" y="790" type="line" smooth="yes"/>
      <point x="102" y="663"/>
      <point x="137" y="589"/>
      <point x="237" y="574" type="curve"/>
      <point x="237" y="572" type="line"/>
      <point x="135" y="556"/>
      <point x="102" y="483"/>
      <point x="102" y="357" type="curve" smooth="yes"/>
      <point x="102" y="209" type="line" smooth="yes"/>
      <point x="102" y="48"/>
      <point x="154" y="-14"/>
      <point x="275" y="-14" type="curve" smooth="yes"/>
      <point x="302" y="-14"/>
      <point x="331" y="-8"/>
      <point x="349" y="-1" type="curve"/>
      <point x="354" y="33" type="line"/>
      <point x="332" y="24"/>
      <point x="304" y="19"/>
      <point x="275" y="19" type="curve" smooth="yes"/>
      <point x="179" y="19"/>
      <point x="137" y="71"/>
      <point x="137" y="210" type="curve" smooth="yes"/>
      <point x="137" y="357" type="line" smooth="yes"/>
      <point x="137" y="495"/>
      <point x="177" y="554"/>
      <point x="291" y="557" type="curve" smooth="yes"/>
      <point x="326" y="558" type="line"/>
      <point x="326" y="589" type="line"/>
      <point x="291" y="590" type="line" smooth="yes"/>
      <point x="177" y="593"/>
      <point x="137" y="652"/>
      <point x="137" y="790" type="curve" smooth="yes"/>
      <point x="137" y="961" type="line" smooth="yes"/>
      <point x="137" y="1099"/>
      <point x="186" y="1163"/>
      <point x="278" y="1163" type="curve" smooth="yes"/>
      <point x="374" y="1163"/>
      <point x="420" y="1099"/>
      <point x="421" y="960" type="curve" smooth="yes"/>
      <point x="423" y="753" type="line"/>
      <point x="455" y="753" type="line"/>
      <point x="457" y="960" type="line" smooth="yes"/>
      <point x="458" y="1099"/>
      <point x="503" y="1163"/>
      <point x="598" y="1163" type="curve" smooth="yes"/>
      <point x="692" y="1163"/>
      <point x="739" y="1099"/>
      <point x="739" y="959" type="curve" smooth="yes"/>
      <point x="739" y="527.337" type="line"/>
    </contour>
    <contour>
      <point x="739" y="530.337" type="line"/>
      <point x="739" y="208" type="line" smooth="yes"/>
      <point x="739" y="80"/>
      <point x="698" y="19"/>
      <point x="612" y="19" type="curve" smooth="yes"/>
      <point x="526" y="19"/>
      <point x="485" y="80"/>
      <point x="485" y="208" type="curve" smooth="yes"/>
      <point x="485" y="453" type="line" smooth="yes"/>
      <point x="485" y="585"/>
      <point x="534" y="622"/>
      <point x="605" y="622" type="curve" smooth="yes"/>
      <point x="685.584" y="622"/>
      <point x="727.891" y="568.545"/>
      <point x="743" y="475" type="curve"/>
      <point x="742" y="560" type="line"/>
      <point x="738" y="560" type="line"/>
      <point x="722" y="611"/>
      <point x="681" y="655"/>
      <point x="605" y="655" type="curve" smooth="yes"/>
      <point x="501" y="655"/>
      <point x="450" y="593"/>
      <point x="450" y="453" type="curve" smooth="yes"/>
      <point x="450" y="205" type="line" smooth="yes"/>
      <point x="450" y="57"/>
      <point x="503" y="-14"/>
      <point x="612" y="-14" type="curve" smooth="yes"/>
      <point x="721" y="-14"/>
      <point x="774" y="57"/>
      <point x="774" y="205" type="curve" smooth="yes"/>
      <point x="774" y="525.702" type="line"/>
    </contour>
  </outline>
  <guideline angle="90" x="676" y="0"/>
</glyph>
<glyph name="Ba.kn" format="2">
  <advance width="860"/>
  <unicode hex="0CAC"/>
  <outline>
    <contour>
      <point x="564" y="1188" type="curve" smooth="yes"/>
      <point x="560" y="1188"/>
      <point x="555" y="1188"/>
      <point x="551" y="1188" type="curve"/>
      <point x="551" y="1155" type="line"/>
      <point x="554" y="1155"/>
      <point x="559" y="1155"/>
      <point x="562" y="1155" type="curve" smooth="yes"/>
      <point x="665" y="1155"/>
      <point x="713" y="1085"/>
      <point x="713" y="942" type="curve" smooth="yes"/>
      <point x="713" y="216" type="line" smooth="yes"/>
      <point x="713" y="83"/>
      <point x="668" y="19"/>
      <point x="575" y="19" type="curve" smooth="yes"/>
      <point x="483" y="19"/>
      <point x="440" y="81"/>
      <point x="439" y="217" type="curve" smooth="yes"/>
      <point x="437" y="411" type="line"/>
      <point x="418" y="411" type="line"/>
      <point x="422" y="142" type="line"/>
      <point x="429" y="39"/>
      <point x="485" y="-14"/>
      <point x="576" y="-14" type="curve" smooth="yes"/>
      <point x="690" y="-14"/>
      <point x="748" y="57"/>
      <point x="748" y="215" type="curve" smooth="yes"/>
      <point x="748" y="943" type="line" smooth="yes"/>
      <point x="748" y="1108"/>
      <point x="689" y="1188"/>
    </contour>
    <contour>
      <point x="266" y="1196" type="curve" smooth="yes"/>
      <point x="158" y="1196"/>
      <point x="103" y="1129"/>
      <point x="103" y="999" type="curve" smooth="yes"/>
      <point x="103" y="912" type="line" smooth="yes"/>
      <point x="103" y="829"/>
      <point x="120" y="748"/>
      <point x="143" y="701" type="curve"/>
      <point x="180" y="701" type="line"/>
      <point x="154" y="750"/>
      <point x="138" y="824"/>
      <point x="138" y="914" type="curve" smooth="yes"/>
      <point x="138" y="999" type="line" smooth="yes"/>
      <point x="138" y="1107"/>
      <point x="181" y="1163"/>
      <point x="266" y="1163" type="curve" smooth="yes"/>
      <point x="350" y="1163"/>
      <point x="394" y="1107"/>
      <point x="394" y="999" type="curve" smooth="yes"/>
      <point x="394" y="925" type="line" smooth="yes"/>
      <point x="394" y="810.825"/>
      <point x="363.787" y="736.93"/>
      <point x="280" y="641" type="curve" smooth="yes"/>
      <point x="211" y="562" type="line" smooth="yes"/>
      <point x="126" y="465"/>
      <point x="82" y="392"/>
      <point x="82" y="254" type="curve" smooth="yes"/>
      <point x="82" y="217" type="line" smooth="yes"/>
      <point x="82" y="58"/>
      <point x="141" y="-14"/>
      <point x="260" y="-14" type="curve" smooth="yes"/>
      <point x="355" y="-14"/>
      <point x="413" y="39"/>
      <point x="420" y="142" type="curve"/>
      <point x="424" y="142" type="line"/>
      <point x="424" y="411" type="line"/>
      <point x="405" y="411" type="line"/>
      <point x="403" y="217" type="line" smooth="yes"/>
      <point x="402" y="81"/>
      <point x="357" y="19"/>
      <point x="261" y="19" type="curve" smooth="yes"/>
      <point x="165" y="19"/>
      <point x="117" y="81"/>
      <point x="117" y="218" type="curve" smooth="yes"/>
      <point x="117" y="254" type="line" smooth="yes"/>
      <point x="117" y="378"/>
      <point x="156" y="448"/>
      <point x="237" y="540" type="curve" smooth="yes"/>
      <point x="305" y="618" type="line" smooth="yes"/>
      <point x="383" y="708"/>
      <point x="429" y="787"/>
      <point x="429" y="924" type="curve" smooth="yes"/>
      <point x="429" y="999" type="line" smooth="yes"/>
      <point x="429" y="1129"/>
      <point x="373" y="1196"/>
    </contour>
  </outline>
  <guideline angle="0" x="0" y="-10080"/>
</glyph>
<glyph name="Ya.kn" format="2">
  <advance width="1344"/>
  <unicode hex="0CAF"/>
  <outline>
    <component base="matraU.kn" xOffset="1006"/>
    <contour>
      <point x="654" y="1167" type="line"/>
      <point x="654" y="1146" type="line"/>
      <point x="801" y="1146"/>
      <point x="861" y="1059"/>
      <point x="861" y="849" type="curve" smooth="yes"/>
      <point x="861" y="226" type="line" smooth="yes"/>
      <point x="861" y="87"/>
      <point x="814" y="19"/>
      <point x="720" y="19" type="curve" smooth="yes"/>
      <point x="612" y="19"/>
      <point x="560" y="89"/>
      <point x="560" y="230" type="curve" smooth="yes"/>
      <point x="560" y="356" type="line"/>
      <point x="538" y="356" type="line"/>
      <point x="538" y="219" type="line" smooth="yes"/>
      <point x="538" y="63"/>
      <point x="599" y="-14"/>
      <point x="720" y="-14" type="curve" smooth="yes"/>
      <point x="836" y="-14"/>
      <point x="896" y="69"/>
      <point x="896" y="227" type="curve" smooth="yes"/>
      <point x="896" y="848" type="line" smooth="yes"/>
      <point x="896" y="1029"/>
      <point x="852" y="1117"/>
      <point x="774" y="1145" type="curve"/>
      <point x="774" y="1167" type="line"/>
    </contour>
    <contour>
      <point x="631" y="1178" type="line"/>
      <point x="631" y="1146" type="line"/>
      <point x="755" y="1146" type="line"/>
      <point x="755" y="1178" type="line"/>
    </contour>
    <contour>
      <point x="560" y="914" type="line" smooth="yes"/>
      <point x="560" y="1100"/>
      <point x="483" y="1196"/>
      <point x="336" y="1196" type="curve" smooth="yes"/>
      <point x="188" y="1196"/>
      <point x="112" y="1100"/>
      <point x="112" y="914" type="curve" smooth="yes"/>
      <point x="112" y="266" type="line" smooth="yes"/>
      <point x="112" y="81"/>
      <point x="188" y="-14"/>
      <point x="336" y="-14" type="curve" smooth="yes"/>
      <point x="484" y="-14"/>
      <point x="560" y="81"/>
      <point x="560" y="266" type="curve" smooth="yes"/>
    </contour>
    <contour>
      <point x="336" y="19" type="curve" smooth="yes"/>
      <point x="212" y="19"/>
      <point x="147" y="104"/>
      <point x="147" y="266" type="curve" smooth="yes"/>
      <point x="147" y="914" type="line" smooth="yes"/>
      <point x="147" y="1077"/>
      <point x="212" y="1163"/>
      <point x="336" y="1163" type="curve" smooth="yes"/>
      <point x="459" y="1163"/>
      <point x="525" y="1077"/>
      <point x="525" y="914" type="curve" smooth="yes"/>
      <point x="525" y="266" type="line" smooth="yes"/>
      <point x="525" y="104"/>
      <point x="460" y="19"/>
    </contour>
    <contour>
      <point x="811" y="1511" type="line"/>
      <point x="842" y="1442"/>
      <point x="861" y="1367"/>
      <point x="861" y="1296" type="curve" smooth="yes"/>
      <point x="861" y="1214"/>
      <point x="828" y="1178"/>
      <point x="750" y="1178" type="curve" smooth="yes"/>
      <point x="688" y="1178" type="line"/>
      <point x="688" y="1146" type="line"/>
      <point x="752" y="1146" type="line" smooth="yes"/>
      <point x="851" y="1146"/>
      <point x="896" y="1193"/>
      <point x="896" y="1296" type="curve" smooth="yes"/>
      <point x="896" y="1372"/>
      <point x="875" y="1446"/>
      <point x="846" y="1511" type="curve"/>
    </contour>
  </outline>
  <guideline angle="90" x="2309" y="0"/>
  <guideline angle="90" x="340" y="0"/>
</glyph>
<glyph name="matraU.kn" format="2">
  <advance width="338"/>
  <unicode hex="0CC1"/>
  <outline>
    <contour>
      <point x="42" y="1188" type="curve" smooth="yes"/>
      <point x="38" y="1188"/>
      <point x="33" y="1188"/>
      <point x="29" y="1188" type="curve"/>
      <point x="29" y="1155" type="line"/>
      <point x="32" y="1155"/>
      <point x="37" y="1155"/>
      <point x="40" y="1155" type="curve" smooth="yes"/>
      <point x="143" y="1155"/>
      <point x="191" y="1085"/>
      <point x="191" y="942" type="curve" smooth="yes"/>
      <point x="191" y="226" type="line" smooth="yes"/>
      <point x="191" y="87"/>
      <point x="144" y="19"/>
      <point x="50" y="19" type="curve" smooth="yes"/>
      <point x="-58" y="19"/>
      <point x="-110" y="89"/>
      <point x="-110" y="230" type="curve" smooth="yes"/>
      <point x="-110" y="251" type="line"/>
      <point x="-131" y="251" type="line"/>
      <point x="-131" y="219" type="line" smooth="yes"/>
      <point x="-131" y="63"/>
      <point x="-71" y="-14"/>
      <point x="50" y="-14" type="curve" smooth="yes"/>
      <point x="166" y="-14"/>
      <point x="226" y="69"/>
      <point x="226" y="227" type="curve" smooth="yes"/>
      <point x="226" y="943" type="line" smooth="yes"/>
      <point x="226" y="1108"/>
      <point x="167" y="1188"/>
    </contour>
  </outline>
  <guideline angle="90" x="-38" y="0"/>
  <guideline angle="90" x="-110" y="0"/>
  <guideline angle="90" x="344" y="0"/>
</glyph>
<glyph name="matraAiLengthmark.kn" format="2">
  <advance width="25"/>
  <unicode hex="0CD6"/>
  <outline>
    <contour>
      <point x="-282" y="-438" type="line"/>
      <point x="-315" y="-436" type="line"/>
      <point x="-315" y="-480" type="line" smooth="yes"/>
      <point x="-315" y="-628"/>
      <point x="-251" y="-705"/>
      <point x="-128" y="-705" type="curve" smooth="yes"/>
      <point x="-5" y="-705"/>
      <point x="59" y="-628"/>
      <point x="59" y="-480" type="curve" smooth="yes"/>
      <point x="59" y="-318" type="line" smooth="yes"/>
      <point x="59" y="-210"/>
      <point x="27" y="-150"/>
      <point x="-35" y="-139" type="curve"/>
      <point x="-102" y="-132" type="line"/>
      <point x="-102" y="-152" type="line"/>
      <point x="-77" y="-153" type="line" smooth="yes"/>
      <point x="-7" y="-156"/>
      <point x="26" y="-205"/>
      <point x="26" y="-314" type="curve" smooth="yes"/>
      <point x="26" y="-478" type="line" smooth="yes"/>
      <point x="26" y="-607"/>
      <point x="-25" y="-673"/>
      <point x="-128" y="-673" type="curve" smooth="yes"/>
      <point x="-231" y="-673"/>
      <point x="-282" y="-607"/>
      <point x="-282" y="-478" type="curve" smooth="yes"/>
    </contour>
    <contour>
      <point x="-35" y="-138" type="line"/>
      <point x="20" y="-128"/>
      <point x="49" y="-87"/>
      <point x="49" y="-13" type="curve" smooth="yes"/>
      <point x="49" y="39"/>
      <point x="42" y="79"/>
      <point x="23" y="130" type="curve"/>
      <point x="-9" y="130" type="line"/>
      <point x="8" y="82"/>
      <point x="16" y="39"/>
      <point x="16" y="-12" type="curve" smooth="yes"/>
      <point x="16" y="-85"/>
      <point x="-11" y="-119"/>
      <point x="-71" y="-121" type="curve" smooth="yes"/>
      <point x="-102" y="-122" type="line"/>
      <point x="-102" y="-143" type="line"/>
      <point x="-35" y="-143" type="line"/>
    </contour>
    <contour>
      <point x="-207" y="-190" type="curve" smooth="yes"/>
      <point x="-280" y="-190"/>
      <point x="-315" y="-234"/>
      <point x="-315" y="-326" type="curve" smooth="yes"/>
      <point x="-315" y="-442" type="line"/>
      <point x="-282" y="-441" type="line"/>
      <point x="-282" y="-328" type="line" smooth="yes"/>
      <point x="-282" y="-257"/>
      <point x="-258" y="-222"/>
      <point x="-207" y="-222" type="curve" smooth="yes"/>
      <point x="-156" y="-222"/>
      <point x="-132" y="-257"/>
      <point x="-132" y="-328" type="curve" smooth="yes"/>
      <point x="-132" y="-393" type="line" smooth="yes"/>
      <point x="-132" y="-464"/>
      <point x="-159" y="-485"/>
      <point x="-199" y="-485" type="curve" smooth="yes"/>
      <point x="-252" y="-485"/>
      <point x="-277" y="-452"/>
      <point x="-286" y="-391" type="curve"/>
      <point x="-294" y="-462" type="line"/>
      <point x="-281" y="-462" type="line"/>
      <point x="-269" y="-496"/>
      <point x="-238" y="-517"/>
      <point x="-197" y="-517" type="curve" smooth="yes"/>
      <point x="-132" y="-517"/>
      <point x="-99" y="-479"/>
      <point x="-99" y="-393" type="curve" smooth="yes"/>
      <point x="-99" y="-326" type="line" smooth="yes"/>
      <point x="-99" y="-234"/>
      <point x="-134" y="-190"/>
    </contour>
  </outline>
</glyph>
<glyph name="Nalku.kn" format="2">
  <advance width="803"/>
  <unicode hex="0CEA"/>
  <outline>
    <contour>
      <point x="405" y="421" type="curve" smooth="yes"/>
      <point x="502" y="421"/>
      <point x="546" y="362"/>
      <point x="546" y="238" type="curve" smooth="yes"/>
      <point x="546" y="194" type="line" smooth="yes"/>
      <point x="546" y="70"/>
      <point x="502" y="11"/>
      <point x="405" y="11" type="curve" smooth="yes"/>
      <point x="308" y="11"/>
      <point x="264" y="70"/>
      <point x="264" y="194" type="curve" smooth="yes"/>
      <point x="264" y="238" type="line" smooth="yes"/>
      <point x="264" y="362"/>
      <point x="308" y="421"/>
    </contour>
    <contour>
      <point x="405" y="444" type="line"/>
      <point x="354" y="438" type="line"/>
      <point x="269" y="422"/>
      <point x="229" y="355"/>
      <point x="229" y="239" type="curve" smooth="yes"/>
      <point x="229" y="193" type="line" smooth="yes"/>
      <point x="229" y="48"/>
      <point x="285" y="-22"/>
      <point x="405" y="-22" type="curve" smooth="yes"/>
      <point x="525" y="-22"/>
      <point x="581" y="48"/>
      <point x="581" y="193" type="curve" smooth="yes"/>
      <point x="581" y="239" type="line" smooth="yes"/>
      <point x="581" y="355"/>
      <point x="541" y="422"/>
      <point x="456" y="438" type="curve"/>
    </contour>
    <contour>
      <point x="359" y="423" type="curve"/>
      <point x="403" y="438" type="line"/>
      <point x="449" y="423" type="line"/>
      <point x="627.719" y="440"/>
      <point x="715" y="564"/>
      <point x="715" y="749" type="curve" smooth="yes"/>
      <point x="715" y="943" type="line" smooth="yes"/>
      <point x="715" y="1108"/>
      <point x="657" y="1188"/>
      <point x="534" y="1188" type="curve" smooth="yes"/>
      <point x="531" y="1188"/>
      <point x="526" y="1188"/>
      <point x="523" y="1188" type="curve"/>
      <point x="523" y="1155" type="line"/>
      <point x="525" y="1155"/>
      <point x="530" y="1155"/>
      <point x="532" y="1155" type="curve"/>
      <point x="633" y="1155"/>
      <point x="680" y="1085"/>
      <point x="680" y="942" type="curve" smooth="yes"/>
      <point x="680" y="750" type="line" smooth="yes"/>
      <point x="680" y="559"/>
      <point x="585.579" y="450"/>
      <point x="404" y="450" type="curve" smooth="yes"/>
      <point x="216" y="450"/>
      <point x="121" y="553"/>
      <point x="121" y="730" type="curve" smooth="yes"/>
      <point x="121" y="769.764" type="line"/>
      <point x="86" y="769.168" type="line"/>
      <point x="86" y="729" type="line" smooth="yes"/>
      <point x="86" y="554"/>
      <point x="174" y="440"/>
    </contour>
    <contour>
      <point x="121" y="759.764" type="line"/>
      <point x="121" y="975" type="line" smooth="yes"/>
      <point x="121" y="1102"/>
      <point x="161" y="1163"/>
      <point x="247" y="1163" type="curve" smooth="yes"/>
      <point x="333" y="1163"/>
      <point x="373" y="1102"/>
      <point x="373" y="975" type="curve" smooth="yes"/>
      <point x="373" y="834" type="line" smooth="yes"/>
      <point x="373" y="706"/>
      <point x="327" y="669"/>
      <point x="259" y="669" type="curve" smooth="yes"/>
      <point x="174" y="669"/>
      <point x="131.225" y="722.853"/>
      <point x="115" y="820" type="curve"/>
      <point x="117" y="731" type="line"/>
      <point x="122" y="731" type="line"/>
      <point x="139" y="679"/>
      <point x="180" y="636"/>
      <point x="259" y="636" type="curve" smooth="yes"/>
      <point x="360" y="636"/>
      <point x="408" y="697"/>
      <point x="408" y="834" type="curve" smooth="yes"/>
      <point x="408" y="978" type="line" smooth="yes"/>
      <point x="408" y="1125"/>
      <point x="356" y="1196"/>
      <point x="247" y="1196" type="curve" smooth="yes"/>
      <point x="138" y="1196"/>
      <point x="86" y="1125"/>
      <point x="86" y="978" type="curve" smooth="yes"/>
      <point x="86" y="759.168" type="line"/>
    </contour>
  </outline>
</glyph>
<glyph name="Upadhmaniya.kn" format="2">
  <advance width="894"/>
  <unicode hex="0CF2"/>
  <outline>
    <contour>
      <point x="226" y="892" type="curve" smooth="yes"/>
      <point x="123" y="892"/>
      <point x="70" y="828"/>
      <point x="70" y="704" type="curve" smooth="yes"/>
      <point x="70" y="408" type="line" smooth="yes"/>
      <point x="70" y="285"/>
      <point x="123" y="220"/>
      <point x="226" y="220" type="curve" smooth="yes"/>
      <point x="329" y="220"/>
      <point x="382" y="285"/>
      <point x="382" y="408" type="curve" smooth="yes"/>
      <point x="382" y="704" type="line" smooth="yes"/>
      <point x="382" y="828"/>
      <point x="329" y="892"/>
    </contour>
    <contour>
      <point x="226" y="859" type="curve" smooth="yes"/>
      <point x="305" y="859"/>
      <point x="347" y="805"/>
      <point x="347" y="704" type="curve" smooth="yes"/>
      <point x="347" y="408" type="line" smooth="yes"/>
      <point x="347" y="307"/>
      <point x="305" y="253"/>
      <point x="226" y="253" type="curve" smooth="yes"/>
      <point x="147" y="253"/>
      <point x="105" y="307"/>
      <point x="105" y="408" type="curve" smooth="yes"/>
      <point x="105" y="704" type="line" smooth="yes"/>
      <point x="105" y="805"/>
      <point x="147" y="859"/>
    </contour>
    <contour>
      <point x="668" y="892" type="curve" smooth="yes"/>
      <point x="565" y="892"/>
      <point x="512" y="828"/>
      <point x="512" y="704" type="curve" smooth="yes"/>
      <point x="512" y="408" type="line" smooth="yes"/>
      <point x="512" y="285"/>
      <point x="565" y="220"/>
      <point x="668" y="220" type="curve" smooth="yes"/>
      <point x="771" y="220"/>
      <point x="824" y="285"/>
      <point x="824" y="408" type="curve" smooth="yes"/>
      <point x="824" y="704" type="line" smooth="yes"/>
      <point x="824" y="828"/>
      <point x="771" y="892"/>
    </contour>
    <contour>
      <point x="668" y="859" type="curve" smooth="yes"/>
      <point x="747" y="859"/>
      <point x="789" y="805"/>
      <point x="789" y="704" type="curve" smooth="yes"/>
      <point x="789" y="408" type="line" smooth="yes"/>
      <point x="789" y="307"/>
      <point x="747" y="253"/>
      <point x="668" y="253" type="curve" smooth="yes"/>
      <point x="589" y="253"/>
      <point x="547" y="307"/>
      <point x="547" y="408" type="curve" smooth="yes"/>
      <point x="547" y="704" type="line" smooth="yes"/>
      <point x="547" y="805"/>
      <point x="589" y="859"/>
    </contour>
  </outline>
  <guideline angle="90" x="102" y="0"/>
</glyph>
<glyph name="guilsinglleft" format="2">
  <advance width="366"/>
  <unicode hex="2039"/>
  <outline>
    <contour>
      <point x="287" y="877" type="line"/>
      <point x="252" y="877" type="line"/>
      <point x="87" y="508" type="line"/>
      <point x="87" y="480" type="line"/>
      <point x="252" y="111" type="line"/>
      <point x="287" y="111" type="line"/>
      <point x="119" y="494" type="line"/>
    </contour>
  </outline>
</glyph>
<glyph name="fivesuperior" format="2">
  <advance width="338"/>
  <unicode hex="2075"/>
  <outline>
    <contour>
      <point x="164" y="689" type="curve" smooth="yes"/>
      <point x="248" y="689"/>
      <point x="286" y="742"/>
      <point x="286" y="840" type="curve" smooth="yes"/>
      <point x="286" y="977" type="line" smooth="yes"/>
      <point x="286" y="1067"/>
      <point x="252" y="1122"/>
      <point x="183" y="1122" type="curve" smooth="yes"/>
      <point x="128" y="1122"/>
      <point x="96" y="1093"/>
      <point x="86" y="1047" type="curve"/>
      <point x="87" y="1045" type="line"/>
      <point x="89" y="1143" type="line"/>
      <point x="89" y="1353" type="line"/>
      <point x="279" y="1353" type="line"/>
      <point x="279" y="1383" type="line"/>
      <point x="57" y="1383" type="line"/>
      <point x="57" y="1015" type="line"/>
      <point x="87" y="1012" type="line"/>
      <point x="101" y="1063"/>
      <point x="124" y="1092"/>
      <point x="173" y="1092" type="curve" smooth="yes"/>
      <point x="234" y="1092"/>
      <point x="252" y="1039"/>
      <point x="252" y="974" type="curve" smooth="yes"/>
      <point x="252" y="839" type="line" smooth="yes"/>
      <point x="252" y="776"/>
      <point x="234" y="720"/>
      <point x="161" y="720" type="curve" smooth="yes"/>
      <point x="122" y="720"/>
      <point x="85" y="737"/>
      <point x="52" y="765" type="curve"/>
      <point x="56" y="729" type="line"/>
      <point x="75" y="710"/>
      <point x="114" y="689"/>
    </contour>
  </outline>
</glyph>
<glyph name="BhaHalant.kn" format="2">
  <advance width="1237"/>
  <outline>
    <component base="BaHalant.kn"/>
    <contour>
      <point x="421" y="-349" type="curve" smooth="yes"/>
      <point x="436" y="-349"/>
      <point x="442" y="-338"/>
      <point x="442" y="-314" type="curve" smooth="yes"/>
      <point x="442" y="-244" type="line" smooth="yes"/>
      <point x="442" y="-118"/>
      <point x="437" y="-35"/>
      <point x="421" y="35" type="curve"/>
      <point x="405" y="-35"/>
      <point x="400" y="-118"/>
      <point x="400" y="-244" type="curve" smooth="yes"/>
      <point x="400" y="-314" type="line" smooth="yes"/>
      <point x="400" y="-338"/>
      <point x="406" y="-349"/>
    </contour>
  </outline>
  <guideline angle="90" x="1161" y="0"/>
  <guideline angle="90" x="838" y="0"/>
  <guideline angle="90" x="419" y="0"/>
  <guideline angle="90" x="82" y="0"/>
</glyph>
<glyph name="BhamatraI.kn" format="2">
  <advance width="886"/>
  <outline>
    <component base="BamatraI.kn"/>
    <contour>
      <point x="431" y="-349" type="curve" smooth="yes"/>
      <point x="446" y="-349"/>
      <point x="452" y="-338"/>
      <point x="452" y="-314" type="curve" smooth="yes"/>
      <point x="452" y="-244" type="line" smooth="yes"/>
      <point x="452" y="-118"/>
      <point x="447" y="-35"/>
      <point x="431" y="35" type="curve"/>
      <point x="415" y="-35"/>
      <point x="410" y="-118"/>
      <point x="410" y="-244" type="curve" smooth="yes"/>
      <point x="410" y="-314" type="line" smooth="yes"/>
      <point x="410" y="-338"/>
      <point x="416" y="-349"/>
    </contour>
  </outline>
  <guideline angle="0" x="0" y="-274"/>
  <guideline angle="90" x="82" y="0"/>
</glyph>
<glyph name="CamatraUu.kn" format="2">
  <advance width="1655"/>
  <outline>
    <component base="Ca.kn"/>
    <contour>
      <point x="881" y="19" type="curve" smooth="yes"/>
      <point x="791" y="19"/>
      <point x="748" y="78"/>
      <point x="748" y="198" type="curve"/>
      <point x="748" y="198"/>
      <point x="748" y="251"/>
      <point x="748" y="251" type="curve"/>
      <point x="727" y="251" type="line"/>
      <point x="727" y="187" type="line" smooth="yes"/>
      <point x="727" y="52"/>
      <point x="778" y="-14"/>
      <point x="881" y="-14" type="curve" smooth="yes"/>
      <point x="979" y="-14"/>
      <point x="1030" y="58"/>
      <point x="1030" y="195" type="curve" smooth="yes"/>
      <point x="1030" y="592" type="line"/>
      <point x="995" y="592" type="line"/>
      <point x="995" y="194" type="line" smooth="yes"/>
      <point x="995" y="76"/>
      <point x="957" y="19"/>
    </contour>
    <contour>
      <point x="1269" y="1196" type="curve" smooth="yes"/>
      <point x="1086" y="1196"/>
      <point x="995.005" y="1089"/>
      <point x="995.005" y="877" type="curve" smooth="yes"/>
      <point x="995.005" y="579.006" type="line"/>
      <point x="1030" y="579.006" type="line"/>
      <point x="1030" y="877" type="line" smooth="yes"/>
      <point x="1030" y="1065"/>
      <point x="1110" y="1163"/>
      <point x="1269" y="1163" type="curve" smooth="yes"/>
      <point x="1427" y="1163"/>
      <point x="1508" y="1064"/>
      <point x="1508" y="876" type="curve" smooth="yes"/>
      <point x="1508" y="547.25" type="line"/>
      <point x="1543" y="545.294" type="line"/>
      <point x="1543" y="877" type="line" smooth="yes"/>
      <point x="1543" y="1089"/>
      <point x="1451" y="1196"/>
    </contour>
    <contour>
      <point x="1543" y="555.294" type="line"/>
      <point x="1508" y="557.25" type="line"/>
      <point x="1508" y="208" type="line" smooth="yes"/>
      <point x="1508" y="80"/>
      <point x="1467" y="19"/>
      <point x="1380" y="19" type="curve" smooth="yes"/>
      <point x="1293" y="19"/>
      <point x="1252" y="80"/>
      <point x="1252" y="208" type="curve" smooth="yes"/>
      <point x="1252" y="473" type="line" smooth="yes"/>
      <point x="1252" y="605"/>
      <point x="1301" y="642"/>
      <point x="1373" y="642" type="curve" smooth="yes"/>
      <point x="1456.18" y="642"/>
      <point x="1496.79" y="589.364"/>
      <point x="1513" y="489" type="curve"/>
      <point x="1513" y="580" type="line"/>
      <point x="1507" y="580" type="line"/>
      <point x="1491" y="631"/>
      <point x="1450" y="675"/>
      <point x="1373" y="675" type="curve" smooth="yes"/>
      <point x="1268" y="675"/>
      <point x="1217" y="613"/>
      <point x="1217" y="473" type="curve" smooth="yes"/>
      <point x="1217" y="205" type="line" smooth="yes"/>
      <point x="1217" y="57"/>
      <point x="1270" y="-14"/>
      <point x="1380" y="-14" type="curve" smooth="yes"/>
      <point x="1490" y="-14"/>
      <point x="1543" y="57"/>
      <point x="1543" y="205" type="curve" smooth="yes"/>
    </contour>
  </outline>
</glyph>
<glyph name="Casmall1.kn" format="2">
  <advance width="22"/>
  <outline>
    <contour>
      <point x="15" y="-301" type="line"/>
      <point x="-54" y="-296" type="line"/>
      <point x="-54" y="-304" type="line"/>
      <point x="12" y="-304"/>
      <point x="37" y="-350"/>
      <point x="37" y="-444" type="curve" smooth="yes"/>
      <point x="37" y="-584" type="line" smooth="yes"/>
      <point x="37" y="-645"/>
      <point x="14" y="-675"/>
      <point x="-33" y="-675" type="curve" smooth="yes"/>
      <point x="-80" y="-675"/>
      <point x="-103" y="-644"/>
      <point x="-105" y="-577" type="curve" smooth="yes"/>
      <point x="-108" y="-490" type="line"/>
      <point x="-130" y="-490" type="line"/>
      <point x="-121" y="-620" type="line" smooth="yes"/>
      <point x="-117" y="-673"/>
      <point x="-86" y="-705"/>
      <point x="-30" y="-705" type="curve" smooth="yes"/>
      <point x="35" y="-705"/>
      <point x="69" y="-665"/>
      <point x="69" y="-585" type="curve" smooth="yes"/>
      <point x="69" y="-444" type="line" smooth="yes"/>
      <point x="69" y="-371"/>
      <point x="54" y="-324"/>
      <point x="15" y="-305" type="curve"/>
    </contour>
    <contour>
      <point x="108" y="-305" type="line"/>
      <point x="108" y="-276" type="line"/>
      <point x="15" y="-277" type="line"/>
      <point x="-44" y="-281" type="line"/>
      <point x="-44" y="-276" type="line"/>
      <point x="-80" y="-276" type="line"/>
      <point x="-80" y="-304" type="line"/>
      <point x="-44" y="-304" type="line"/>
      <point x="-44" y="-299" type="line"/>
      <point x="15" y="-304" type="line"/>
    </contour>
    <contour>
      <point x="15" y="-280" type="line"/>
      <point x="15" y="-276" type="line"/>
      <point x="45" y="-259"/>
      <point x="55" y="-217"/>
      <point x="55" y="-151" type="curve" smooth="yes"/>
      <point x="55" y="-55" type="line" smooth="yes"/>
      <point x="55" y="30"/>
      <point x="45" y="83"/>
      <point x="19" y="130" type="curve"/>
      <point x="-14" y="130" type="line"/>
      <point x="14" y="75"/>
      <point x="23" y="29"/>
      <point x="23" y="-55" type="curve" smooth="yes"/>
      <point x="23" y="-151" type="line" smooth="yes"/>
      <point x="23" y="-235"/>
      <point x="3" y="-276"/>
      <point x="-54" y="-276" type="curve"/>
      <point x="-54" y="-284" type="line"/>
    </contour>
    <contour>
      <point x="-212" y="-130" type="curve" smooth="yes"/>
      <point x="-276" y="-130"/>
      <point x="-310" y="-170"/>
      <point x="-310" y="-245" type="curve"/>
      <point x="-310" y="-245"/>
      <point x="-310" y="-275"/>
      <point x="-310" y="-275" type="curve"/>
      <point x="-310" y="-312"/>
      <point x="-302" y="-350"/>
      <point x="-288" y="-372" type="curve"/>
      <point x="-254" y="-372" type="line"/>
      <point x="-269" y="-348"/>
      <point x="-278" y="-315"/>
      <point x="-278" y="-275" type="curve"/>
      <point x="-278" y="-275"/>
      <point x="-278" y="-246"/>
      <point x="-278" y="-246" type="curve"/>
      <point x="-278" y="-189"/>
      <point x="-256" y="-160"/>
      <point x="-213" y="-160" type="curve" smooth="yes"/>
      <point x="-169" y="-160"/>
      <point x="-146" y="-188"/>
      <point x="-146" y="-246" type="curve" smooth="yes"/>
      <point x="-146" y="-270" type="line" smooth="yes"/>
      <point x="-146" y="-325"/>
      <point x="-167" y="-356"/>
      <point x="-208" y="-394" type="curve" smooth="yes"/>
      <point x="-247" y="-431" type="line" smooth="yes"/>
      <point x="-294" y="-476"/>
      <point x="-320" y="-510"/>
      <point x="-320" y="-574" type="curve" smooth="yes"/>
      <point x="-320" y="-584" type="line" smooth="yes"/>
      <point x="-320" y="-664"/>
      <point x="-284" y="-705"/>
      <point x="-215" y="-705" type="curve" smooth="yes"/>
      <point x="-158" y="-705"/>
      <point x="-126" y="-673"/>
      <point x="-123" y="-620" type="curve"/>
      <point x="-109" y="-620" type="line"/>
      <point x="-122" y="-490" type="line"/>
      <point x="-137" y="-490" type="line"/>
      <point x="-139" y="-577" type="line" smooth="yes"/>
      <point x="-141" y="-644"/>
      <point x="-164" y="-675"/>
      <point x="-212" y="-675" type="curve" smooth="yes"/>
      <point x="-262" y="-675"/>
      <point x="-288" y="-643"/>
      <point x="-288" y="-583" type="curve" smooth="yes"/>
      <point x="-288" y="-573" type="line" smooth="yes"/>
      <point x="-288" y="-518"/>
      <point x="-265" y="-488"/>
      <point x="-222" y="-448" type="curve" smooth="yes"/>
      <point x="-184" y="-412" type="line" smooth="yes"/>
      <point x="-139" y="-370"/>
      <point x="-114" y="-333"/>
      <point x="-114" y="-270" type="curve" smooth="yes"/>
      <point x="-114" y="-246" type="line" smooth="yes"/>
      <point x="-114" y="-170"/>
      <point x="-148" y="-130"/>
    </contour>
  </outline>
  <guideline angle="0" x="0" y="-348"/>
  <guideline angle="0" x="0" y="-381"/>
  <guideline angle="90" x="-286" y="0"/>
</glyph>
<glyph name="ChamatraI.kn" format="2">
  <advance width="898"/>
  <outline>
    <contour>
      <point x="274" y="1196" type="curve" smooth="yes"/>
      <point x="164" y="1196"/>
      <point x="112" y="1125"/>
      <point x="112" y="977" type="curve" smooth="yes"/>
      <point x="112" y="632.583" type="line"/>
      <point x="147" y="635.305" type="line"/>
      <point x="147" y="974" type="line" smooth="yes"/>
      <point x="147" y="1102"/>
      <point x="187" y="1163"/>
      <point x="274" y="1163" type="curve" smooth="yes"/>
      <point x="361" y="1163"/>
      <point x="401" y="1102"/>
      <point x="401" y="974" type="curve" smooth="yes"/>
      <point x="401" y="712" type="line" smooth="yes"/>
      <point x="401" y="582"/>
      <point x="355" y="545"/>
      <point x="286" y="545" type="curve" smooth="yes"/>
      <point x="201.413" y="545"/>
      <point x="158.112" y="596"/>
      <point x="142" y="693" type="curve"/>
      <point x="143" y="606" type="line"/>
      <point x="148" y="606" type="line"/>
      <point x="165" y="555"/>
      <point x="206" y="512"/>
      <point x="286" y="512" type="curve" smooth="yes"/>
      <point x="388" y="512"/>
      <point x="436" y="573"/>
      <point x="436" y="712" type="curve" smooth="yes"/>
      <point x="436" y="977" type="line" smooth="yes"/>
      <point x="436" y="1125"/>
      <point x="384" y="1196"/>
    </contour>
    <contour>
      <point x="780" y="220" type="curve" smooth="yes"/>
      <point x="780" y="780" type="line" smooth="yes"/>
      <point x="780" y="941"/>
      <point x="780" y="1033"/>
      <point x="780" y="1194" type="curve" smooth="yes"/>
      <point x="780" y="1319"/>
      <point x="734" y="1378"/>
      <point x="637" y="1378" type="curve" smooth="yes"/>
      <point x="540" y="1378"/>
      <point x="494" y="1319"/>
      <point x="494" y="1194" type="curve" smooth="yes"/>
      <point x="494" y="1050" type="line" smooth="yes"/>
      <point x="494" y="938"/>
      <point x="539" y="888"/>
      <point x="633" y="888" type="curve" smooth="yes"/>
      <point x="698" y="888"/>
      <point x="730" y="921"/>
      <point x="744" y="957" type="curve"/>
      <point x="749" y="957" type="line"/>
      <point x="749" y="1036" type="line"/>
      <point x="734" y="963"/>
      <point x="702" y="921"/>
      <point x="633" y="921" type="curve" smooth="yes"/>
      <point x="572" y="921"/>
      <point x="529" y="951"/>
      <point x="529" y="1050" type="curve" smooth="yes"/>
      <point x="529" y="1194" type="line" smooth="yes"/>
      <point x="529" y="1297"/>
      <point x="563" y="1345"/>
      <point x="637" y="1345" type="curve" smooth="yes"/>
      <point x="711" y="1345"/>
      <point x="745" y="1297"/>
      <point x="745" y="1194" type="curve" smooth="yes"/>
      <point x="745" y="1115"/>
      <point x="745" y="1070"/>
      <point x="745" y="991" type="curve" smooth="yes"/>
      <point x="745" y="987"/>
      <point x="745" y="985"/>
      <point x="745" y="981" type="curve"/>
      <point x="745" y="980.56"/>
      <point x="745" y="971.44"/>
      <point x="745" y="971" type="curve"/>
      <point x="745" y="961" type="line" smooth="yes"/>
      <point x="745" y="891"/>
      <point x="745" y="850"/>
      <point x="745" y="780" type="curve" smooth="yes"/>
      <point x="745" y="221" type="line" smooth="yes"/>
      <point x="745" y="82"/>
      <point x="699" y="19"/>
      <point x="607" y="19" type="curve" smooth="yes"/>
      <point x="513" y="19"/>
      <point x="468" y="82"/>
      <point x="467" y="221" type="curve" smooth="yes"/>
      <point x="465" y="411" type="line"/>
      <point x="433" y="411" type="line"/>
      <point x="431" y="221" type="line" smooth="yes"/>
      <point x="430" y="82"/>
      <point x="384" y="19"/>
      <point x="288" y="19" type="curve" smooth="yes"/>
      <point x="194" y="19"/>
      <point x="147" y="82"/>
      <point x="147" y="222" type="curve" smooth="yes"/>
      <point x="147" y="645.3" type="line"/>
      <point x="112" y="642.6" type="line"/>
      <point x="112" y="221" type="line" smooth="yes"/>
      <point x="112" y="59"/>
      <point x="170" y="-14"/>
      <point x="287" y="-14" type="curve" smooth="yes"/>
      <point x="383.095" y="-14"/>
      <point x="441.886" y="39.9877"/>
      <point x="447.836" y="146" type="curve"/>
      <point x="450.163" y="146" type="line"/>
      <point x="456.095" y="39.9877"/>
      <point x="513.886" y="-14"/>
      <point x="608" y="-14" type="curve" smooth="yes"/>
      <point x="723" y="-14"/>
      <point x="780" y="59"/>
    </contour>
    <contour>
      <point x="449" y="-349" type="curve" smooth="yes"/>
      <point x="464" y="-349"/>
      <point x="470" y="-338"/>
      <point x="470" y="-314" type="curve" smooth="yes"/>
      <point x="470" y="-244" type="line" smooth="yes"/>
      <point x="470" y="-118"/>
      <point x="465" y="-35"/>
      <point x="449" y="35" type="curve"/>
      <point x="433" y="-35"/>
      <point x="428" y="-118"/>
      <point x="428" y="-244" type="curve" smooth="yes"/>
      <point x="428" y="-314" type="line" smooth="yes"/>
      <point x="428" y="-338"/>
      <point x="434" y="-349"/>
    </contour>
  </outline>
  <guideline angle="0" x="0" y="-274"/>
</glyph>
<glyph name="DamatraI.kn" format="2">
  <advance width="842"/>
  <outline>
    <contour>
      <point x="421" y="1179" type="curve" smooth="yes"/>
      <point x="337" y="1179"/>
      <point x="272" y="1161"/>
      <point x="223" y="1124" type="curve"/>
      <point x="218" y="1120" type="line"/>
      <point x="147" y="1061"/>
      <point x="112" y="958"/>
      <point x="112" y="796" type="curve" smooth="yes"/>
      <point x="112" y="210" type="line" smooth="yes"/>
      <point x="112" y="56"/>
      <point x="166" y="-14"/>
      <point x="273" y="-14" type="curve" smooth="yes"/>
      <point x="360" y="-14"/>
      <point x="414" y="37"/>
      <point x="420" y="135" type="curve"/>
      <point x="422" y="135" type="line"/>
      <point x="428" y="37"/>
      <point x="482" y="-14"/>
      <point x="569" y="-14" type="curve" smooth="yes"/>
      <point x="676" y="-14"/>
      <point x="730" y="56"/>
      <point x="730" y="210" type="curve" smooth="yes"/>
      <point x="730" y="796" type="line"/>
      <point x="710" y="986" type="line"/>
      <point x="698" y="986" type="line"/>
      <point x="663" y="1121"/>
      <point x="569" y="1179"/>
    </contour>
    <contour>
      <point x="405" y="425" type="line"/>
      <point x="403" y="210" type="line" smooth="yes"/>
      <point x="402" y="79"/>
      <point x="361" y="19"/>
      <point x="274" y="19" type="curve" smooth="yes"/>
      <point x="190" y="19"/>
      <point x="147" y="79"/>
      <point x="147" y="211" type="curve" smooth="yes"/>
      <point x="147" y="797" type="line" smooth="yes"/>
      <point x="147" y="1042"/>
      <point x="229" y="1146"/>
      <point x="421" y="1146" type="curve" smooth="yes"/>
      <point x="612" y="1146"/>
      <point x="695" y="1042"/>
      <point x="695" y="797" type="curve" smooth="yes"/>
      <point x="695" y="211" type="line" smooth="yes"/>
      <point x="695" y="79"/>
      <point x="652" y="19"/>
      <point x="568" y="19" type="curve" smooth="yes"/>
      <point x="481" y="19"/>
      <point x="440" y="79"/>
      <point x="439" y="210" type="curve" smooth="yes"/>
      <point x="437" y="425" type="line"/>
    </contour>
    <contour>
      <point x="391" y="1475" type="curve" smooth="yes"/>
      <point x="210" y="1475"/>
      <point x="122" y="1410"/>
      <point x="122" y="1268" type="curve" smooth="yes"/>
      <point x="122" y="1184"/>
      <point x="163" y="1130"/>
      <point x="220" y="1102" type="curve"/>
      <point x="245" y="1127" type="line"/>
      <point x="193" y="1150"/>
      <point x="157" y="1198"/>
      <point x="157" y="1268" type="curve" smooth="yes"/>
      <point x="157" y="1386"/>
      <point x="231" y="1442"/>
      <point x="391" y="1442" type="curve" smooth="yes"/>
      <point x="606" y="1442"/>
      <point x="699" y="1337"/>
      <point x="699" y="1087" type="curve" smooth="yes"/>
      <point x="699" y="780" type="line"/>
      <point x="730" y="781" type="line"/>
      <point x="730" y="1092" type="line" smooth="yes"/>
      <point x="730" y="1364"/>
      <point x="626" y="1475"/>
    </contour>
  </outline>
  <guideline angle="0" x="0" y="1180"/>
  <guideline angle="0" x="0" y="1475"/>
</glyph>
<glyph name="Dasmall1.kn" format="2">
  <outline>
    <contour>
      <point x="-158" y="-495" type="line"/>
      <point x="-160" y="-581" type="line" smooth="yes"/>
      <point x="-161" y="-645"/>
      <point x="-184" y="-675"/>
      <point x="-227" y="-675" type="curve" smooth="yes"/>
      <point x="-272" y="-675"/>
      <point x="-296" y="-644"/>
      <point x="-296" y="-581" type="curve" smooth="yes"/>
      <point x="-296" y="-346" type="line" smooth="yes"/>
      <point x="-296" y="-222"/>
      <point x="-243" y="-160"/>
      <point x="-143" y="-160" type="curve" smooth="yes"/>
      <point x="-43" y="-160"/>
      <point x="10" y="-222"/>
      <point x="10" y="-346" type="curve" smooth="yes"/>
      <point x="10" y="-581" type="line" smooth="yes"/>
      <point x="10" y="-644"/>
      <point x="-14" y="-675"/>
      <point x="-59" y="-675" type="curve" smooth="yes"/>
      <point x="-102" y="-675"/>
      <point x="-125" y="-645"/>
      <point x="-126" y="-581" type="curve" smooth="yes"/>
      <point x="-128" y="-495" type="line"/>
    </contour>
    <contour>
      <point x="-143" y="-130" type="curve" smooth="yes"/>
      <point x="-264" y="-130"/>
      <point x="-328" y="-204"/>
      <point x="-328" y="-346" type="curve" smooth="yes"/>
      <point x="-328" y="-582" type="line" smooth="yes"/>
      <point x="-328" y="-663"/>
      <point x="-294" y="-705"/>
      <point x="-230" y="-705" type="curve" smooth="yes"/>
      <point x="-177" y="-705"/>
      <point x="-147" y="-674"/>
      <point x="-144" y="-623" type="curve"/>
      <point x="-142" y="-623" type="line"/>
      <point x="-139" y="-674"/>
      <point x="-109" y="-705"/>
      <point x="-56" y="-705" type="curve" smooth="yes"/>
      <point x="8" y="-705"/>
      <point x="42" y="-663"/>
      <point x="42" y="-582" type="curve" smooth="yes"/>
      <point x="42" y="-346" type="line" smooth="yes"/>
      <point x="42" y="-204"/>
      <point x="-22" y="-130"/>
    </contour>
  </outline>
</glyph>
<glyph name="Ddasmall1.kn" format="2">
  <outline>
    <contour>
      <point x="-140" y="-130" type="curve" smooth="yes"/>
      <point x="-264" y="-130"/>
      <point x="-328" y="-201"/>
      <point x="-328" y="-339" type="curve" smooth="yes"/>
      <point x="-328" y="-581" type="line" smooth="yes"/>
      <point x="-328" y="-663"/>
      <point x="-294" y="-705"/>
      <point x="-229" y="-705" type="curve" smooth="yes"/>
      <point x="-175" y="-705"/>
      <point x="-145" y="-674"/>
      <point x="-142" y="-622" type="curve"/>
      <point x="-140" y="-622" type="line"/>
      <point x="-137" y="-674"/>
      <point x="-107" y="-705"/>
      <point x="-52" y="-705" type="curve" smooth="yes"/>
      <point x="14" y="-705"/>
      <point x="48" y="-663"/>
      <point x="48" y="-580" type="curve" smooth="yes"/>
      <point x="48" y="-530" type="line" smooth="yes"/>
      <point x="48" y="-452"/>
      <point x="23" y="-412"/>
      <point x="-29" y="-404" type="curve"/>
      <point x="-29" y="-403" type="line"/>
      <point x="16" y="-395"/>
      <point x="38" y="-363"/>
      <point x="38" y="-298" type="curve" smooth="yes"/>
      <point x="38" y="-290" type="line" smooth="yes"/>
      <point x="38" y="-188"/>
      <point x="-21" y="-130"/>
    </contour>
    <contour>
      <point x="-55" y="-675" type="curve" smooth="yes"/>
      <point x="-100" y="-675"/>
      <point x="-122" y="-645"/>
      <point x="-124" y="-580" type="curve" smooth="yes"/>
      <point x="-126" y="-500" type="line"/>
      <point x="-156" y="-500" type="line"/>
      <point x="-158" y="-580" type="line" smooth="yes"/>
      <point x="-160" y="-645"/>
      <point x="-182" y="-675"/>
      <point x="-226" y="-675" type="curve" smooth="yes"/>
      <point x="-272" y="-675"/>
      <point x="-296" y="-644"/>
      <point x="-296" y="-580" type="curve" smooth="yes"/>
      <point x="-296" y="-340" type="line" smooth="yes"/>
      <point x="-296" y="-221"/>
      <point x="-243" y="-161"/>
      <point x="-140" y="-161" type="curve" smooth="yes"/>
      <point x="-42" y="-161"/>
      <point x="6" y="-207"/>
      <point x="6" y="-291" type="curve" smooth="yes"/>
      <point x="6" y="-297" type="line" smooth="yes"/>
      <point x="6" y="-358"/>
      <point x="-16" y="-387"/>
      <point x="-66" y="-388" type="curve" smooth="yes"/>
      <point x="-105" y="-389" type="line"/>
      <point x="-105" y="-418" type="line"/>
      <point x="-66" y="-419" type="line" smooth="yes"/>
      <point x="-9" y="-420"/>
      <point x="16" y="-457"/>
      <point x="16" y="-531" type="curve" smooth="yes"/>
      <point x="16" y="-579" type="line" smooth="yes"/>
      <point x="16" y="-644"/>
      <point x="-8" y="-675"/>
    </contour>
  </outline>
</glyph>
<glyph name="DdhamatraI.kn" format="2">
  <advance width="848"/>
  <outline>
    <component base="DdamatraI.kn"/>
    <contour>
      <point x="427" y="-349" type="curve" smooth="yes"/>
      <point x="442" y="-349"/>
      <point x="448" y="-338"/>
      <point x="448" y="-314" type="curve" smooth="yes"/>
      <point x="448" y="-244" type="line" smooth="yes"/>
      <point x="448" y="-118"/>
      <point x="443" y="-35"/>
      <point x="427" y="35" type="curve"/>
      <point x="411" y="-35"/>
      <point x="406" y="-118"/>
      <point x="406" y="-244" type="curve" smooth="yes"/>
      <point x="406" y="-314" type="line" smooth="yes"/>
      <point x="406" y="-338"/>
      <point x="412" y="-349"/>
    </contour>
  </outline>
  <guideline angle="0" x="0" y="-274"/>
  <guideline angle="90" x="112" y="0"/>
</glyph>
<glyph name="DhamatraO.kn" format="2">
  <advance width="1637"/>
  <outline>
    <component base="DamatraO.kn"/>
    <contour>
      <point x="421" y="-349" type="curve" smooth="yes"/>
      <point x="436" y="-349"/>
      <point x="442" y="-338"/>
      <point x="442" y="-314" type="curve" smooth="yes"/>
      <point x="442" y="-244" type="line" smooth="yes"/>
      <point x="442" y="-118"/>
      <point x="437" y="-35"/>
      <point x="421" y="35" type="curve"/>
      <point x="405" y="-35"/>
      <point x="400" y="-118"/>
      <point x="400" y="-244" type="curve" smooth="yes"/>
      <point x="400" y="-314" type="line" smooth="yes"/>
      <point x="400" y="-338"/>
      <point x="406" y="-349"/>
    </contour>
  </outline>
  <guideline angle="0" x="0" y="-274"/>
  <guideline angle="90" x="112" y="0"/>
</glyph>
<glyph name="GamatraI.kn" format="2">
  <advance width="726"/>
  <outline>
    <contour>
      <point x="344" y="1442" type="curve" smooth="yes"/>
      <point x="504" y="1442"/>
      <point x="573" y="1352"/>
      <point x="573" y="1137" type="curve" smooth="yes"/>
      <point x="573" y="840" type="line"/>
      <point x="604" y="841" type="line"/>
      <point x="604" y="1142" type="line" smooth="yes"/>
      <point x="604" y="1379"/>
      <point x="524" y="1475"/>
      <point x="344" y="1475" type="curve" smooth="yes"/>
      <point x="198" y="1475"/>
      <point x="125" y="1408"/>
      <point x="125" y="1271" type="curve" smooth="yes"/>
      <point x="125" y="1189"/>
      <point x="161" y="1137"/>
      <point x="210" y="1109" type="curve"/>
      <point x="235" y="1134" type="line"/>
      <point x="191" y="1156"/>
      <point x="160" y="1203"/>
      <point x="160" y="1271" type="curve" smooth="yes"/>
      <point x="160" y="1384"/>
      <point x="220" y="1442"/>
    </contour>
    <contour>
      <point x="569" y="870" type="curve" smooth="yes"/>
      <point x="569" y="0" type="line"/>
      <point x="604" y="0" type="line"/>
      <point x="604" y="987" type="line"/>
      <point x="585" y="1019" type="line"/>
      <point x="572" y="1019" type="line"/>
      <point x="545" y="1129"/>
      <point x="472" y="1179"/>
      <point x="362" y="1179" type="curve" smooth="yes"/>
      <point x="300" y="1179"/>
      <point x="252" y="1161"/>
      <point x="214" y="1130" type="curve"/>
      <point x="213.576" y="1129.62"/>
      <point x="205.423" y="1122.38"/>
      <point x="205" y="1122" type="curve"/>
      <point x="150" y="1071"/>
      <point x="122" y="988"/>
      <point x="122" y="870" type="curve" smooth="yes"/>
      <point x="122" y="0" type="line"/>
      <point x="157" y="0" type="line"/>
      <point x="157" y="870" type="line" smooth="yes"/>
      <point x="157" y="1053"/>
      <point x="227" y="1146"/>
      <point x="363" y="1146" type="curve" smooth="yes"/>
      <point x="498" y="1146"/>
      <point x="569" y="1053"/>
    </contour>
  </outline>
  <guideline angle="0" x="0" y="1180"/>
  <guideline angle="0" x="0" y="1475"/>
  <guideline angle="0" x="0" y="1147"/>
</glyph>
<glyph name="JaNuktasmall1.kn" format="2">
  <outline>
    <component base="Jasmall1.kn"/>
    <contour>
      <point x="-205" y="-741" type="curve" smooth="yes"/>
      <point x="-221" y="-741"/>
      <point x="-229" y="-751"/>
      <point x="-229" y="-776" type="curve" smooth="yes"/>
      <point x="-229" y="-802"/>
      <point x="-221" y="-812"/>
      <point x="-205" y="-812" type="curve" smooth="yes"/>
      <point x="-189" y="-812"/>
      <point x="-181" y="-802"/>
      <point x="-181" y="-776" type="curve" smooth="yes"/>
      <point x="-181" y="-751"/>
      <point x="-189" y="-741"/>
    </contour>
    <contour>
      <point x="-65" y="-741" type="curve" smooth="yes"/>
      <point x="-81" y="-741"/>
      <point x="-89" y="-751"/>
      <point x="-89" y="-776" type="curve" smooth="yes"/>
      <point x="-89" y="-802"/>
      <point x="-81" y="-812"/>
      <point x="-65" y="-812" type="curve" smooth="yes"/>
      <point x="-49" y="-812"/>
      <point x="-41" y="-802"/>
      <point x="-41" y="-776" type="curve" smooth="yes"/>
      <point x="-41" y="-751"/>
      <point x="-49" y="-741"/>
    </contour>
  </outline>
  <guideline angle="90" x="-227" y="0"/>
</glyph>
<glyph name="JamatraAu.kn" format="2">
  <advance width="1240"/>
  <anchor x="421" y="0" name="nukta"/>
  <outline>
    <contour>
      <point x="713" y="253" type="curve" smooth="yes"/>
      <point x="713" y="216" type="line" smooth="yes"/>
      <point x="713" y="83"/>
      <point x="668" y="19"/>
      <point x="575" y="19" type="curve" smooth="yes"/>
      <point x="483" y="19"/>
      <point x="440" y="81"/>
      <point x="439" y="217" type="curve" smooth="yes"/>
      <point x="437" y="411" type="line"/>
      <point x="418" y="411" type="line"/>
      <point x="422" y="145" type="line"/>
      <point x="428" y="40"/>
      <point x="484" y="-14"/>
      <point x="576" y="-14" type="curve" smooth="yes"/>
      <point x="690" y="-14"/>
      <point x="748" y="57"/>
      <point x="748" y="215" type="curve" smooth="yes"/>
      <point x="748" y="252" type="line" smooth="yes"/>
      <point x="748" y="321"/>
      <point x="740" y="386"/>
      <point x="722" y="443" type="curve"/>
      <point x="687" y="443" type="line"/>
      <point x="705" y="386"/>
      <point x="713" y="321"/>
    </contour>
    <contour>
      <point x="266" y="1196" type="curve" smooth="yes"/>
      <point x="158" y="1196"/>
      <point x="103" y="1129"/>
      <point x="103" y="999" type="curve" smooth="yes"/>
      <point x="103" y="912" type="line" smooth="yes"/>
      <point x="103" y="829"/>
      <point x="120" y="748"/>
      <point x="143" y="701" type="curve"/>
      <point x="180" y="701" type="line"/>
      <point x="154" y="750"/>
      <point x="138" y="824"/>
      <point x="138" y="914" type="curve" smooth="yes"/>
      <point x="138" y="999" type="line" smooth="yes"/>
      <point x="138" y="1107"/>
      <point x="181" y="1163"/>
      <point x="266" y="1163" type="curve" smooth="yes"/>
      <point x="350" y="1163"/>
      <point x="394" y="1107"/>
      <point x="394" y="999" type="curve" smooth="yes"/>
      <point x="394" y="925" type="line" smooth="yes"/>
      <point x="394" y="797"/>
      <point x="354" y="725"/>
      <point x="280" y="641" type="curve" smooth="yes"/>
      <point x="211" y="562" type="line" smooth="yes"/>
      <point x="126" y="465"/>
      <point x="82" y="392"/>
      <point x="82" y="254" type="curve" smooth="yes"/>
      <point x="82" y="217" type="line" smooth="yes"/>
      <point x="82" y="58"/>
      <point x="141" y="-14"/>
      <point x="260" y="-14" type="curve" smooth="yes"/>
      <point x="355" y="-14"/>
      <point x="413" y="39"/>
      <point x="420" y="142" type="curve"/>
      <point x="424" y="142" type="line"/>
      <point x="424" y="411" type="line"/>
      <point x="405" y="411" type="line"/>
      <point x="403" y="217" type="line" smooth="yes"/>
      <point x="402" y="81"/>
      <point x="357" y="19"/>
      <point x="261" y="19" type="curve" smooth="yes"/>
      <point x="165" y="19"/>
      <point x="117" y="81"/>
      <point x="117" y="218" type="curve" smooth="yes"/>
      <point x="117" y="254" type="line" smooth="yes"/>
      <point x="117" y="378"/>
      <point x="156" y="448"/>
      <point x="237" y="540" type="curve" smooth="yes"/>
      <point x="305" y="618" type="line" smooth="yes"/>
      <point x="383" y="708"/>
      <point x="429" y="787"/>
      <point x="429" y="924" type="curve" smooth="yes"/>
      <point x="429" y="999" type="line" smooth="yes"/>
      <point x="429" y="1129"/>
      <point x="373" y="1196"/>
    </contour>
    <contour>
      <point x="617" y="1146" type="line" smooth="yes"/>
      <point x="728" y="1146"/>
      <point x="782" y="1209"/>
      <point x="782" y="1327" type="curve" smooth="yes"/>
      <point x="782" y="1339" type="line" smooth="yes"/>
      <point x="782" y="1423"/>
      <point x="748" y="1477"/>
      <point x="693" y="1489" type="curve"/>
      <point x="693" y="1506" type="line"/>
      <point x="613" y="1506" type="line"/>
      <point x="613" y="1505.69"/>
      <point x="613" y="1490.25"/>
      <point x="613" y="1490" type="curve"/>
      <point x="703" y="1490"/>
      <point x="747" y="1438"/>
      <point x="747" y="1339" type="curve" smooth="yes"/>
      <point x="747" y="1329" type="line" smooth="yes"/>
      <point x="747" y="1230"/>
      <point x="703" y="1178"/>
      <point x="613" y="1178" type="curve" smooth="yes"/>
      <point x="588" y="1178" type="line"/>
      <point x="588" y="1146" type="line"/>
    </contour>
    <contour>
      <point x="1148" y="1065.16" type="line"/>
      <point x="1148" y="765" type="line" smooth="yes"/>
      <point x="1148" y="648"/>
      <point x="1110" y="591"/>
      <point x="1031" y="591" type="curve" smooth="yes"/>
      <point x="952" y="591"/>
      <point x="914" y="648"/>
      <point x="914" y="765" type="curve" smooth="yes"/>
      <point x="914" y="981" type="line" smooth="yes"/>
      <point x="914" y="1101"/>
      <point x="959" y="1134"/>
      <point x="1024" y="1134" type="curve" smooth="yes"/>
      <point x="1103" y="1134"/>
      <point x="1141.59" y="1082.78"/>
      <point x="1155" y="994" type="curve"/>
      <point x="1155" y="1087" type="line"/>
      <point x="1147" y="1087" type="line"/>
      <point x="1132" y="1128"/>
      <point x="1094" y="1167"/>
      <point x="1024" y="1167" type="curve" smooth="yes"/>
      <point x="927" y="1167"/>
      <point x="879" y="1110"/>
      <point x="879" y="981" type="curve" smooth="yes"/>
      <point x="879" y="762" type="line" smooth="yes"/>
      <point x="879" y="625"/>
      <point x="929" y="558"/>
      <point x="1031" y="558" type="curve" smooth="yes"/>
      <point x="1133" y="558"/>
      <point x="1183" y="625"/>
      <point x="1183" y="762" type="curve" smooth="yes"/>
      <point x="1183" y="1057.39" type="line"/>
    </contour>
    <contour>
      <point x="523" y="1521" type="line"/>
      <point x="523" y="1490" type="line"/>
      <point x="867" y="1490" type="line" smooth="yes"/>
      <point x="1062" y="1490"/>
      <point x="1148" y="1390"/>
      <point x="1148" y="1153" type="curve" smooth="yes"/>
      <point x="1148" y="1060.16" type="line"/>
      <point x="1183" y="1052.39" type="line"/>
      <point x="1183" y="1154" type="line" smooth="yes"/>
      <point x="1183" y="1408"/>
      <point x="1087" y="1521"/>
      <point x="869" y="1521" type="curve" smooth="yes"/>
    </contour>
    <contour>
      <point x="489" y="1178" type="line"/>
      <point x="489" y="1146" type="line"/>
      <point x="508" y="1146" type="line" smooth="yes"/>
      <point x="635" y="1146"/>
      <point x="687" y="1074"/>
      <point x="687" y="907" type="curve" smooth="yes"/>
      <point x="687" y="858" type="line" smooth="yes"/>
      <point x="687" y="728"/>
      <point x="646" y="671"/>
      <point x="558" y="671" type="curve" smooth="yes"/>
      <point x="472" y="671"/>
      <point x="427" y="728"/>
      <point x="427" y="838" type="curve" smooth="yes"/>
      <point x="427" y="950" type="line"/>
      <point x="402" y="864" type="line"/>
      <point x="402" y="829" type="line" smooth="yes"/>
      <point x="402" y="703"/>
      <point x="456" y="638"/>
      <point x="560" y="638" type="curve" smooth="yes"/>
      <point x="670" y="638"/>
      <point x="722" y="706"/>
      <point x="722" y="858" type="curve" smooth="yes"/>
      <point x="722" y="906" type="line" smooth="yes"/>
      <point x="722" y="1067"/>
      <point x="673" y="1126"/>
      <point x="616" y="1145" type="curve"/>
      <point x="616" y="1156" type="line"/>
      <point x="612" y="1178" type="line"/>
    </contour>
  </outline>
  <guideline angle="0" x="0" y="798"/>
</glyph>
<glyph name="JamatraI.kn" format="2">
  <advance width="849"/>
  <anchor x="421" y="0" name="nukta"/>
  <outline>
    <contour>
      <point x="621" y="1402" type="curve" smooth="yes"/>
      <point x="527" y="1402"/>
      <point x="482" y="1344"/>
      <point x="482" y="1222" type="curve" smooth="yes"/>
      <point x="482" y="1090" type="line" smooth="yes"/>
      <point x="482" y="981"/>
      <point x="526" y="933"/>
      <point x="617" y="933" type="curve" smooth="yes"/>
      <point x="679" y="933"/>
      <point x="710" y="965"/>
      <point x="724" y="1000" type="curve"/>
      <point x="729" y="1000" type="line"/>
      <point x="729" y="1079" type="line"/>
      <point x="714" y="1007"/>
      <point x="683" y="966"/>
      <point x="617" y="966" type="curve" smooth="yes"/>
      <point x="559" y="966"/>
      <point x="517" y="995"/>
      <point x="517" y="1090" type="curve" smooth="yes"/>
      <point x="517" y="1222" type="line" smooth="yes"/>
      <point x="517" y="1322"/>
      <point x="550" y="1369"/>
      <point x="621" y="1369" type="curve" smooth="yes"/>
      <point x="692" y="1369"/>
      <point x="725" y="1322"/>
      <point x="725" y="1222" type="curve" smooth="yes"/>
      <point x="725" y="865" type="line" smooth="yes"/>
      <point x="725" y="743"/>
      <point x="674" y="679"/>
      <point x="575" y="679" type="curve" smooth="yes"/>
      <point x="479" y="679"/>
      <point x="429" y="743"/>
      <point x="429" y="865" type="curve" smooth="yes"/>
      <point x="429" y="950" type="line"/>
      <point x="405" y="879" type="line"/>
      <point x="405" y="856" type="line" smooth="yes"/>
      <point x="405" y="718"/>
      <point x="464" y="646"/>
      <point x="577" y="646" type="curve" smooth="yes"/>
      <point x="698" y="646"/>
      <point x="760" y="721"/>
      <point x="760" y="865" type="curve" smooth="yes"/>
      <point x="760" y="1222" type="line" smooth="yes"/>
      <point x="760" y="1344"/>
      <point x="715" y="1402"/>
    </contour>
    <contour>
      <point x="713" y="253" type="curve" smooth="yes"/>
      <point x="713" y="216" type="line" smooth="yes"/>
      <point x="713" y="83"/>
      <point x="668" y="19"/>
      <point x="575" y="19" type="curve" smooth="yes"/>
      <point x="483" y="19"/>
      <point x="440" y="81"/>
      <point x="439" y="217" type="curve" smooth="yes"/>
      <point x="437" y="411" type="line"/>
      <point x="418" y="411" type="line"/>
      <point x="422" y="145" type="line"/>
      <point x="428" y="40"/>
      <point x="484" y="-14"/>
      <point x="576" y="-14" type="curve" smooth="yes"/>
      <point x="690" y="-14"/>
      <point x="748" y="57"/>
      <point x="748" y="215" type="curve" smooth="yes"/>
      <point x="748" y="252" type="line" smooth="yes"/>
      <point x="748" y="321"/>
      <point x="740" y="386"/>
      <point x="722" y="443" type="curve"/>
      <point x="687" y="443" type="line"/>
      <point x="705" y="386"/>
      <point x="713" y="321"/>
    </contour>
    <contour>
      <point x="266" y="1196" type="curve" smooth="yes"/>
      <point x="158" y="1196"/>
      <point x="103" y="1129"/>
      <point x="103" y="999" type="curve" smooth="yes"/>
      <point x="103" y="912" type="line" smooth="yes"/>
      <point x="103" y="829"/>
      <point x="120" y="748"/>
      <point x="143" y="701" type="curve"/>
      <point x="180" y="701" type="line"/>
      <point x="154" y="750"/>
      <point x="138" y="824"/>
      <point x="138" y="914" type="curve" smooth="yes"/>
      <point x="138" y="999" type="line" smooth="yes"/>
      <point x="138" y="1107"/>
      <point x="181" y="1163"/>
      <point x="266" y="1163" type="curve" smooth="yes"/>
      <point x="350" y="1163"/>
      <point x="394" y="1107"/>
      <point x="394" y="999" type="curve" smooth="yes"/>
      <point x="394" y="925" type="line" smooth="yes"/>
      <point x="394" y="797"/>
      <point x="354" y="725"/>
      <point x="280" y="641" type="curve" smooth="yes"/>
      <point x="211" y="562" type="line" smooth="yes"/>
      <point x="126" y="465"/>
      <point x="82" y="392"/>
      <point x="82" y="254" type="curve" smooth="yes"/>
      <point x="82" y="217" type="line" smooth="yes"/>
      <point x="82" y="58"/>
      <point x="141" y="-14"/>
      <point x="260" y="-14" type="curve" smooth="yes"/>
      <point x="355" y="-14"/>
      <point x="413" y="39"/>
      <point x="420" y="142" type="curve"/>
      <point x="424" y="142" type="line"/>
      <point x="424" y="411" type="line"/>
      <point x="405" y="411" type="line"/>
      <point x="403" y="217" type="line" smooth="yes"/>
      <point x="402" y="81"/>
      <point x="357" y="19"/>
      <point x="261" y="19" type="curve" smooth="yes"/>
      <point x="165" y="19"/>
      <point x="117" y="81"/>
      <point x="117" y="218" type="curve" smooth="yes"/>
      <point x="117" y="254" type="line" smooth="yes"/>
      <point x="117" y="378"/>
      <point x="156" y="448"/>
      <point x="237" y="540" type="curve" smooth="yes"/>
      <point x="305" y="618" type="line" smooth="yes"/>
      <point x="383" y="708"/>
      <point x="429" y="787"/>
      <point x="429" y="924" type="curve" smooth="yes"/>
      <point x="429" y="999" type="line" smooth="yes"/>
      <point x="429" y="1129"/>
      <point x="373" y="1196"/>
    </contour>
  </outline>
  <guideline angle="0" x="0" y="798"/>
</glyph>
<glyph name="JhamatraAu.kn" format="2">
  <advance width="1810"/>
  <outline>
    <component base="Ra.kn"/>
    <component base="matraU.kn" xOffset="714"/>
    <component base="matraAu.kn" xOffset="1017"/>
    <contour>
      <point x="1241" y="849" type="curve" smooth="yes"/>
      <point x="1241" y="226" type="line" smooth="yes"/>
      <point x="1241" y="87"/>
      <point x="1194" y="19"/>
      <point x="1100" y="19" type="curve" smooth="yes"/>
      <point x="992" y="19"/>
      <point x="940" y="89"/>
      <point x="940" y="230" type="curve" smooth="yes"/>
      <point x="940" y="356" type="line"/>
      <point x="918" y="356" type="line"/>
      <point x="918" y="219" type="line" smooth="yes"/>
      <point x="918" y="63"/>
      <point x="979" y="-14"/>
      <point x="1100" y="-14" type="curve" smooth="yes"/>
      <point x="1216" y="-14"/>
      <point x="1276" y="69"/>
      <point x="1276" y="227" type="curve" smooth="yes"/>
      <point x="1276" y="848" type="line" smooth="yes"/>
      <point x="1276" y="1029"/>
      <point x="1232" y="1117"/>
      <point x="1154" y="1145" type="curve"/>
      <point x="1154" y="1167" type="line"/>
      <point x="1034" y="1167" type="line"/>
      <point x="1034" y="1146" type="line"/>
      <point x="1181" y="1146"/>
      <point x="1241" y="1059"/>
    </contour>
    <contour>
      <point x="1154" y="1146" type="line"/>
      <point x="1154" y="1178" type="line"/>
      <point x="1034" y="1178" type="line"/>
      <point x="1034" y="1146" type="line"/>
    </contour>
    <contour>
      <point x="928" y="-349" type="curve" smooth="yes"/>
      <point x="943" y="-349"/>
      <point x="949" y="-338"/>
      <point x="949" y="-314" type="curve" smooth="yes"/>
      <point x="949" y="-244" type="line" smooth="yes"/>
      <point x="949" y="-118"/>
      <point x="944" y="-35"/>
      <point x="928" y="35" type="curve"/>
      <point x="912" y="-35"/>
      <point x="907" y="-118"/>
      <point x="907" y="-244" type="curve" smooth="yes"/>
      <point x="907" y="-314" type="line" smooth="yes"/>
      <point x="907" y="-338"/>
      <point x="913" y="-349"/>
    </contour>
    <contour>
      <point x="581" y="234" type="line"/>
      <point x="604" y="234" type="line"/>
      <point x="604" y="316" type="line"/>
      <point x="581" y="316" type="line"/>
    </contour>
  </outline>
  <guideline angle="0" x="0" y="-274"/>
  <guideline angle="90" x="676" y="0"/>
  <guideline angle="90" x="604" y="0"/>
  <guideline angle="90" x="1058" y="0"/>
  <guideline angle="90" x="1276" y="0"/>
  <guideline angle="90" x="907" y="0"/>
</glyph>
<glyph name="JhamatraI.kn" format="2">
  <advance width="1388"/>
  <outline>
    <component base="RamatraI.kn"/>
    <component base="matraU.kn" xOffset="714"/>
    <component base="matraU.kn" xOffset="1050"/>
    <contour>
      <point x="583" y="249" type="line"/>
      <point x="604" y="250" type="line"/>
      <point x="604" y="312" type="line"/>
      <point x="583" y="312" type="line"/>
    </contour>
    <contour>
      <point x="929" y="-349" type="curve" smooth="yes"/>
      <point x="944" y="-349"/>
      <point x="950" y="-338"/>
      <point x="950" y="-314" type="curve" smooth="yes"/>
      <point x="950" y="-244" type="line" smooth="yes"/>
      <point x="950" y="-118"/>
      <point x="945" y="-35"/>
      <point x="929" y="35" type="curve"/>
      <point x="913" y="-35"/>
      <point x="908" y="-118"/>
      <point x="908" y="-244" type="curve" smooth="yes"/>
      <point x="908" y="-314" type="line" smooth="yes"/>
      <point x="908" y="-338"/>
      <point x="914" y="-349"/>
    </contour>
  </outline>
  <guideline angle="0" x="0" y="-273"/>
  <guideline angle="90" x="1036" y="0"/>
  <guideline angle="90" x="964" y="0"/>
  <guideline angle="90" x="1418" y="0"/>
</glyph>
<glyph name="JhamatraUu.kn" format="2">
  <advance width="1847"/>
  <outline>
    <component base="Ra.kn"/>
    <component base="matraUu.kn" xOffset="1050" yOffset="-1"/>
    <component base="matraU.kn" xOffset="714"/>
    <contour>
      <point x="920" y="-349" type="curve" smooth="yes"/>
      <point x="935" y="-349"/>
      <point x="941" y="-338"/>
      <point x="941" y="-314" type="curve" smooth="yes"/>
      <point x="941" y="-244" type="line" smooth="yes"/>
      <point x="941" y="-118"/>
      <point x="936" y="-35"/>
      <point x="920" y="35" type="curve"/>
      <point x="904" y="-35"/>
      <point x="899" y="-118"/>
      <point x="899" y="-244" type="curve" smooth="yes"/>
      <point x="899" y="-314" type="line" smooth="yes"/>
      <point x="899" y="-338"/>
      <point x="905" y="-349"/>
    </contour>
    <contour>
      <point x="581" y="234" type="line"/>
      <point x="604" y="234" type="line"/>
      <point x="604" y="316" type="line"/>
      <point x="581" y="316" type="line"/>
    </contour>
  </outline>
  <guideline angle="0" x="0" y="-349"/>
  <guideline angle="90" x="899" y="0"/>
  <guideline angle="0" x="0" y="1195"/>
</glyph>
<glyph name="KaHalant.kn" format="2">
  <advance width="1065"/>
  <outline>
    <component base="Halant.kn" xOffset="747"/>
    <contour>
      <point x="72" y="765" type="line"/>
      <point x="72" y="734" type="line"/>
      <point x="283" y="734" type="line"/>
      <point x="283" y="740" type="line"/>
      <point x="411" y="740" type="line"/>
      <point x="411" y="734" type="line"/>
      <point x="618" y="734" type="line"/>
      <point x="618" y="765" type="line"/>
    </contour>
    <contour>
      <point x="327" y="1157" type="line"/>
      <point x="327" y="760" type="line"/>
      <point x="362" y="760" type="line"/>
      <point x="362" y="1157" type="line"/>
    </contour>
    <contour>
      <point x="72" y="1178" type="line"/>
      <point x="72" y="1146" type="line"/>
      <point x="428" y="1146" type="line"/>
      <point x="428" y="1178" type="line"/>
    </contour>
    <contour>
      <point x="345" y="17" type="curve" smooth="yes"/>
      <point x="221" y="17"/>
      <point x="158" y="97"/>
      <point x="158" y="253" type="curve" smooth="yes"/>
      <point x="158" y="499" type="line" smooth="yes"/>
      <point x="158" y="655"/>
      <point x="221" y="736"/>
      <point x="345" y="736" type="curve" smooth="yes"/>
      <point x="468" y="736"/>
      <point x="532" y="655"/>
      <point x="532" y="499" type="curve" smooth="yes"/>
      <point x="532" y="253" type="line" smooth="yes"/>
      <point x="532" y="97"/>
      <point x="469" y="17"/>
    </contour>
    <contour>
      <point x="232" y="742" type="line"/>
      <point x="232" y="733" type="line"/>
      <point x="180" y="711"/>
      <point x="123" y="653"/>
      <point x="123" y="499" type="curve" smooth="yes"/>
      <point x="123" y="253" type="line" smooth="yes"/>
      <point x="123" y="76"/>
      <point x="199" y="-16"/>
      <point x="345" y="-16" type="curve" smooth="yes"/>
      <point x="491" y="-16"/>
      <point x="567" y="76"/>
      <point x="567" y="253" type="curve" smooth="yes"/>
      <point x="567" y="499" type="line" smooth="yes"/>
      <point x="567" y="653"/>
      <point x="510" y="711"/>
      <point x="457" y="733" type="curve"/>
      <point x="457" y="742" type="line"/>
    </contour>
  </outline>
</glyph>
<glyph name="KaSsaHalant.kn" format="2">
  <advance width="1065"/>
  <outline>
    <component base="KaHalant.kn"/>
    <contour>
      <point x="628" y="-490" type="line"/>
      <point x="614" y="-313"/>
      <point x="603" y="-192"/>
      <point x="580" y="-44" type="curve"/>
      <point x="547" y="-44" type="line"/>
      <point x="561" y="-141"/>
      <point x="566" y="-193"/>
      <point x="566" y="-220" type="curve" smooth="yes"/>
      <point x="566" y="-305"/>
      <point x="531" y="-346"/>
      <point x="463" y="-346" type="curve" smooth="yes"/>
      <point x="397" y="-346"/>
      <point x="366" y="-307"/>
      <point x="364" y="-220" type="curve" smooth="yes"/>
      <point x="362" y="-128" type="line"/>
      <point x="338" y="-128" type="line"/>
      <point x="340" y="-158"/>
      <point x="345" y="-242"/>
      <point x="347" y="-271" type="curve" smooth="yes"/>
      <point x="351" y="-338"/>
      <point x="393" y="-379"/>
      <point x="466" y="-379" type="curve" smooth="yes"/>
      <point x="525" y="-379"/>
      <point x="572" y="-348"/>
      <point x="584" y="-277" type="curve"/>
      <point x="586" y="-277" type="line"/>
      <point x="587" y="-310"/>
      <point x="589" y="-451"/>
      <point x="590" y="-490" type="curve"/>
    </contour>
    <contour>
      <point x="163" y="-56" type="curve"/>
      <point x="128" y="-56" type="line"/>
      <point x="102" y="-92"/>
      <point x="90" y="-141"/>
      <point x="90" y="-193" type="curve" smooth="yes"/>
      <point x="90" y="-221" type="line" smooth="yes"/>
      <point x="90" y="-327"/>
      <point x="134" y="-379"/>
      <point x="224" y="-379" type="curve" smooth="yes"/>
      <point x="298" y="-379"/>
      <point x="342" y="-338"/>
      <point x="345" y="-271" type="curve"/>
      <point x="356" y="-271" type="line"/>
      <point x="342" y="-128" type="line"/>
      <point x="330" y="-128" type="line"/>
      <point x="328" y="-220" type="line" smooth="yes"/>
      <point x="326" y="-307"/>
      <point x="294" y="-346"/>
      <point x="227" y="-346" type="curve" smooth="yes"/>
      <point x="159" y="-346"/>
      <point x="125" y="-306"/>
      <point x="125" y="-220" type="curve" smooth="yes"/>
      <point x="125" y="-193" type="line" smooth="yes"/>
      <point x="125" y="-138"/>
      <point x="140" y="-91"/>
    </contour>
  </outline>
</glyph>
<glyph name="KaSsasmall.kn" format="2">
  <advance width="10"/>
  <outline>
    <contour>
      <point x="-8" y="-159" type="curve" smooth="yes"/>
      <point x="52" y="-159"/>
      <point x="83" y="-199"/>
      <point x="83" y="-276" type="curve" smooth="yes"/>
      <point x="83" y="-346" type="line" smooth="yes"/>
      <point x="83" y="-424"/>
      <point x="52" y="-465"/>
      <point x="-8" y="-465" type="curve" smooth="yes"/>
      <point x="-68" y="-465"/>
      <point x="-99" y="-424"/>
      <point x="-99" y="-346" type="curve" smooth="yes"/>
      <point x="-99" y="-276" type="line" smooth="yes"/>
      <point x="-99" y="-199"/>
      <point x="-68" y="-159"/>
    </contour>
    <contour>
      <point x="-74" y="-151" type="line"/>
      <point x="-74" y="-161" type="line"/>
      <point x="-114" y="-178"/>
      <point x="-131" y="-214"/>
      <point x="-131" y="-279" type="curve" smooth="yes"/>
      <point x="-131" y="-346" type="line" smooth="yes"/>
      <point x="-131" y="-443"/>
      <point x="-88" y="-495"/>
      <point x="-8" y="-495" type="curve" smooth="yes"/>
      <point x="72" y="-495"/>
      <point x="115" y="-443"/>
      <point x="115" y="-346" type="curve" smooth="yes"/>
      <point x="115" y="-279" type="line" smooth="yes"/>
      <point x="115" y="-214"/>
      <point x="98" y="-178"/>
      <point x="58" y="-161" type="curve"/>
      <point x="58" y="-151" type="line"/>
    </contour>
    <contour>
      <point x="-24" y="130" type="line"/>
      <point x="3" y="91"/>
      <point x="12" y="59"/>
      <point x="12" y="0" type="curve" smooth="yes"/>
      <point x="12" y="-13" type="line" smooth="yes"/>
      <point x="12" y="-71"/>
      <point x="-1" y="-111"/>
      <point x="-27" y="-131" type="curve"/>
      <point x="-149" y="-131" type="line"/>
      <point x="-149" y="-160" type="line"/>
      <point x="-57" y="-160" type="line"/>
      <point x="-55" y="-157" type="line"/>
      <point x="38" y="-157" type="line"/>
      <point x="40" y="-160" type="line"/>
      <point x="133" y="-160" type="line"/>
      <point x="133" y="-131" type="line"/>
      <point x="10" y="-131" type="line"/>
      <point x="31" y="-112"/>
      <point x="44" y="-70"/>
      <point x="44" y="-13" type="curve" smooth="yes"/>
      <point x="44" y="0" type="line" smooth="yes"/>
      <point x="44" y="60"/>
      <point x="34" y="97"/>
      <point x="9" y="130" type="curve"/>
    </contour>
    <contour>
      <point x="-88" y="-686" type="curve" smooth="yes"/>
      <point x="-129" y="-686"/>
      <point x="-151" y="-662"/>
      <point x="-151" y="-615" type="curve" smooth="yes"/>
      <point x="-151" y="-608" type="line" smooth="yes"/>
      <point x="-151" y="-572"/>
      <point x="-142" y="-540"/>
      <point x="-133" y="-519" type="curve"/>
      <point x="-164" y="-519" type="line"/>
      <point x="-174" y="-543"/>
      <point x="-182" y="-573"/>
      <point x="-182" y="-608" type="curve" smooth="yes"/>
      <point x="-182" y="-615" type="line" smooth="yes"/>
      <point x="-182" y="-680"/>
      <point x="-151" y="-715"/>
      <point x="-90" y="-715" type="curve" smooth="yes"/>
      <point x="-44" y="-715"/>
      <point x="-14" y="-687"/>
      <point x="-11" y="-642" type="curve"/>
      <point x="0" y="-642" type="line"/>
      <point x="-14" y="-559" type="line"/>
      <point x="-25" y="-559" type="line"/>
      <point x="-26" y="-608" type="line" smooth="yes"/>
      <point x="-27" y="-661"/>
      <point x="-48" y="-686"/>
    </contour>
    <contour>
      <point x="178" y="-769" type="line"/>
      <point x="171" y="-679"/>
      <point x="162" y="-604"/>
      <point x="147" y="-514" type="curve"/>
      <point x="118" y="-514" type="line"/>
      <point x="125" y="-555"/>
      <point x="127" y="-584"/>
      <point x="127" y="-610" type="curve" smooth="yes"/>
      <point x="127" y="-660"/>
      <point x="106" y="-686"/>
      <point x="66" y="-686" type="curve" smooth="yes"/>
      <point x="26" y="-686"/>
      <point x="6" y="-661"/>
      <point x="5" y="-608" type="curve" smooth="yes"/>
      <point x="4" y="-559" type="line"/>
      <point x="-19" y="-559" type="line"/>
      <point x="-10" y="-642" type="line"/>
      <point x="-7" y="-687"/>
      <point x="22" y="-715"/>
      <point x="66" y="-715" type="curve" smooth="yes"/>
      <point x="105" y="-715"/>
      <point x="138" y="-693"/>
      <point x="143" y="-645" type="curve"/>
      <point x="145" y="-645" type="line"/>
      <point x="145" y="-769" type="line"/>
    </contour>
  </outline>
  <guideline angle="0" x="0" y="-610"/>
</glyph>
<glyph name="LamatraU.kn" format="2">
  <advance width="1159"/>
  <outline>
    <component base="La.kn"/>
    <contour>
      <point x="863" y="1188" type="curve" smooth="yes"/>
      <point x="859" y="1188"/>
      <point x="854" y="1188"/>
      <point x="850" y="1188" type="curve"/>
      <point x="850" y="1155" type="line"/>
      <point x="853" y="1155"/>
      <point x="858" y="1155"/>
      <point x="861" y="1155" type="curve" smooth="yes"/>
      <point x="964" y="1155"/>
      <point x="1012" y="1085"/>
      <point x="1012" y="942" type="curve" smooth="yes"/>
      <point x="1012" y="226" type="line" smooth="yes"/>
      <point x="1012" y="87"/>
      <point x="965" y="19"/>
      <point x="871" y="19" type="curve" smooth="yes"/>
      <point x="763" y="19"/>
      <point x="711" y="89"/>
      <point x="711" y="230" type="curve" smooth="yes"/>
      <point x="711" y="352" type="line"/>
      <point x="685" y="352" type="line"/>
      <point x="685" y="219" type="line" smooth="yes"/>
      <point x="685" y="63"/>
      <point x="747" y="-14"/>
      <point x="871" y="-14" type="curve" smooth="yes"/>
      <point x="987" y="-14"/>
      <point x="1047" y="69"/>
      <point x="1047" y="227" type="curve" smooth="yes"/>
      <point x="1047" y="943" type="line" smooth="yes"/>
      <point x="1047" y="1108"/>
      <point x="988" y="1188"/>
    </contour>
  </outline>
  <guideline angle="90" x="783" y="0"/>
  <guideline angle="90" x="711" y="0"/>
  <guideline angle="90" x="1165" y="0"/>
</glyph>
<glyph name="Lasmall1.kn.1" format="2">
  <outline>
    <contour>
      <point x="-201" y="-511" type="line"/>
      <point x="-199" y="-279" type="line" smooth="yes"/>
      <point x="-198.379" y="-206.996"/>
      <point x="-172" y="-171"/>
      <point x="-118" y="-171" type="curve" smooth="yes"/>
      <point x="-64" y="-171"/>
      <point x="-37" y="-207"/>
      <point x="-37" y="-278" type="curve" smooth="yes"/>
      <point x="-37" y="-356" type="line" smooth="yes"/>
      <point x="-37" y="-464"/>
      <point x="-58" y="-529"/>
      <point x="-89" y="-584" type="curve"/>
      <point x="-55" y="-584" type="line"/>
      <point x="-21" y="-529"/>
      <point x="-5" y="-464"/>
      <point x="-5" y="-356" type="curve" smooth="yes"/>
      <point x="-5" y="-278" type="line" smooth="yes"/>
      <point x="-5" y="-188"/>
      <point x="-43" y="-141"/>
      <point x="-115" y="-141" type="curve" smooth="yes"/>
      <point x="-173" y="-141"/>
      <point x="-208" y="-173"/>
      <point x="-215" y="-231" type="curve"/>
      <point x="-216" y="-231" type="line"/>
      <point x="-223" y="-173"/>
      <point x="-258" y="-141"/>
      <point x="-316" y="-141" type="curve" smooth="yes"/>
      <point x="-388" y="-141"/>
      <point x="-426" y="-188"/>
      <point x="-426" y="-278" type="curve" smooth="yes"/>
      <point x="-426" y="-356" type="line" smooth="yes"/>
      <point x="-426" y="-464"/>
      <point x="-410" y="-529"/>
      <point x="-376" y="-584" type="curve"/>
      <point x="-342" y="-584" type="line"/>
      <point x="-373" y="-529"/>
      <point x="-394" y="-464"/>
      <point x="-394" y="-356" type="curve" smooth="yes"/>
      <point x="-394" y="-278" type="line" smooth="yes"/>
      <point x="-394" y="-207"/>
      <point x="-367" y="-171"/>
      <point x="-313" y="-171" type="curve" smooth="yes"/>
      <point x="-259" y="-171"/>
      <point x="-232.621" y="-206.996"/>
      <point x="-232" y="-279" type="curve" smooth="yes"/>
      <point x="-230" y="-511" type="line"/>
    </contour>
  </outline>
  <guideline angle="0" x="0" y="-439"/>
  <guideline angle="90" x="255" y="0"/>
</glyph>
<glyph name="LllaObsoleteHalant.kn" format="2">
  <advance width="1674"/>
  <outline>
    <component base="LllaObsolete.kn"/>
    <component base="Halant.kn" xOffset="1356"/>
    <contour>
      <point x="1177" y="886" type="line" smooth="yes"/>
      <point x="1177" y="1063"/>
      <point x="1128" y="1126"/>
      <point x="1071" y="1145" type="curve"/>
      <point x="1071" y="1167" type="line"/>
      <point x="963" y="1167" type="line"/>
      <point x="963" y="1146" type="line"/>
      <point x="1090" y="1146"/>
      <point x="1142" y="1070"/>
      <point x="1142" y="887" type="curve" smooth="yes"/>
      <point x="1142" y="794" type="line" smooth="yes"/>
      <point x="1142" y="671"/>
      <point x="1102" y="612"/>
      <point x="1015" y="612" type="curve" smooth="yes"/>
      <point x="957" y="612"/>
      <point x="910" y="636"/>
      <point x="882" y="682" type="curve"/>
      <point x="866" y="661" type="line"/>
      <point x="900" y="603"/>
      <point x="951" y="579"/>
      <point x="1015" y="579" type="curve" smooth="yes"/>
      <point x="1125" y="579"/>
      <point x="1177" y="648"/>
      <point x="1177" y="793" type="curve" smooth="yes"/>
    </contour>
    <contour>
      <point x="1065" y="1146" type="line"/>
      <point x="1065" y="1178" type="line"/>
      <point x="954" y="1178" type="line"/>
      <point x="954" y="1146" type="line"/>
    </contour>
  </outline>
  <guideline angle="90" x="1590" y="0"/>
  <guideline angle="0" x="0" y="537"/>
</glyph>
<glyph name="Nasmall1.kn" format="2">
  <advance width="61"/>
  <outline>
    <contour>
      <point x="-128" y="-236" type="curve" smooth="yes"/>
      <point x="-236" y="-236"/>
      <point x="-294" y="-288"/>
      <point x="-294" y="-383" type="curve" smooth="yes"/>
      <point x="-294" y="-387" type="line" smooth="yes"/>
      <point x="-294" y="-484"/>
      <point x="-236" y="-535"/>
      <point x="-128" y="-535" type="curve" smooth="yes"/>
      <point x="-14" y="-535"/>
      <point x="39" y="-471"/>
      <point x="63" y="-410" type="curve"/>
      <point x="68" y="-399" type="line"/>
      <point x="86" y="-354"/>
      <point x="92" y="-301"/>
      <point x="92" y="-232" type="curve" smooth="yes"/>
      <point x="92" y="-77"/>
      <point x="70" y="52"/>
      <point x="41" y="130" type="curve"/>
      <point x="7" y="130" type="line"/>
      <point x="39" y="44"/>
      <point x="59" y="-73"/>
      <point x="59" y="-232" type="curve" smooth="yes"/>
      <point x="59" y="-293"/>
      <point x="54" y="-330"/>
      <point x="46" y="-369" type="curve"/>
      <point x="44" y="-374" type="line"/>
      <point x="23" y="-438"/>
      <point x="-20" y="-503"/>
      <point x="-127" y="-503" type="curve" smooth="yes"/>
      <point x="-213" y="-503"/>
      <point x="-260" y="-463"/>
      <point x="-260" y="-387" type="curve" smooth="yes"/>
      <point x="-260" y="-383" type="line" smooth="yes"/>
      <point x="-260" y="-308"/>
      <point x="-213" y="-268"/>
      <point x="-127" y="-268" type="curve" smooth="yes"/>
      <point x="-41" y="-268"/>
      <point x="17" y="-310"/>
      <point x="46" y="-390" type="curve"/>
      <point x="62" y="-371" type="line"/>
      <point x="42" y="-285"/>
      <point x="-28" y="-236"/>
    </contour>
    <contour>
      <point x="131" y="-705" type="line"/>
      <point x="120" y="-597"/>
      <point x="102" y="-475"/>
      <point x="70" y="-376" type="curve"/>
      <point x="53" y="-409" type="line"/>
      <point x="77" y="-498"/>
      <point x="89" y="-616"/>
      <point x="96" y="-705" type="curve"/>
    </contour>
  </outline>
  <guideline angle="90" x="108" y="0"/>
  <guideline angle="90" x="83" y="0"/>
</glyph>
<glyph name="NgamatraAa.kn" format="2">
  <advance width="1534"/>
  <outline>
    <component base="matraAa.kn" xOffset="910"/>
    <contour>
      <point x="735" y="987" type="line" smooth="yes"/>
      <point x="735" y="1125"/>
      <point x="677" y="1196"/>
      <point x="566" y="1196" type="curve" smooth="yes"/>
      <point x="458" y="1196"/>
      <point x="404" y="1127"/>
      <point x="404" y="992" type="curve"/>
      <point x="429" y="987" type="line"/>
      <point x="429" y="1103"/>
      <point x="474" y="1163"/>
      <point x="566" y="1163" type="curve" smooth="yes"/>
      <point x="654" y="1163"/>
      <point x="700" y="1103"/>
      <point x="700" y="987" type="curve" smooth="yes"/>
      <point x="700" y="658" type="line"/>
      <point x="735" y="606"/>
      <point x="788" y="579"/>
      <point x="853" y="579" type="curve" smooth="yes"/>
      <point x="966" y="579"/>
      <point x="1020" y="648"/>
      <point x="1020" y="793" type="curve" smooth="yes"/>
      <point x="1020" y="886" type="line" smooth="yes"/>
      <point x="1020" y="1063"/>
      <point x="971" y="1126"/>
      <point x="914" y="1145" type="curve"/>
      <point x="914" y="1167" type="line"/>
      <point x="806" y="1167" type="line"/>
      <point x="806" y="1146" type="line"/>
      <point x="933" y="1146"/>
      <point x="985" y="1070"/>
      <point x="985" y="887" type="curve" smooth="yes"/>
      <point x="985" y="794" type="line" smooth="yes"/>
      <point x="985" y="671"/>
      <point x="943" y="612"/>
      <point x="853" y="612" type="curve" smooth="yes"/>
      <point x="803" y="612"/>
      <point x="759" y="633"/>
      <point x="735" y="670" type="curve"/>
    </contour>
    <contour>
      <point x="908" y="1146" type="line"/>
      <point x="908" y="1178" type="line"/>
      <point x="787" y="1178" type="line"/>
      <point x="787" y="1146" type="line"/>
    </contour>
    <contour>
      <point x="713" y="216" type="line" smooth="yes"/>
      <point x="713" y="83"/>
      <point x="668" y="19"/>
      <point x="575" y="19" type="curve" smooth="yes"/>
      <point x="483" y="19"/>
      <point x="440" y="81"/>
      <point x="439" y="217" type="curve" smooth="yes"/>
      <point x="437" y="411" type="line"/>
      <point x="418" y="411" type="line"/>
      <point x="422" y="142" type="line"/>
      <point x="429" y="39"/>
      <point x="485" y="-14"/>
      <point x="576" y="-14" type="curve" smooth="yes"/>
      <point x="690" y="-14"/>
      <point x="748" y="57"/>
      <point x="748" y="215" type="curve" smooth="yes"/>
      <point x="748" y="252" type="line" smooth="yes"/>
      <point x="748" y="321"/>
      <point x="740" y="386"/>
      <point x="722" y="443" type="curve"/>
      <point x="687" y="443" type="line"/>
      <point x="705" y="386"/>
      <point x="713" y="321"/>
      <point x="713" y="253" type="curve" smooth="yes"/>
    </contour>
    <contour>
      <point x="266" y="1196" type="curve" smooth="yes"/>
      <point x="158" y="1196"/>
      <point x="103" y="1129"/>
      <point x="103" y="999" type="curve" smooth="yes"/>
      <point x="103" y="912" type="line" smooth="yes"/>
      <point x="103" y="829"/>
      <point x="120" y="748"/>
      <point x="143" y="701" type="curve"/>
      <point x="180" y="701" type="line"/>
      <point x="154" y="750"/>
      <point x="138" y="824"/>
      <point x="138" y="914" type="curve" smooth="yes"/>
      <point x="138" y="999" type="line" smooth="yes"/>
      <point x="138" y="1107"/>
      <point x="181" y="1163"/>
      <point x="266" y="1163" type="curve" smooth="yes"/>
      <point x="350" y="1163"/>
      <point x="394" y="1107"/>
      <point x="394" y="999" type="curve" smooth="yes"/>
      <point x="394" y="925" type="line" smooth="yes"/>
      <point x="394" y="797"/>
      <point x="354" y="725"/>
      <point x="280" y="641" type="curve" smooth="yes"/>
      <point x="211" y="562" type="line" smooth="yes"/>
      <point x="126" y="465"/>
      <point x="82" y="392"/>
      <point x="82" y="254" type="curve" smooth="yes"/>
      <point x="82" y="217" type="line" smooth="yes"/>
      <point x="82" y="58"/>
      <point x="141" y="-14"/>
      <point x="260" y="-14" type="curve" smooth="yes"/>
      <point x="355" y="-14"/>
      <point x="413" y="39"/>
      <point x="420" y="142" type="curve"/>
      <point x="424" y="142" type="line"/>
      <point x="424" y="411" type="line"/>
      <point x="405" y="411" type="line"/>
      <point x="403" y="217" type="line" smooth="yes"/>
      <point x="402" y="81"/>
      <point x="357" y="19"/>
      <point x="261" y="19" type="curve" smooth="yes"/>
      <point x="165" y="19"/>
      <point x="117" y="81"/>
      <point x="117" y="218" type="curve" smooth="yes"/>
      <point x="117" y="254" type="line" smooth="yes"/>
      <point x="117" y="378"/>
      <point x="156" y="448"/>
      <point x="237" y="540" type="curve" smooth="yes"/>
      <point x="305" y="618" type="line" smooth="yes"/>
      <point x="383" y="708"/>
      <point x="429" y="787"/>
      <point x="429" y="924" type="curve" smooth="yes"/>
      <point x="429" y="999" type="line" smooth="yes"/>
      <point x="429" y="1129"/>
      <point x="373" y="1196"/>
    </contour>
    <contour>
      <point x="537" y="491" type="curve" smooth="yes"/>
      <point x="553" y="491"/>
      <point x="557" y="509"/>
      <point x="557" y="567" type="curve" smooth="yes"/>
      <point x="557" y="714" type="line" smooth="yes"/>
      <point x="557" y="772"/>
      <point x="553" y="790"/>
      <point x="537" y="790" type="curve" smooth="yes"/>
      <point x="521" y="790"/>
      <point x="517" y="772"/>
      <point x="517" y="714" type="curve" smooth="yes"/>
      <point x="517" y="567" type="line" smooth="yes"/>
      <point x="517" y="509"/>
      <point x="521" y="491"/>
    </contour>
  </outline>
  <guideline angle="0" x="0" y="798"/>
</glyph>
<glyph name="NnaHalant.kn" format="2">
  <advance width="1258"/>
  <outline>
    <contour>
      <point x="639" y="1146" type="line"/>
      <point x="639" y="1178" type="line"/>
      <point x="102" y="1178" type="line"/>
      <point x="102" y="1146" type="line"/>
    </contour>
    <contour>
      <point x="774" y="463.66" type="line"/>
      <point x="774" y="820" type="line" smooth="yes"/>
      <point x="774" y="982"/>
      <point x="716" y="1056"/>
      <point x="598" y="1056" type="curve" smooth="yes"/>
      <point x="505" y="1056"/>
      <point x="450" y="1004"/>
      <point x="440" y="905" type="curve"/>
      <point x="438" y="905" type="line"/>
      <point x="428" y="1004"/>
      <point x="372" y="1056"/>
      <point x="278" y="1056" type="curve" smooth="yes"/>
      <point x="162" y="1056"/>
      <point x="102" y="982"/>
      <point x="102" y="822" type="curve" smooth="yes"/>
      <point x="102" y="720" type="line" smooth="yes"/>
      <point x="102" y="593"/>
      <point x="137" y="519"/>
      <point x="237" y="504" type="curve"/>
      <point x="237" y="502" type="line"/>
      <point x="135" y="486"/>
      <point x="102" y="413"/>
      <point x="102" y="287" type="curve" smooth="yes"/>
      <point x="102" y="209" type="line" smooth="yes"/>
      <point x="102" y="48"/>
      <point x="154" y="-14"/>
      <point x="275" y="-14" type="curve" smooth="yes"/>
      <point x="302" y="-14"/>
      <point x="331" y="-8"/>
      <point x="349" y="-1" type="curve"/>
      <point x="354" y="33" type="line"/>
      <point x="332" y="24"/>
      <point x="304" y="19"/>
      <point x="275" y="19" type="curve" smooth="yes"/>
      <point x="179" y="19"/>
      <point x="137" y="71"/>
      <point x="137" y="210" type="curve" smooth="yes"/>
      <point x="137" y="287" type="line" smooth="yes"/>
      <point x="137" y="425"/>
      <point x="177" y="484"/>
      <point x="291" y="487" type="curve" smooth="yes"/>
      <point x="326" y="488" type="line"/>
      <point x="326" y="519" type="line"/>
      <point x="291" y="520" type="line" smooth="yes"/>
      <point x="177" y="523"/>
      <point x="137" y="582"/>
      <point x="137" y="720" type="curve" smooth="yes"/>
      <point x="137" y="821" type="line" smooth="yes"/>
      <point x="137" y="959"/>
      <point x="186" y="1023"/>
      <point x="278" y="1023" type="curve" smooth="yes"/>
      <point x="374" y="1023"/>
      <point x="419" y="959"/>
      <point x="421" y="820" type="curve" smooth="yes"/>
      <point x="423" y="678" type="line"/>
      <point x="455" y="678" type="line"/>
      <point x="457" y="820" type="line" smooth="yes"/>
      <point x="459" y="959"/>
      <point x="503" y="1023"/>
      <point x="598" y="1023" type="curve" smooth="yes"/>
      <point x="692" y="1023"/>
      <point x="739" y="959"/>
      <point x="739" y="819" type="curve" smooth="yes"/>
      <point x="739" y="463.935" type="line"/>
    </contour>
    <contour>
      <point x="739" y="465.935" type="line"/>
      <point x="739" y="208" type="line" smooth="yes"/>
      <point x="739" y="80"/>
      <point x="698" y="19"/>
      <point x="612" y="19" type="curve" smooth="yes"/>
      <point x="526" y="19"/>
      <point x="485" y="80"/>
      <point x="485" y="208" type="curve" smooth="yes"/>
      <point x="485" y="381" type="line" smooth="yes"/>
      <point x="485" y="513"/>
      <point x="534" y="550"/>
      <point x="605" y="550" type="curve" smooth="yes"/>
      <point x="686.752" y="550"/>
      <point x="729.672" y="496"/>
      <point x="745" y="393" type="curve"/>
      <point x="742" y="488" type="line"/>
      <point x="738" y="488" type="line"/>
      <point x="722" y="539"/>
      <point x="681" y="583"/>
      <point x="605" y="583" type="curve" smooth="yes"/>
      <point x="501" y="583"/>
      <point x="450" y="521"/>
      <point x="450" y="381" type="curve" smooth="yes"/>
      <point x="450" y="205" type="line" smooth="yes"/>
      <point x="450" y="57"/>
      <point x="503" y="-14"/>
      <point x="612" y="-14" type="curve" smooth="yes"/>
      <point x="721" y="-14"/>
      <point x="774" y="57"/>
      <point x="774" y="205" type="curve" smooth="yes"/>
      <point x="774" y="465.66" type="line"/>
    </contour>
    <contour>
      <point x="949" y="1165" type="line"/>
      <point x="949" y="1262" type="line" smooth="yes"/>
      <point x="949" y="1398"/>
      <point x="992" y="1458"/>
      <point x="1090" y="1458" type="curve" smooth="yes"/>
      <point x="1124" y="1458"/>
      <point x="1158" y="1454"/>
      <point x="1201" y="1433" type="curve"/>
      <point x="1196" y="1468" type="line"/>
      <point x="1160" y="1484"/>
      <point x="1126" y="1491"/>
      <point x="1086" y="1491" type="curve" smooth="yes"/>
      <point x="972" y="1491"/>
      <point x="914" y="1418"/>
      <point x="914" y="1263" type="curve" smooth="yes"/>
      <point x="914" y="1165" type="line"/>
    </contour>
    <contour>
      <point x="1063" y="663" type="curve" smooth="yes"/>
      <point x="1164" y="663"/>
      <point x="1212" y="725"/>
      <point x="1212" y="848" type="curve" smooth="yes"/>
      <point x="1212" y="971" type="line" smooth="yes"/>
      <point x="1212" y="1120"/>
      <point x="1163" y="1178"/>
      <point x="1016" y="1178" type="curve" smooth="yes"/>
      <point x="551" y="1178" type="line"/>
      <point x="551" y="1146" type="line"/>
      <point x="927" y="1146" type="line"/>
      <point x="938" y="1146" type="line"/>
      <point x="1016" y="1146" type="line" smooth="yes"/>
      <point x="1139" y="1146"/>
      <point x="1177" y="1096"/>
      <point x="1177" y="969" type="curve" smooth="yes"/>
      <point x="1177" y="849" type="line" smooth="yes"/>
      <point x="1177" y="746"/>
      <point x="1141" y="696"/>
      <point x="1063" y="696" type="curve" smooth="yes"/>
      <point x="986" y="696"/>
      <point x="949" y="746"/>
      <point x="949" y="849" type="curve" smooth="yes"/>
      <point x="949" y="1168" type="line"/>
      <point x="914" y="1168" type="line"/>
      <point x="914" y="848" type="line" smooth="yes"/>
      <point x="914" y="725"/>
      <point x="963" y="663"/>
    </contour>
  </outline>
  <guideline angle="90" x="1195" y="0"/>
  <guideline angle="0" x="0" y="1808"/>
</glyph>
<glyph name="NnamatraE.kn" format="2">
  <advance width="886"/>
  <outline>
    <contour>
      <point x="639" y="1146" type="line"/>
      <point x="639" y="1178" type="line"/>
      <point x="102" y="1178" type="line"/>
      <point x="102" y="1146" type="line"/>
    </contour>
    <contour>
      <point x="774" y="463.66" type="line"/>
      <point x="774" y="820" type="line" smooth="yes"/>
      <point x="774" y="982"/>
      <point x="716" y="1056"/>
      <point x="598" y="1056" type="curve" smooth="yes"/>
      <point x="505" y="1056"/>
      <point x="450" y="1004"/>
      <point x="440" y="905" type="curve"/>
      <point x="438" y="905" type="line"/>
      <point x="428" y="1004"/>
      <point x="372" y="1056"/>
      <point x="278" y="1056" type="curve" smooth="yes"/>
      <point x="162" y="1056"/>
      <point x="102" y="982"/>
      <point x="102" y="822" type="curve" smooth="yes"/>
      <point x="102" y="720" type="line" smooth="yes"/>
      <point x="102" y="593"/>
      <point x="137" y="519"/>
      <point x="237" y="504" type="curve"/>
      <point x="237" y="502" type="line"/>
      <point x="135" y="486"/>
      <point x="102" y="413"/>
      <point x="102" y="287" type="curve" smooth="yes"/>
      <point x="102" y="209" type="line" smooth="yes"/>
      <point x="102" y="48"/>
      <point x="154" y="-14"/>
      <point x="275" y="-14" type="curve" smooth="yes"/>
      <point x="302" y="-14"/>
      <point x="331" y="-8"/>
      <point x="349" y="-1" type="curve"/>
      <point x="354" y="33" type="line"/>
      <point x="332" y="24"/>
      <point x="304" y="19"/>
      <point x="275" y="19" type="curve" smooth="yes"/>
      <point x="179" y="19"/>
      <point x="137" y="71"/>
      <point x="137" y="210" type="curve" smooth="yes"/>
      <point x="137" y="287" type="line" smooth="yes"/>
      <point x="137" y="425"/>
      <point x="177" y="484"/>
      <point x="291" y="487" type="curve" smooth="yes"/>
      <point x="326" y="488" type="line"/>
      <point x="326" y="519" type="line"/>
      <point x="291" y="520" type="line" smooth="yes"/>
      <point x="177" y="523"/>
      <point x="137" y="582"/>
      <point x="137" y="720" type="curve" smooth="yes"/>
      <point x="137" y="821" type="line" smooth="yes"/>
      <point x="137" y="959"/>
      <point x="186" y="1023"/>
      <point x="278" y="1023" type="curve" smooth="yes"/>
      <point x="374" y="1023"/>
      <point x="419" y="959"/>
      <point x="421" y="820" type="curve" smooth="yes"/>
      <point x="423" y="678" type="line"/>
      <point x="455" y="678" type="line"/>
      <point x="457" y="820" type="line" smooth="yes"/>
      <point x="459" y="959"/>
      <point x="503" y="1023"/>
      <point x="598" y="1023" type="curve" smooth="yes"/>
      <point x="692" y="1023"/>
      <point x="739" y="959"/>
      <point x="739" y="819" type="curve" smooth="yes"/>
      <point x="739" y="463.935" type="line"/>
    </contour>
    <contour>
      <point x="739" y="465.935" type="line"/>
      <point x="739" y="208" type="line" smooth="yes"/>
      <point x="739" y="80"/>
      <point x="698" y="19"/>
      <point x="612" y="19" type="curve" smooth="yes"/>
      <point x="526" y="19"/>
      <point x="485" y="80"/>
      <point x="485" y="208" type="curve" smooth="yes"/>
      <point x="485" y="381" type="line" smooth="yes"/>
      <point x="485" y="513"/>
      <point x="534" y="550"/>
      <point x="605" y="550" type="curve" smooth="yes"/>
      <point x="686.752" y="550"/>
      <point x="729.672" y="496"/>
      <point x="745" y="393" type="curve"/>
      <point x="742" y="488" type="line"/>
      <point x="738" y="488" type="line"/>
      <point x="722" y="539"/>
      <point x="681" y="583"/>
      <point x="605" y="583" type="curve" smooth="yes"/>
      <point x="501" y="583"/>
      <point x="450" y="521"/>
      <point x="450" y="381" type="curve" smooth="yes"/>
      <point x="450" y="205" type="line" smooth="yes"/>
      <point x="450" y="57"/>
      <point x="503" y="-14"/>
      <point x="612" y="-14" type="curve" smooth="yes"/>
      <point x="721" y="-14"/>
      <point x="774" y="57"/>
      <point x="774" y="205" type="curve" smooth="yes"/>
      <point x="774" y="465.66" type="line"/>
    </contour>
    <contour>
      <point x="641" y="1146" type="line" smooth="yes"/>
      <point x="753" y="1146"/>
      <point x="804" y="1207"/>
      <point x="804" y="1340" type="curve" smooth="yes"/>
      <point x="804" y="1433" type="line" smooth="yes"/>
      <point x="804" y="1549"/>
      <point x="759" y="1604"/>
      <point x="666" y="1604" type="curve" smooth="yes"/>
      <point x="573" y="1604"/>
      <point x="528" y="1549"/>
      <point x="528" y="1433" type="curve" smooth="yes"/>
      <point x="528" y="1406" type="line" smooth="yes"/>
      <point x="528" y="1361"/>
      <point x="538" y="1314"/>
      <point x="554" y="1284" type="curve"/>
      <point x="591" y="1284" type="line"/>
      <point x="573" y="1317"/>
      <point x="563" y="1358"/>
      <point x="563" y="1408" type="curve" smooth="yes"/>
      <point x="563" y="1432" type="line" smooth="yes"/>
      <point x="563" y="1527"/>
      <point x="596" y="1571"/>
      <point x="666" y="1571" type="curve" smooth="yes"/>
      <point x="736" y="1571"/>
      <point x="769" y="1527"/>
      <point x="769" y="1432" type="curve" smooth="yes"/>
      <point x="769" y="1340" type="line" smooth="yes"/>
      <point x="769" y="1227"/>
      <point x="730" y="1178"/>
      <point x="639" y="1178" type="curve" smooth="yes"/>
      <point x="553" y="1178" type="line"/>
      <point x="553" y="1146" type="line"/>
    </contour>
  </outline>
</glyph>
<glyph name="Nnasmall1.kn" format="2">
  <outline>
    <contour>
      <point x="77" y="-465.393" type="line"/>
      <point x="77" y="-259" type="line" smooth="yes"/>
      <point x="77" y="-175"/>
      <point x="40" y="-132"/>
      <point x="-29" y="-132" type="curve" smooth="yes"/>
      <point x="-87" y="-132"/>
      <point x="-119" y="-164"/>
      <point x="-122" y="-217" type="curve"/>
      <point x="-124" y="-217" type="line"/>
      <point x="-127" y="-164"/>
      <point x="-158" y="-132"/>
      <point x="-217" y="-132" type="curve" smooth="yes"/>
      <point x="-286" y="-132"/>
      <point x="-322" y="-175"/>
      <point x="-322" y="-259" type="curve" smooth="yes"/>
      <point x="-322" y="-309" type="line" smooth="yes"/>
      <point x="-322" y="-382"/>
      <point x="-297" y="-419"/>
      <point x="-244" y="-427" type="curve"/>
      <point x="-244" y="-427"/>
      <point x="-244" y="-428"/>
      <point x="-244" y="-428" type="curve"/>
      <point x="-298" y="-436"/>
      <point x="-323" y="-472"/>
      <point x="-323" y="-545" type="curve" smooth="yes"/>
      <point x="-323" y="-578" type="line" smooth="yes"/>
      <point x="-323" y="-664"/>
      <point x="-289" y="-705"/>
      <point x="-220" y="-705" type="curve" smooth="yes"/>
      <point x="-204" y="-705"/>
      <point x="-187" y="-703"/>
      <point x="-175" y="-699" type="curve"/>
      <point x="-172" y="-669" type="line"/>
      <point x="-184" y="-671"/>
      <point x="-201" y="-675"/>
      <point x="-217" y="-675" type="curve" smooth="yes"/>
      <point x="-268" y="-675"/>
      <point x="-291" y="-645"/>
      <point x="-291" y="-576" type="curve" smooth="yes"/>
      <point x="-291" y="-547" type="line" smooth="yes"/>
      <point x="-291" y="-478"/>
      <point x="-266" y="-446"/>
      <point x="-207" y="-443" type="curve" smooth="yes"/>
      <point x="-185" y="-442" type="line"/>
      <point x="-185" y="-413" type="line"/>
      <point x="-207" y="-412" type="line" smooth="yes"/>
      <point x="-265" y="-409"/>
      <point x="-290" y="-377"/>
      <point x="-290" y="-308" type="curve" smooth="yes"/>
      <point x="-290" y="-260" type="line" smooth="yes"/>
      <point x="-290" y="-194"/>
      <point x="-264" y="-162"/>
      <point x="-214" y="-162" type="curve" smooth="yes"/>
      <point x="-164" y="-162"/>
      <point x="-142" y="-193"/>
      <point x="-140" y="-260" type="curve" smooth="yes"/>
      <point x="-138" y="-337" type="line"/>
      <point x="-108" y="-337" type="line"/>
      <point x="-106" y="-260" type="line" smooth="yes"/>
      <point x="-104" y="-193"/>
      <point x="-81" y="-162"/>
      <point x="-32" y="-162" type="curve" smooth="yes"/>
      <point x="18" y="-162"/>
      <point x="45" y="-194"/>
      <point x="45" y="-260" type="curve" smooth="yes"/>
      <point x="45" y="-462.709" type="line"/>
    </contour>
    <contour>
      <point x="45" y="-459.709" type="line"/>
      <point x="45" y="-588" type="line" smooth="yes"/>
      <point x="45" y="-647"/>
      <point x="23" y="-675"/>
      <point x="-21" y="-675" type="curve" smooth="yes"/>
      <point x="-64" y="-675"/>
      <point x="-85" y="-647"/>
      <point x="-85" y="-588" type="curve" smooth="yes"/>
      <point x="-85" y="-508" type="line" smooth="yes"/>
      <point x="-85" y="-456"/>
      <point x="-64" y="-430"/>
      <point x="-23" y="-430" type="curve" smooth="yes"/>
      <point x="17" y="-430"/>
      <point x="40" y="-454"/>
      <point x="47" y="-496" type="curve"/>
      <point x="48" y="-447" type="line"/>
      <point x="44" y="-447" type="line"/>
      <point x="35" y="-421"/>
      <point x="12" y="-400"/>
      <point x="-27" y="-400" type="curve" smooth="yes"/>
      <point x="-86" y="-400"/>
      <point x="-117" y="-438"/>
      <point x="-117" y="-508" type="curve" smooth="yes"/>
      <point x="-117" y="-589" type="line" smooth="yes"/>
      <point x="-117" y="-667"/>
      <point x="-85" y="-705"/>
      <point x="-21" y="-705" type="curve" smooth="yes"/>
      <point x="43" y="-705"/>
      <point x="77" y="-666"/>
      <point x="77" y="-588" type="curve" smooth="yes"/>
      <point x="77" y="-462.393" type="line"/>
    </contour>
  </outline>
</glyph>
<glyph name="NyamatraAu.kn" format="2">
  <advance width="1801"/>
  <outline>
    <contour>
      <point x="951" y="977" type="curve" smooth="yes"/>
      <point x="951" y="658" type="line"/>
      <point x="986" y="606"/>
      <point x="1039" y="579"/>
      <point x="1104" y="579" type="curve" smooth="yes"/>
      <point x="1217" y="579"/>
      <point x="1271" y="648"/>
      <point x="1271" y="793" type="curve" smooth="yes"/>
      <point x="1271" y="886" type="line" smooth="yes"/>
      <point x="1271" y="1063"/>
      <point x="1222" y="1126"/>
      <point x="1165" y="1145" type="curve"/>
      <point x="1165" y="1167" type="line"/>
      <point x="1057" y="1167" type="line"/>
      <point x="1057" y="1146" type="line"/>
      <point x="1184" y="1146"/>
      <point x="1236" y="1070"/>
      <point x="1236" y="887" type="curve" smooth="yes"/>
      <point x="1236" y="794" type="line" smooth="yes"/>
      <point x="1236" y="671"/>
      <point x="1194" y="612"/>
      <point x="1104" y="612" type="curve" smooth="yes"/>
      <point x="1054" y="612"/>
      <point x="1010" y="633"/>
      <point x="986" y="670" type="curve"/>
      <point x="986" y="978" type="line" smooth="yes"/>
      <point x="986" y="1129"/>
      <point x="932" y="1196"/>
      <point x="826" y="1196" type="curve" smooth="yes"/>
      <point x="743" y="1196"/>
      <point x="694" y="1153"/>
      <point x="683" y="1070" type="curve"/>
      <point x="679" y="1070" type="line"/>
      <point x="681" y="706" type="line"/>
      <point x="698" y="706" type="line"/>
      <point x="698" y="977" type="line" smooth="yes"/>
      <point x="698" y="1105"/>
      <point x="739" y="1163"/>
      <point x="825" y="1163" type="curve" smooth="yes"/>
      <point x="908" y="1163"/>
      <point x="951" y="1106"/>
    </contour>
    <contour>
      <point x="1159" y="1146" type="line"/>
      <point x="1159" y="1178" type="line"/>
      <point x="1048" y="1178" type="line"/>
      <point x="1048" y="1146" type="line"/>
    </contour>
    <contour>
      <point x="749" y="-157" type="line"/>
      <point x="726" y="-29"/>
      <point x="698" y="120"/>
      <point x="673" y="248" type="curve"/>
      <point x="655" y="203" type="line"/>
      <point x="669" y="94"/>
      <point x="696" y="-48"/>
      <point x="713" y="-157" type="curve"/>
    </contour>
    <contour>
      <point x="535" y="1163" type="curve" smooth="yes"/>
      <point x="620" y="1163"/>
      <point x="663" y="1103"/>
      <point x="663" y="971" type="curve" smooth="yes"/>
      <point x="663" y="515" type="line" smooth="yes"/>
      <point x="663" y="425"/>
      <point x="660" y="333"/>
      <point x="649" y="264" type="curve"/>
      <point x="646" y="256" type="line"/>
      <point x="616" y="132"/>
      <point x="551" y="19"/>
      <point x="390" y="19" type="curve" smooth="yes"/>
      <point x="246" y="19"/>
      <point x="171" y="92"/>
      <point x="171" y="233" type="curve" smooth="yes"/>
      <point x="171" y="241" type="line" smooth="yes"/>
      <point x="171" y="382"/>
      <point x="244" y="455"/>
      <point x="385" y="455" type="curve" smooth="yes"/>
      <point x="518" y="455"/>
      <point x="599" y="383"/>
      <point x="644" y="234" type="curve"/>
      <point x="657" y="273" type="line"/>
      <point x="626" y="404"/>
      <point x="532" y="488"/>
      <point x="387" y="488" type="curve" smooth="yes"/>
      <point x="221" y="488"/>
      <point x="136" y="404"/>
      <point x="136" y="241" type="curve" smooth="yes"/>
      <point x="136" y="233" type="line" smooth="yes"/>
      <point x="136" y="70"/>
      <point x="222" y="-14"/>
      <point x="390" y="-14" type="curve" smooth="yes"/>
      <point x="552" y="-14"/>
      <point x="631" y="91"/>
      <point x="665" y="209" type="curve"/>
      <point x="672" y="224" type="line"/>
      <point x="692" y="304"/>
      <point x="698" y="415"/>
      <point x="698" y="517" type="curve" smooth="yes"/>
      <point x="698" y="972" type="line"/>
      <point x="691.76" y="1010.22"/>
      <point x="688.24" y="1031.78"/>
      <point x="682" y="1070" type="curve"/>
      <point x="665" y="1157"/>
      <point x="614" y="1196"/>
      <point x="535" y="1196" type="curve" smooth="yes"/>
      <point x="449" y="1196"/>
      <point x="398" y="1148"/>
      <point x="389" y="1057" type="curve"/>
      <point x="387" y="1057" type="line"/>
      <point x="378" y="1148"/>
      <point x="328" y="1196"/>
      <point x="243" y="1196" type="curve" smooth="yes"/>
      <point x="136" y="1196"/>
      <point x="82" y="1129"/>
      <point x="82" y="978" type="curve" smooth="yes"/>
      <point x="82" y="910" type="line" smooth="yes"/>
      <point x="82" y="801"/>
      <point x="97" y="734"/>
      <point x="122" y="680" type="curve"/>
      <point x="159" y="680" type="line"/>
      <point x="133" y="733"/>
      <point x="117" y="801"/>
      <point x="117" y="912" type="curve" smooth="yes"/>
      <point x="117" y="977" type="line" smooth="yes"/>
      <point x="117" y="1106"/>
      <point x="160" y="1163"/>
      <point x="243" y="1163" type="curve" smooth="yes"/>
      <point x="329" y="1163"/>
      <point x="369" y="1103"/>
      <point x="370" y="972" type="curve" smooth="yes"/>
      <point x="372" y="706" type="line"/>
      <point x="404" y="706" type="line"/>
      <point x="406" y="972" type="line" smooth="yes"/>
      <point x="407" y="1103"/>
      <point x="448" y="1163"/>
    </contour>
    <contour>
      <point x="1178" y="1146" type="line" smooth="yes"/>
      <point x="1289" y="1146"/>
      <point x="1343" y="1209"/>
      <point x="1343" y="1327" type="curve" smooth="yes"/>
      <point x="1343" y="1339" type="line" smooth="yes"/>
      <point x="1343" y="1423"/>
      <point x="1309" y="1477"/>
      <point x="1254" y="1489" type="curve"/>
      <point x="1254" y="1506" type="line"/>
      <point x="1174" y="1506" type="line"/>
      <point x="1174" y="1505.69"/>
      <point x="1174" y="1490.25"/>
      <point x="1174" y="1490" type="curve"/>
      <point x="1264" y="1490"/>
      <point x="1308" y="1438"/>
      <point x="1308" y="1339" type="curve" smooth="yes"/>
      <point x="1308" y="1329" type="line" smooth="yes"/>
      <point x="1308" y="1230"/>
      <point x="1264" y="1178"/>
      <point x="1174" y="1178" type="curve" smooth="yes"/>
      <point x="1149" y="1178" type="line"/>
      <point x="1149" y="1146" type="line"/>
    </contour>
    <contour>
      <point x="1709" y="1065.16" type="line"/>
      <point x="1709" y="765" type="line" smooth="yes"/>
      <point x="1709" y="648"/>
      <point x="1671" y="591"/>
      <point x="1592" y="591" type="curve" smooth="yes"/>
      <point x="1513" y="591"/>
      <point x="1475" y="648"/>
      <point x="1475" y="765" type="curve" smooth="yes"/>
      <point x="1475" y="981" type="line" smooth="yes"/>
      <point x="1475" y="1101"/>
      <point x="1520" y="1134"/>
      <point x="1585" y="1134" type="curve" smooth="yes"/>
      <point x="1664" y="1134"/>
      <point x="1702.59" y="1082.78"/>
      <point x="1716" y="994" type="curve"/>
      <point x="1716" y="1087" type="line"/>
      <point x="1708" y="1087" type="line"/>
      <point x="1693" y="1128"/>
      <point x="1655" y="1167"/>
      <point x="1585" y="1167" type="curve" smooth="yes"/>
      <point x="1488" y="1167"/>
      <point x="1440" y="1110"/>
      <point x="1440" y="981" type="curve" smooth="yes"/>
      <point x="1440" y="762" type="line" smooth="yes"/>
      <point x="1440" y="625"/>
      <point x="1490" y="558"/>
      <point x="1592" y="558" type="curve" smooth="yes"/>
      <point x="1694" y="558"/>
      <point x="1744" y="625"/>
      <point x="1744" y="762" type="curve" smooth="yes"/>
      <point x="1744" y="1057.39" type="line"/>
    </contour>
    <contour>
      <point x="1084" y="1521" type="line"/>
      <point x="1084" y="1490" type="line"/>
      <point x="1428" y="1490" type="line" smooth="yes"/>
      <point x="1623" y="1490"/>
      <point x="1709" y="1390"/>
      <point x="1709" y="1153" type="curve" smooth="yes"/>
      <point x="1709" y="1060.16" type="line"/>
      <point x="1744" y="1052.39" type="line"/>
      <point x="1744" y="1154" type="line" smooth="yes"/>
      <point x="1744" y="1408"/>
      <point x="1648" y="1521"/>
      <point x="1430" y="1521" type="curve" smooth="yes"/>
    </contour>
  </outline>
</glyph>
<glyph name="NyamatraO.kn" format="2">
  <advance width="2121"/>
  <outline>
    <component base="NyamatraE.kn"/>
    <contour>
      <point x="1735" y="1196" type="curve" smooth="yes"/>
      <point x="1552" y="1196"/>
      <point x="1461" y="1089"/>
      <point x="1461" y="877" type="curve" smooth="yes"/>
      <point x="1461" y="579.006" type="line"/>
      <point x="1496" y="579.006" type="line"/>
      <point x="1496" y="877" type="line" smooth="yes"/>
      <point x="1496" y="1065"/>
      <point x="1576" y="1163"/>
      <point x="1735" y="1163" type="curve" smooth="yes"/>
      <point x="1893" y="1163"/>
      <point x="1974" y="1064"/>
      <point x="1974" y="876" type="curve" smooth="yes"/>
      <point x="1974" y="547.25" type="line"/>
      <point x="2009" y="545.294" type="line"/>
      <point x="2009" y="877" type="line" smooth="yes"/>
      <point x="2009" y="1089"/>
      <point x="1917" y="1196"/>
    </contour>
    <contour>
      <point x="2009" y="555.294" type="line"/>
      <point x="1974" y="557.25" type="line"/>
      <point x="1974" y="208" type="line" smooth="yes"/>
      <point x="1974" y="80"/>
      <point x="1933" y="19"/>
      <point x="1846" y="19" type="curve" smooth="yes"/>
      <point x="1759" y="19"/>
      <point x="1718" y="80"/>
      <point x="1718" y="208" type="curve" smooth="yes"/>
      <point x="1718" y="473" type="line" smooth="yes"/>
      <point x="1718" y="605"/>
      <point x="1767" y="642"/>
      <point x="1839" y="642" type="curve" smooth="yes"/>
      <point x="1922.18" y="642"/>
      <point x="1962.79" y="589.364"/>
      <point x="1979" y="489" type="curve"/>
      <point x="1979" y="580" type="line"/>
      <point x="1973" y="580" type="line"/>
      <point x="1957" y="631"/>
      <point x="1916" y="675"/>
      <point x="1839" y="675" type="curve" smooth="yes"/>
      <point x="1734" y="675"/>
      <point x="1683" y="613"/>
      <point x="1683" y="473" type="curve" smooth="yes"/>
      <point x="1683" y="205" type="line" smooth="yes"/>
      <point x="1683" y="57"/>
      <point x="1736" y="-14"/>
      <point x="1846" y="-14" type="curve" smooth="yes"/>
      <point x="1956" y="-14"/>
      <point x="2009" y="57"/>
      <point x="2009" y="205" type="curve" smooth="yes"/>
    </contour>
    <contour>
      <point x="1290" y="-8" type="curve" smooth="yes"/>
      <point x="1430" y="-8"/>
      <point x="1496" y="81"/>
      <point x="1496" y="261" type="curve" smooth="yes"/>
      <point x="1496" y="640" type="line"/>
      <point x="1461" y="640" type="line"/>
      <point x="1461" y="261" type="line" smooth="yes"/>
      <point x="1461" y="98"/>
      <point x="1408" y="25"/>
      <point x="1290" y="25" type="curve" smooth="yes"/>
      <point x="1172" y="25"/>
      <point x="1119" y="98"/>
      <point x="1119" y="261" type="curve" smooth="yes"/>
      <point x="1119" y="600" type="line"/>
      <point x="1084" y="600" type="line"/>
      <point x="1084" y="261" type="line" smooth="yes"/>
      <point x="1084" y="81"/>
      <point x="1150" y="-8"/>
    </contour>
  </outline>
</glyph>
<glyph name="Nyasmall1.kn" format="2">
  <outline>
    <contour>
      <point x="59" y="-752" type="line"/>
      <point x="45" y="-692"/>
      <point x="27" y="-623"/>
      <point x="10" y="-568" type="curve"/>
      <point x="-5" y="-598" type="line"/>
      <point x="4" y="-645"/>
      <point x="16" y="-705"/>
      <point x="24" y="-752" type="curve"/>
    </contour>
    <contour>
      <point x="-235" y="-132" type="curve" smooth="yes"/>
      <point x="-297" y="-132"/>
      <point x="-330" y="-172"/>
      <point x="-330" y="-250" type="curve" smooth="yes"/>
      <point x="-330" y="-272" type="line" smooth="yes"/>
      <point x="-330" y="-321"/>
      <point x="-322" y="-353"/>
      <point x="-309" y="-379" type="curve"/>
      <point x="-276" y="-379" type="line"/>
      <point x="-288" y="-353"/>
      <point x="-298" y="-321"/>
      <point x="-298" y="-271" type="curve" smooth="yes"/>
      <point x="-298" y="-250" type="line" smooth="yes"/>
      <point x="-298" y="-191"/>
      <point x="-276" y="-162"/>
      <point x="-232" y="-162" type="curve" smooth="yes"/>
      <point x="-188" y="-162"/>
      <point x="-167" y="-191"/>
      <point x="-166" y="-251" type="curve" smooth="yes"/>
      <point x="-164" y="-366" type="line"/>
      <point x="-135" y="-366" type="line"/>
      <point x="-133" y="-251" type="line" smooth="yes"/>
      <point x="-132" y="-190"/>
      <point x="-111" y="-162"/>
      <point x="-67" y="-162" type="curve" smooth="yes"/>
      <point x="-22" y="-162"/>
      <point x="0" y="-192"/>
      <point x="0" y="-252" type="curve" smooth="yes"/>
      <point x="0" y="-444" type="line" smooth="yes"/>
      <point x="0" y="-485"/>
      <point x="-2" y="-527"/>
      <point x="-8" y="-559" type="curve"/>
      <point x="-11" y="-564" type="line"/>
      <point x="-28" y="-622"/>
      <point x="-63" y="-671"/>
      <point x="-150" y="-671" type="curve" smooth="yes"/>
      <point x="-226" y="-671"/>
      <point x="-265" y="-639"/>
      <point x="-265" y="-577" type="curve" smooth="yes"/>
      <point x="-265" y="-573" type="line" smooth="yes"/>
      <point x="-265" y="-512"/>
      <point x="-226" y="-479"/>
      <point x="-153" y="-479" type="curve" smooth="yes"/>
      <point x="-84" y="-479"/>
      <point x="-36" y="-514"/>
      <point x="-13" y="-580" type="curve"/>
      <point x="1" y="-561" type="line"/>
      <point x="-16" y="-490"/>
      <point x="-73" y="-449"/>
      <point x="-154" y="-449" type="curve" smooth="yes"/>
      <point x="-248" y="-449"/>
      <point x="-298" y="-493"/>
      <point x="-298" y="-573" type="curve" smooth="yes"/>
      <point x="-298" y="-577" type="line" smooth="yes"/>
      <point x="-298" y="-658"/>
      <point x="-247" y="-701"/>
      <point x="-151" y="-701" type="curve" smooth="yes"/>
      <point x="-61" y="-701"/>
      <point x="-14" y="-652"/>
      <point x="6" y="-597" type="curve"/>
      <point x="13" y="-587" type="line"/>
      <point x="27" y="-548"/>
      <point x="32" y="-494"/>
      <point x="32" y="-444" type="curve" smooth="yes"/>
      <point x="32" y="-257" type="line"/>
      <point x="30.3691" y="-249.389"/>
      <point x="21.7753" y="-209.285"/>
      <point x="20" y="-201" type="curve"/>
      <point x="11" y="-155"/>
      <point x="-19" y="-132"/>
      <point x="-65" y="-132" type="curve" smooth="yes"/>
      <point x="-114" y="-132"/>
      <point x="-145" y="-157"/>
      <point x="-149" y="-203" type="curve"/>
      <point x="-150" y="-203" type="line"/>
      <point x="-156" y="-157"/>
      <point x="-186" y="-132"/>
    </contour>
    <contour>
      <point x="101" y="-132" type="curve" smooth="yes"/>
      <point x="56" y="-132"/>
      <point x="27" y="-156"/>
      <point x="21" y="-201" type="curve"/>
      <point x="17" y="-201" type="line"/>
      <point x="22" y="-366" type="line"/>
      <point x="32" y="-366" type="line"/>
      <point x="32" y="-249" type="line" smooth="yes"/>
      <point x="32" y="-191"/>
      <point x="54" y="-162"/>
      <point x="98" y="-162" type="curve" smooth="yes"/>
      <point x="140" y="-162"/>
      <point x="162" y="-191"/>
      <point x="162" y="-249" type="curve" smooth="yes"/>
      <point x="162" y="-271" type="line" smooth="yes"/>
      <point x="162" y="-321"/>
      <point x="152" y="-353"/>
      <point x="140" y="-379" type="curve"/>
      <point x="173" y="-379" type="line"/>
      <point x="186" y="-353"/>
      <point x="194" y="-321"/>
      <point x="194" y="-272" type="curve" smooth="yes"/>
      <point x="194" y="-249" type="line" smooth="yes"/>
      <point x="194" y="-172"/>
      <point x="161" y="-132"/>
    </contour>
  </outline>
</glyph>
<glyph name="PamatraU.kn" format="2">
  <advance width="1154"/>
  <outline>
    <component base="Pa.kn"/>
    <contour>
      <point x="858" y="1108" type="curve" smooth="yes"/>
      <point x="854" y="1108"/>
      <point x="849" y="1108"/>
      <point x="845" y="1108" type="curve"/>
      <point x="845" y="1075" type="line"/>
      <point x="848" y="1075"/>
      <point x="853" y="1075"/>
      <point x="856" y="1075" type="curve" smooth="yes"/>
      <point x="959" y="1075"/>
      <point x="1007" y="1005.01"/>
      <point x="1007" y="862" type="curve" smooth="yes"/>
      <point x="1007" y="155" type="line" smooth="yes"/>
      <point x="1007" y="-78.0193"/>
      <point x="914.642" y="-194"/>
      <point x="732" y="-194" type="curve" smooth="yes"/>
      <point x="585" y="-194"/>
      <point x="493" y="-126"/>
      <point x="434" y="28" type="curve"/>
      <point x="431" y="28" type="line"/>
      <point x="435" y="-30" type="line"/>
      <point x="479" y="-154"/>
      <point x="587" y="-227"/>
      <point x="733" y="-227" type="curve" smooth="yes"/>
      <point x="935.555" y="-227"/>
      <point x="1042" y="-98.032"/>
      <point x="1042" y="152" type="curve" smooth="yes"/>
      <point x="1042" y="863" type="line" smooth="yes"/>
      <point x="1042" y="1028.01"/>
      <point x="983" y="1108"/>
    </contour>
  </outline>
  <guideline angle="90" x="1030" y="0"/>
  <guideline angle="0" x="0" y="-274"/>
</glyph>
<glyph name="PhaNuktamatraO.kn" format="2">
  <advance width="1634"/>
  <outline>
    <component base="PhamatraO.kn"/>
    <contour>
      <point x="261" y="-263" type="curve" smooth="yes"/>
      <point x="242" y="-263"/>
      <point x="233" y="-278"/>
      <point x="233" y="-317" type="curve" smooth="yes"/>
      <point x="233" y="-356"/>
      <point x="242" y="-371"/>
      <point x="261" y="-371" type="curve" smooth="yes"/>
      <point x="280" y="-371"/>
      <point x="289" y="-356"/>
      <point x="289" y="-317" type="curve" smooth="yes"/>
      <point x="289" y="-278"/>
      <point x="280" y="-263"/>
    </contour>
    <contour>
      <point x="617" y="-263" type="curve" smooth="yes"/>
      <point x="598" y="-263"/>
      <point x="589" y="-278"/>
      <point x="589" y="-317" type="curve" smooth="yes"/>
      <point x="589" y="-356"/>
      <point x="598" y="-371"/>
      <point x="617" y="-371" type="curve" smooth="yes"/>
      <point x="636" y="-371"/>
      <point x="645" y="-356"/>
      <point x="645" y="-317" type="curve" smooth="yes"/>
      <point x="645" y="-278"/>
      <point x="636" y="-263"/>
    </contour>
  </outline>
  <guideline angle="0" x="0" y="-274"/>
</glyph>
<glyph name="PhamatraI.kn" format="2">
  <advance width="863"/>
  <anchor x="431" y="0" name="nukta"/>
  <outline>
    <component base="PamatraI.kn"/>
    <contour>
      <point x="432" y="-349" type="curve" smooth="yes"/>
      <point x="447" y="-349"/>
      <point x="453" y="-338"/>
      <point x="453" y="-314" type="curve" smooth="yes"/>
      <point x="453" y="-244" type="line" smooth="yes"/>
      <point x="453" y="-118"/>
      <point x="448" y="-35"/>
      <point x="432" y="35" type="curve"/>
      <point x="416" y="-35"/>
      <point x="411" y="-118"/>
      <point x="411" y="-244" type="curve" smooth="yes"/>
      <point x="411" y="-314" type="line" smooth="yes"/>
      <point x="411" y="-338"/>
      <point x="417" y="-349"/>
    </contour>
  </outline>
  <guideline angle="0" x="0" y="-274"/>
  <guideline angle="90" x="411" y="0"/>
</glyph>
<glyph name="PhamatraU.kn" format="2">
  <advance width="1154"/>
  <outline>
    <component base="Pha.kn"/>
    <contour>
      <point x="858" y="1108" type="curve" smooth="yes"/>
      <point x="854" y="1108"/>
      <point x="849" y="1108"/>
      <point x="845" y="1108" type="curve"/>
      <point x="845" y="1075" type="line"/>
      <point x="848" y="1075"/>
      <point x="853" y="1075"/>
      <point x="856" y="1075" type="curve" smooth="yes"/>
      <point x="959" y="1075"/>
      <point x="1007" y="1005"/>
      <point x="1007" y="862" type="curve" smooth="yes"/>
      <point x="1007" y="155" type="line" smooth="yes"/>
      <point x="1007" y="-78"/>
      <point x="919" y="-194"/>
      <point x="746" y="-194" type="curve" smooth="yes"/>
      <point x="592" y="-194"/>
      <point x="495" y="-124"/>
      <point x="433" y="35" type="curve"/>
      <point x="436" y="-11" type="line"/>
      <point x="442" y="-10" type="line"/>
      <point x="457" y="-68" type="line"/>
      <point x="509" y="-169"/>
      <point x="609" y="-227"/>
      <point x="747" y="-227" type="curve" smooth="yes"/>
      <point x="940" y="-227"/>
      <point x="1042" y="-98"/>
      <point x="1042" y="152" type="curve" smooth="yes"/>
      <point x="1042" y="863" type="line" smooth="yes"/>
      <point x="1042" y="1028"/>
      <point x="983" y="1108"/>
    </contour>
  </outline>
  <guideline angle="0" x="0" y="-274"/>
  <guideline angle="90" x="412" y="0"/>
</glyph>
<glyph name="Rasmall2.kn.alt1" format="2">
  <outline>
    <contour>
      <point x="140" y="-533" type="line"/>
      <point x="145.571" y="-573.058"/>
      <point x="149" y="-617.446"/>
      <point x="149" y="-664" type="curve" smooth="yes"/>
      <point x="149" y="-818.987"/>
      <point x="81.9107" y="-898"/>
      <point x="-84" y="-898" type="curve" smooth="yes"/>
      <point x="-144.128" y="-898"/>
      <point x="-215.026" y="-889.333"/>
      <point x="-259" y="-875" type="curve"/>
      <point x="-250" y="-908" type="line"/>
      <point x="-205.376" y="-921"/>
      <point x="-139.333" y="-928"/>
      <point x="-84" y="-928" type="curve" smooth="yes"/>
      <point x="102.825" y="-928"/>
      <point x="180" y="-839.043"/>
      <point x="180" y="-664" type="curve" smooth="yes"/>
      <point x="180" y="-617.446"/>
      <point x="175.81" y="-573.058"/>
      <point x="169" y="-533" type="curve"/>
    </contour>
  </outline>
</glyph>
<glyph name="RraObsoletematraO.kn" format="2">
  <advance width="2000"/>
  <outline>
    <component base="RraObsoletematraE.kn"/>
    <contour>
      <point x="1615" y="1196" type="curve" smooth="yes"/>
      <point x="1432" y="1196"/>
      <point x="1341" y="1088"/>
      <point x="1341" y="876" type="curve" smooth="yes"/>
      <point x="1341" y="319" type="line" smooth="yes"/>
      <point x="1341" y="101"/>
      <point x="1256" y="19"/>
      <point x="1112" y="19" type="curve" smooth="yes"/>
      <point x="969" y="19"/>
      <point x="882" y="101"/>
      <point x="882" y="319" type="curve"/>
      <point x="859" y="314" type="line"/>
      <point x="859" y="84"/>
      <point x="952" y="-14"/>
      <point x="1111" y="-14" type="curve" smooth="yes"/>
      <point x="1280" y="-14"/>
      <point x="1376" y="85"/>
      <point x="1376" y="317" type="curve" smooth="yes"/>
      <point x="1376" y="876" type="line" smooth="yes"/>
      <point x="1376" y="1064"/>
      <point x="1456" y="1163"/>
      <point x="1615" y="1163" type="curve" smooth="yes"/>
      <point x="1773" y="1163"/>
      <point x="1854" y="1064"/>
      <point x="1854" y="876" type="curve" smooth="yes"/>
      <point x="1854" y="547.25" type="line"/>
      <point x="1889" y="545.294" type="line"/>
      <point x="1889" y="877" type="line" smooth="yes"/>
      <point x="1889" y="1089"/>
      <point x="1797" y="1196"/>
    </contour>
    <contour>
      <point x="1889" y="555.294" type="line"/>
      <point x="1854" y="557.25" type="line"/>
      <point x="1854" y="208" type="line" smooth="yes"/>
      <point x="1854" y="80"/>
      <point x="1813" y="19"/>
      <point x="1726" y="19" type="curve" smooth="yes"/>
      <point x="1639" y="19"/>
      <point x="1598" y="80"/>
      <point x="1598" y="208" type="curve" smooth="yes"/>
      <point x="1598" y="473" type="line" smooth="yes"/>
      <point x="1598" y="605"/>
      <point x="1647" y="642"/>
      <point x="1719" y="642" type="curve" smooth="yes"/>
      <point x="1802.17" y="642"/>
      <point x="1842.78" y="589.364"/>
      <point x="1859" y="489" type="curve"/>
      <point x="1857" y="580" type="line"/>
      <point x="1853" y="580" type="line"/>
      <point x="1837" y="631"/>
      <point x="1796" y="675"/>
      <point x="1719" y="675" type="curve" smooth="yes"/>
      <point x="1614" y="675"/>
      <point x="1563" y="613"/>
      <point x="1563" y="473" type="curve" smooth="yes"/>
      <point x="1563" y="205" type="line" smooth="yes"/>
      <point x="1563" y="57"/>
      <point x="1616" y="-14"/>
      <point x="1726" y="-14" type="curve" smooth="yes"/>
      <point x="1836" y="-14"/>
      <point x="1889" y="57"/>
      <point x="1889" y="205" type="curve" smooth="yes"/>
    </contour>
  </outline>
  <guideline angle="0" x="0" y="-14"/>
</glyph>
<glyph name="RraObsoletesmall1.kn" format="2">
  <outline>
    <contour>
      <point x="-226" y="-130" type="curve" smooth="yes"/>
      <point x="-289" y="-130"/>
      <point x="-322" y="-169"/>
      <point x="-322" y="-243" type="curve" smooth="yes"/>
      <point x="-322" y="-394.483" type="line"/>
      <point x="-290" y="-389.529" type="line"/>
      <point x="-290" y="-244" type="line" smooth="yes"/>
      <point x="-290" y="-188"/>
      <point x="-269" y="-160"/>
      <point x="-227" y="-160" type="curve" smooth="yes"/>
      <point x="-183" y="-160"/>
      <point x="-161" y="-187"/>
      <point x="-161" y="-244" type="curve" smooth="yes"/>
      <point x="-161" y="-340" type="line" smooth="yes"/>
      <point x="-161" y="-396"/>
      <point x="-180" y="-423"/>
      <point x="-220" y="-423" type="curve" smooth="yes"/>
      <point x="-263" y="-423"/>
      <point x="-285" y="-399"/>
      <point x="-292" y="-355" type="curve"/>
      <point x="-293" y="-407" type="line"/>
      <point x="-289" y="-407" type="line"/>
      <point x="-280" y="-431"/>
      <point x="-258" y="-453"/>
      <point x="-217" y="-453" type="curve"/>
      <point x="-177" y="-436" type="line" smooth="yes"/>
      <point x="-141" y="-421"/>
      <point x="-130" y="-390"/>
      <point x="-130" y="-340" type="curve" smooth="yes"/>
      <point x="-130" y="-244" type="line" smooth="yes"/>
      <point x="-130" y="-169"/>
      <point x="-163" y="-130"/>
    </contour>
    <contour>
      <point x="58" y="-453" type="line"/>
      <point x="58" y="-425" type="line"/>
      <point x="-197" y="-425" type="line"/>
      <point x="-217" y="-453" type="line"/>
    </contour>
    <contour>
      <point x="-290" y="-384.529" type="line"/>
      <point x="-322" y="-389.483" type="line"/>
      <point x="-322" y="-566" type="line" smooth="yes"/>
      <point x="-322" y="-658"/>
      <point x="-282" y="-705"/>
      <point x="-203" y="-705" type="curve" smooth="yes"/>
      <point x="-137" y="-705"/>
      <point x="-99" y="-668"/>
      <point x="-96" y="-608" type="curve"/>
      <point x="-94" y="-608" type="line"/>
      <point x="-91" y="-668"/>
      <point x="-53" y="-705"/>
      <point x="13" y="-705" type="curve" smooth="yes"/>
      <point x="92" y="-705"/>
      <point x="132" y="-658"/>
      <point x="132" y="-566" type="curve" smooth="yes"/>
      <point x="132" y="-241" type="line" smooth="yes"/>
      <point x="132" y="-168"/>
      <point x="100" y="-130"/>
      <point x="38" y="-130" type="curve" smooth="yes"/>
      <point x="-24" y="-130"/>
      <point x="-56" y="-168"/>
      <point x="-56" y="-242" type="curve" smooth="yes"/>
      <point x="-56" y="-344" type="line" smooth="yes"/>
      <point x="-56" y="-392"/>
      <point x="-35" y="-417"/>
      <point x="-12" y="-424" type="curve"/>
      <point x="-12" y="-429" type="line"/>
      <point x="50" y="-427" type="line"/>
      <point x="50" y="-425" type="line"/>
      <point x="2" y="-425"/>
      <point x="-25" y="-396"/>
      <point x="-25" y="-342" type="curve" smooth="yes"/>
      <point x="-25" y="-242" type="line" smooth="yes"/>
      <point x="-25" y="-186"/>
      <point x="-4" y="-160"/>
      <point x="39" y="-160" type="curve" smooth="yes"/>
      <point x="80" y="-160"/>
      <point x="100" y="-187"/>
      <point x="100" y="-242" type="curve" smooth="yes"/>
      <point x="100" y="-565" type="line" smooth="yes"/>
      <point x="100" y="-639"/>
      <point x="70" y="-675"/>
      <point x="10" y="-675" type="curve" smooth="yes"/>
      <point x="-49" y="-675"/>
      <point x="-76" y="-640"/>
      <point x="-78" y="-565" type="curve" smooth="yes"/>
      <point x="-80" y="-500" type="line"/>
      <point x="-110" y="-500" type="line"/>
      <point x="-112" y="-565" type="line" smooth="yes"/>
      <point x="-114" y="-640"/>
      <point x="-141" y="-675"/>
      <point x="-200" y="-675" type="curve" smooth="yes"/>
      <point x="-260" y="-675"/>
      <point x="-290" y="-639"/>
      <point x="-290" y="-565" type="curve" smooth="yes"/>
    </contour>
  </outline>
</glyph>
<glyph name="SamatraI.kn" format="2">
  <advance width="825"/>
  <outline>
    <component base="matraI.kn" xOffset="198"/>
    <contour>
      <point x="718" y="217" type="curve" smooth="yes"/>
      <point x="718" y="572" type="line" smooth="yes"/>
      <point x="718" y="712"/>
      <point x="690" y="833"/>
      <point x="619" y="916" type="curve"/>
      <point x="581" y="916" type="line"/>
      <point x="653" y="835"/>
      <point x="683" y="712"/>
      <point x="683" y="574" type="curve" smooth="yes"/>
      <point x="683" y="220" type="line" smooth="yes"/>
      <point x="683" y="85"/>
      <point x="646" y="19"/>
      <point x="564" y="19" type="curve" smooth="yes"/>
      <point x="475" y="19"/>
      <point x="447" y="89"/>
      <point x="427" y="228" type="curve" smooth="yes"/>
      <point x="394" y="453" type="line" smooth="yes"/>
      <point x="373" y="594"/>
      <point x="339" y="658"/>
      <point x="241" y="658" type="curve" smooth="yes"/>
      <point x="142" y="658"/>
      <point x="98" y="589"/>
      <point x="98" y="447" type="curve" smooth="yes"/>
      <point x="98" y="352" type="line" smooth="yes"/>
      <point x="98" y="194"/>
      <point x="119" y="83"/>
      <point x="161" y="-5" type="curve"/>
      <point x="198" y="-5" type="line"/>
      <point x="156" y="79"/>
      <point x="133" y="191"/>
      <point x="133" y="351" type="curve" smooth="yes"/>
      <point x="133" y="448" type="line" smooth="yes"/>
      <point x="133" y="566"/>
      <point x="166" y="625"/>
      <point x="240" y="625" type="curve" smooth="yes"/>
      <point x="318" y="625"/>
      <point x="343" y="569"/>
      <point x="360" y="452" type="curve" smooth="yes"/>
      <point x="393" y="227" type="line" smooth="yes"/>
      <point x="417" y="66"/>
      <point x="452" y="-14"/>
      <point x="564" y="-14" type="curve" smooth="yes"/>
      <point x="668" y="-14"/>
      <point x="718" y="63"/>
    </contour>
  </outline>
  <guideline angle="90" x="323" y="0"/>
</glyph>
<glyph name="SsamatraUu.kn" format="2">
  <advance width="1681"/>
  <outline>
    <component base="Ssa.kn"/>
    <contour>
      <point x="906" y="19" type="curve" smooth="yes"/>
      <point x="817.309" y="19"/>
      <point x="784.532" y="84.8481"/>
      <point x="772" y="172" type="curve"/>
      <point x="754" y="172" type="line"/>
      <point x="759" y="149" type="line"/>
      <point x="768.671" y="57.7976"/>
      <point x="805.421" y="-14"/>
      <point x="906" y="-14" type="curve" smooth="yes"/>
      <point x="1008.58" y="-14"/>
      <point x="1056" y="59.3407"/>
      <point x="1056" y="207" type="curve" smooth="yes"/>
      <point x="1056" y="621" type="line"/>
      <point x="1021" y="621" type="line"/>
      <point x="1021" y="206" type="line" smooth="yes"/>
      <point x="1021" y="77.4375"/>
      <point x="985.542" y="19"/>
    </contour>
    <contour>
      <point x="1295" y="1196" type="curve" smooth="yes"/>
      <point x="1112" y="1196"/>
      <point x="1021" y="1089"/>
      <point x="1021" y="877" type="curve" smooth="yes"/>
      <point x="1021" y="579.006" type="line"/>
      <point x="1056" y="579.006" type="line"/>
      <point x="1056" y="877" type="line" smooth="yes"/>
      <point x="1056" y="1065"/>
      <point x="1136" y="1163"/>
      <point x="1295" y="1163" type="curve" smooth="yes"/>
      <point x="1453" y="1163"/>
      <point x="1534" y="1064"/>
      <point x="1534" y="876" type="curve" smooth="yes"/>
      <point x="1534" y="547.25" type="line"/>
      <point x="1569" y="545.294" type="line"/>
      <point x="1569" y="877" type="line" smooth="yes"/>
      <point x="1569" y="1089"/>
      <point x="1477" y="1196"/>
    </contour>
    <contour>
      <point x="1569" y="555.294" type="line"/>
      <point x="1534" y="557.25" type="line"/>
      <point x="1534" y="208" type="line" smooth="yes"/>
      <point x="1534" y="80"/>
      <point x="1493" y="19"/>
      <point x="1406" y="19" type="curve" smooth="yes"/>
      <point x="1319" y="19"/>
      <point x="1278" y="80"/>
      <point x="1278" y="208" type="curve" smooth="yes"/>
      <point x="1278" y="473" type="line" smooth="yes"/>
      <point x="1278" y="605"/>
      <point x="1327" y="642"/>
      <point x="1399" y="642" type="curve" smooth="yes"/>
      <point x="1482.18" y="642"/>
      <point x="1522.79" y="589.364"/>
      <point x="1539" y="489" type="curve"/>
      <point x="1539" y="580" type="line"/>
      <point x="1533" y="580" type="line"/>
      <point x="1517" y="631"/>
      <point x="1476" y="675"/>
      <point x="1399" y="675" type="curve" smooth="yes"/>
      <point x="1294" y="675"/>
      <point x="1243" y="613"/>
      <point x="1243" y="473" type="curve" smooth="yes"/>
      <point x="1243" y="205" type="line" smooth="yes"/>
      <point x="1243" y="57"/>
      <point x="1296" y="-14"/>
      <point x="1406" y="-14" type="curve" smooth="yes"/>
      <point x="1516" y="-14"/>
      <point x="1569" y="57"/>
      <point x="1569" y="205" type="curve" smooth="yes"/>
    </contour>
  </outline>
  <guideline angle="90" x="824" y="0"/>
</glyph>
<glyph name="TaYasmall.kn" format="2">
  <advance width="120"/>
  <outline>
    <contour>
      <point x="-90" y="-476" type="line"/>
      <point x="-159" y="-534"/>
      <point x="-187" y="-569"/>
      <point x="-187" y="-635" type="curve" smooth="yes"/>
      <point x="-187" y="-718"/>
      <point x="-129" y="-765"/>
      <point x="-30" y="-765" type="curve" smooth="yes"/>
      <point x="85" y="-765"/>
      <point x="145" y="-699"/>
      <point x="145" y="-564" type="curve" smooth="yes"/>
      <point x="145" y="-551" type="line" smooth="yes"/>
      <point x="145" y="-347"/>
      <point x="54" y="-191"/>
      <point x="54" y="-13" type="curve" smooth="yes"/>
      <point x="54" y="-5" type="line" smooth="yes"/>
      <point x="54" y="69"/>
      <point x="81" y="102"/>
      <point x="141" y="102" type="curve"/>
      <point x="142" y="102"/>
      <point x="148" y="102"/>
      <point x="150" y="102" type="curve"/>
      <point x="145" y="132" type="line"/>
      <point x="143" y="132"/>
      <point x="136" y="132"/>
      <point x="134" y="132" type="curve"/>
      <point x="60" y="132"/>
      <point x="22" y="85"/>
      <point x="22" y="-5" type="curve" smooth="yes"/>
      <point x="22" y="-13" type="line" smooth="yes"/>
      <point x="22" y="-179"/>
      <point x="113" y="-351"/>
      <point x="113" y="-551" type="curve" smooth="yes"/>
      <point x="113" y="-564" type="line" smooth="yes"/>
      <point x="113" y="-679"/>
      <point x="66" y="-735"/>
      <point x="-30" y="-735" type="curve" smooth="yes"/>
      <point x="-108" y="-735"/>
      <point x="-155" y="-698"/>
      <point x="-155" y="-634" type="curve" smooth="yes"/>
      <point x="-155" y="-577"/>
      <point x="-126" y="-535"/>
      <point x="-66" y="-487" type="curve"/>
    </contour>
    <contour>
      <point x="-145" y="-513" type="line" smooth="yes"/>
      <point x="-67" y="-513"/>
      <point x="-26" y="-465.691"/>
      <point x="-26" y="-376" type="curve" smooth="yes"/>
      <point x="-26" y="-267" type="line" smooth="yes"/>
      <point x="-26" y="-177.309"/>
      <point x="-66.3109" y="-130"/>
      <point x="-143" y="-130" type="curve" smooth="yes"/>
      <point x="-219.689" y="-130"/>
      <point x="-260" y="-177.309"/>
      <point x="-260" y="-267" type="curve" smooth="yes"/>
      <point x="-260" y="-376" type="line" smooth="yes"/>
      <point x="-260" y="-431.925"/>
      <point x="-244" y="-465.283"/>
      <point x="-209" y="-480" type="curve"/>
      <point x="-209" y="-482" type="line"/>
      <point x="-521" y="-482" type="line"/>
      <point x="-516" y="-513" type="line"/>
    </contour>
    <contour>
      <point x="-143" y="-161" type="curve" smooth="yes"/>
      <point x="-87.3256" y="-161"/>
      <point x="-59" y="-195.352"/>
      <point x="-59" y="-267" type="curve" smooth="yes"/>
      <point x="-59" y="-376" type="line" smooth="yes"/>
      <point x="-59" y="-447.648"/>
      <point x="-88" y="-482"/>
      <point x="-145" y="-482" type="curve" smooth="yes"/>
      <point x="-199.349" y="-482"/>
      <point x="-227" y="-447.648"/>
      <point x="-227" y="-376" type="curve" smooth="yes"/>
      <point x="-227" y="-267" type="line" smooth="yes"/>
      <point x="-227" y="-195.352"/>
      <point x="-198.674" y="-161"/>
    </contour>
  </outline>
  <guideline angle="0" x="0" y="-407"/>
  <guideline angle="0" x="0" y="-407"/>
</glyph>
<glyph name="TtamatraI.kn" format="2">
  <advance width="868"/>
  <outline>
    <contour>
      <point x="616" y="1285" type="curve" smooth="yes"/>
      <point x="516" y="1285"/>
      <point x="468" y="1225"/>
      <point x="468" y="1098" type="curve" smooth="yes"/>
      <point x="468" y="1010" type="line" smooth="yes"/>
      <point x="468" y="896"/>
      <point x="513" y="845"/>
      <point x="608" y="845" type="curve" smooth="yes"/>
      <point x="678" y="845"/>
      <point x="713" y="878"/>
      <point x="728" y="916" type="curve"/>
      <point x="733" y="916" type="line"/>
      <point x="733" y="996" type="line"/>
      <point x="718" y="920"/>
      <point x="682" y="878"/>
      <point x="608" y="878" type="curve" smooth="yes"/>
      <point x="546" y="878"/>
      <point x="503" y="908"/>
      <point x="503" y="1010" type="curve" smooth="yes"/>
      <point x="503" y="1098" type="line" smooth="yes"/>
      <point x="503" y="1203"/>
      <point x="539" y="1252"/>
      <point x="616" y="1252" type="curve" smooth="yes"/>
      <point x="693" y="1252"/>
      <point x="729" y="1203"/>
      <point x="729" y="1098" type="curve" smooth="yes"/>
      <point x="729" y="849" type="line" smooth="yes"/>
      <point x="729" y="711"/>
      <point x="690" y="652"/>
      <point x="577" y="649" type="curve" smooth="yes"/>
      <point x="542" y="648" type="line"/>
      <point x="542" y="617" type="line"/>
      <point x="577" y="616" type="line" smooth="yes"/>
      <point x="691" y="613"/>
      <point x="731" y="554"/>
      <point x="731" y="416" type="curve" smooth="yes"/>
      <point x="731" y="221" type="line" smooth="yes"/>
      <point x="731" y="83"/>
      <point x="684" y="19"/>
      <point x="593" y="19" type="curve" smooth="yes"/>
      <point x="498" y="19"/>
      <point x="453" y="83"/>
      <point x="452" y="222" type="curve" smooth="yes"/>
      <point x="450" y="425" type="line"/>
      <point x="424" y="425" type="line"/>
      <point x="435" y="137" type="line"/>
      <point x="445" y="38"/>
      <point x="500" y="-14"/>
      <point x="593" y="-14" type="curve" smooth="yes"/>
      <point x="708" y="-14"/>
      <point x="766" y="60"/>
      <point x="766" y="220" type="curve" smooth="yes"/>
      <point x="766" y="416" type="line" smooth="yes"/>
      <point x="766" y="543"/>
      <point x="731" y="617"/>
      <point x="631" y="632" type="curve"/>
      <point x="631" y="634" type="line"/>
      <point x="731" y="650"/>
      <point x="764" y="723"/>
      <point x="764" y="849" type="curve" smooth="yes"/>
      <point x="764" y="1098" type="line" smooth="yes"/>
      <point x="764" y="1225"/>
      <point x="716" y="1285"/>
    </contour>
    <contour>
      <point x="277" y="1196" type="curve" smooth="yes"/>
      <point x="156" y="1196"/>
      <point x="104" y="1134"/>
      <point x="104" y="973" type="curve" smooth="yes"/>
      <point x="104" y="849" type="line" smooth="yes"/>
      <point x="104" y="723"/>
      <point x="137" y="650"/>
      <point x="237" y="634" type="curve"/>
      <point x="237" y="632" type="line"/>
      <point x="137" y="617"/>
      <point x="102" y="543"/>
      <point x="102" y="416" type="curve" smooth="yes"/>
      <point x="102" y="220" type="line" smooth="yes"/>
      <point x="102" y="60"/>
      <point x="160" y="-14"/>
      <point x="275" y="-14" type="curve" smooth="yes"/>
      <point x="368" y="-14"/>
      <point x="423" y="38"/>
      <point x="433" y="137" type="curve"/>
      <point x="447" y="137" type="line"/>
      <point x="446" y="425" type="line"/>
      <point x="418" y="425" type="line"/>
      <point x="416" y="222" type="line" smooth="yes"/>
      <point x="415" y="83"/>
      <point x="370" y="19"/>
      <point x="275" y="19" type="curve" smooth="yes"/>
      <point x="184" y="19"/>
      <point x="137" y="83"/>
      <point x="137" y="221" type="curve" smooth="yes"/>
      <point x="137" y="416" type="line" smooth="yes"/>
      <point x="137" y="554"/>
      <point x="177" y="613"/>
      <point x="291" y="616" type="curve" smooth="yes"/>
      <point x="326" y="617" type="line"/>
      <point x="326" y="648" type="line"/>
      <point x="291" y="649" type="line" smooth="yes"/>
      <point x="178" y="652"/>
      <point x="139" y="711"/>
      <point x="139" y="849" type="curve" smooth="yes"/>
      <point x="139" y="972" type="line" smooth="yes"/>
      <point x="139" y="1111"/>
      <point x="181" y="1163"/>
      <point x="277" y="1163" type="curve" smooth="yes"/>
      <point x="306" y="1163"/>
      <point x="334" y="1158"/>
      <point x="356" y="1149" type="curve"/>
      <point x="351" y="1183" type="line"/>
      <point x="333" y="1190"/>
      <point x="304" y="1196"/>
    </contour>
  </outline>
</glyph>
<glyph name="TtamatraU.kn" format="2">
  <advance width="1214"/>
  <outline>
    <component base="Tta.kn"/>
    <contour>
      <point x="918" y="1188" type="curve" smooth="yes"/>
      <point x="914" y="1188"/>
      <point x="909" y="1188"/>
      <point x="905" y="1188" type="curve"/>
      <point x="905" y="1155" type="line"/>
      <point x="908" y="1155"/>
      <point x="913" y="1155"/>
      <point x="916" y="1155" type="curve" smooth="yes"/>
      <point x="1019" y="1155"/>
      <point x="1067" y="1085"/>
      <point x="1067" y="942" type="curve" smooth="yes"/>
      <point x="1067" y="226" type="line" smooth="yes"/>
      <point x="1067" y="87"/>
      <point x="1020" y="19"/>
      <point x="926" y="19" type="curve" smooth="yes"/>
      <point x="818" y="19"/>
      <point x="766" y="89"/>
      <point x="766" y="230" type="curve" smooth="yes"/>
      <point x="766" y="251" type="line"/>
      <point x="745" y="251" type="line"/>
      <point x="745" y="219" type="line" smooth="yes"/>
      <point x="745" y="63"/>
      <point x="805" y="-14"/>
      <point x="926" y="-14" type="curve" smooth="yes"/>
      <point x="1042" y="-14"/>
      <point x="1102" y="69"/>
      <point x="1102" y="227" type="curve" smooth="yes"/>
      <point x="1102" y="943" type="line" smooth="yes"/>
      <point x="1102" y="1108"/>
      <point x="1043" y="1188"/>
    </contour>
  </outline>
  <guideline angle="90" x="838" y="0"/>
  <guideline angle="90" x="766" y="0"/>
  <guideline angle="90" x="1220" y="0"/>
</glyph>
<glyph name="TthamatraAu.kn" format="2">
  <advance width="1129"/>
  <outline>
    <component base="matraAu.kn" xOffset="336"/>
    <contour>
      <point x="244" y="1162" type="line"/>
      <point x="244" y="1144" type="line"/>
      <point x="158" y="1110"/>
      <point x="112" y="1019"/>
      <point x="112" y="865" type="curve" smooth="yes"/>
      <point x="112" y="298" type="line" smooth="yes"/>
      <point x="112" y="89"/>
      <point x="195" y="-16"/>
      <point x="358" y="-16" type="curve" smooth="yes"/>
      <point x="521" y="-16"/>
      <point x="604" y="89"/>
      <point x="604" y="298" type="curve" smooth="yes"/>
      <point x="604" y="865" type="line" smooth="yes"/>
      <point x="604" y="1019"/>
      <point x="557" y="1110"/>
      <point x="471" y="1144" type="curve"/>
      <point x="471" y="1162" type="line"/>
    </contour>
    <contour>
      <point x="112" y="1178" type="line"/>
      <point x="112" y="1146" type="line"/>
      <point x="471" y="1146" type="line"/>
      <point x="471" y="1178" type="line"/>
    </contour>
    <contour>
      <point x="358" y="740" type="curve" smooth="yes"/>
      <point x="342" y="740"/>
      <point x="338" y="722"/>
      <point x="338" y="664" type="curve" smooth="yes"/>
      <point x="338" y="517" type="line" smooth="yes"/>
      <point x="338" y="459"/>
      <point x="342" y="441"/>
      <point x="358" y="441" type="curve" smooth="yes"/>
      <point x="374" y="441"/>
      <point x="378" y="459"/>
      <point x="378" y="517" type="curve" smooth="yes"/>
      <point x="378" y="664" type="line" smooth="yes"/>
      <point x="378" y="722"/>
      <point x="374" y="740"/>
    </contour>
    <contour>
      <point x="569" y="865" type="curve" smooth="yes"/>
      <point x="569" y="298" type="line" smooth="yes"/>
      <point x="569" y="112"/>
      <point x="497" y="17"/>
      <point x="358" y="17" type="curve" smooth="yes"/>
      <point x="219" y="17"/>
      <point x="147" y="112"/>
      <point x="147" y="298" type="curve" smooth="yes"/>
      <point x="147" y="865" type="line" smooth="yes"/>
      <point x="147" y="1051"/>
      <point x="219" y="1146"/>
      <point x="358" y="1146" type="curve" smooth="yes"/>
      <point x="497" y="1146"/>
      <point x="569" y="1051"/>
    </contour>
  </outline>
  <guideline angle="0" x="0" y="564"/>
  <guideline angle="90" x="1078" y="0"/>
  <guideline angle="90" x="1706" y="0"/>
</glyph>
